/* XPM */
static char *_685_bc75685aa84dd3c07ec56e48be0def0030cec7d585a942ed02196a43533c0da7[] = {
/* columns rows colors chars-per-pixel */
"64 64 88 1 ",
"  c #1D0C02",
". c #17120F",
"X c #1C140E",
"o c #0E1316",
"O c #0C1419",
"+ c #0E181F",
"@ c #101315",
"# c #1B1612",
"$ c #1E1814",
"% c #11161A",
"& c #131A1E",
"* c #1D1C1C",
"= c #240E01",
"- c #280F00",
"; c #261104",
": c #2B1202",
"> c #25130A",
", c #2A160B",
"< c #22180F",
"1 c #2D190D",
"2 c #331500",
"3 c #381700",
"4 c #351904",
"5 c #3B1A02",
"6 c #301708",
"7 c #331A0A",
"8 c #3B1E0A",
"9 c #221A13",
"0 c #2D1A11",
"q c #221E1B",
"w c #331F13",
"e c #37200E",
"r c #3D210D",
"t c #25211E",
"y c #2D241C",
"u c #352113",
"i c #3B2312",
"p c #3F2917",
"a c #37261A",
"s c #3F2918",
"d c #0F1A22",
"f c #121E25",
"g c #1C1F21",
"h c #162026",
"j c #192025",
"k c #14222B",
"l c #1A252C",
"z c #1F292F",
"x c #1A2730",
"c c #172834",
"v c #1A2A35",
"b c #1B2E3A",
"n c #1C303D",
"m c #242221",
"M c #2A2520",
"N c #292826",
"B c #232729",
"V c #2C2C2C",
"C c #212C34",
"Z c #202F3A",
"A c #2E3132",
"S c #323435",
"D c #34393C",
"F c #431E01",
"G c #401F08",
"H c #462103",
"J c #492101",
"K c #43240C",
"L c #48260B",
"P c #48290F",
"I c #422612",
"U c #452A14",
"Y c #482A11",
"T c #442C1A",
"R c #46301E",
"E c #433223",
"W c #1D3341",
"Q c #203645",
"! c #233A49",
"~ c #254052",
"^ c #2A4355",
"/ c #29465A",
"( c #2C4A5F",
") c #304A5B",
"_ c #2E4E64",
"` c #355266",
"' c #31546C",
"] c #345871",
/* pixels */
":;-:-;--:;:-:;:-:::-:::::::::::::::::::::::::::::::::-:-::-::--;",
"----- ===== ===-=====-;;-==-=------=-=--=--:-:;:----==-==--:-::-",
":--==                       = =   == =   = =--====       =---::-",
"-;-=;>===;=>;;;=;;;;;;;;:;,;>;;;;;>;;;;;>;;==  =  ;;=>=====;:--:",
"---=;;-;;;-;-:--:;--:;:::;::-::::-:-:::::-;:-;;,>>;;:---;==--:-:",
"-= =-:;->;;::::::222:222222222232322222222::::::-:-:::2-:----::-",
"-  =-:::>>;::2222224444455355555555555535532:22:222:22:2::-::---",
"- ;;:-:-;>;::X@oo@@@&%++O%%@lxfffg%Olxllll@@ffoofgX:--:222:2:-::",
"-=;---2::;,::;.oOo+dffkdckO+ccO+kkddddddccddO+++f#;>;---:2:2---:",
"-w>-:2--:;,>,:;.OOddffkdkk+Occ++kfddddddccdd+O+O#>:-:::--:2:-22-",
"->;:2-:::::11,-;*zOO++OO+O++++fkcccckkkkfkOOOoo.;:7:24:2:2-:::--",
":>:-2:-::-:611>:>goO+OOOO+++++kkccccfkkfkfOOOo.;:,6:-:-::::----:",
"-=;:-2-1:-::>11>:1*hncccccOOO+dffk++dfkkkkOOOX;;:622:22:,::=-::-",
":>;:2-:M;2::210162,tzvccccOOOOddfk+OkfkkkfOoX;2,66:222:>t2;==-::",
":>>222:@.;::2:174::;#OnbccOOOOOOOOOOOOffdOO.:::7622222>$l2=>>:-2",
"->;:-2:oo.;::2,6117:>#vnccOOOOOOOOOOOOkkOO#;:re1222:2>qfl2:=1,--",
":;;;22:fOO. ::22717621#Onv&+OObb!W/~OOcckq634677222:1tcv%5:;,,--",
":>>:222fOoo.:::2478772>#vn++OObcWW/~oOcxq7558775222,jxcvO52-,6--",
"-;1:-22xOOOo#,:222477727mvOOoOoodOOOoOlme55286742:>qkkbbz45:,1,-",
"-6,,-22xoOOOO#::22448i761MoOOOOOOOOOOot85552885521qkkfbbl252:,6-",
"--1,:22lkk+++%#;22354wiw879fOocc~~WWlt25F5F58e84;.O+fkkc&253;,4-",
"-->1;23xck+OOOO#,32235wuw719oOcv~~QQt75FF55ri74:#oO+kkkf&23F,>,:",
"-->7:22lcckk+OddX:2225G8I826<obn__)D4FFF5258K51$lcOooOOOl2254,,-",
":-=w6:2lccxxO+dd@X62235GiI554Xbb))DTFFFF558rH79OccOOOOOOl22F2>7:",
"--->,:2xkfOOOOddkfq45245KIK5F3yBMMiHHFF458i81XlxdOOOddffl22F2:07",
":--,,:5zkkOoOOddkkhq1525GII8558irrJJFF555rK7XokxdOOOdfffl2233:,6",
":-->1;2jOOoOOOfkkfooX4225KIKGFFFJJJF55F5rK8X&dbbWWWWWWbbC2225,1:",
":2-,w72fOOOOOOkfkkOO@X425KUIFFJF5545555KK7XofdbnWWWWbWvcx223F61:",
"::-=w63@oOOOOOOO++vvcx9,:KIUHFF345454YI87<@O!WccddOOOOOol222F71;",
"-2-=163@OOOO+OOO++ccccf9:5KUKHF5FG5TTi87XOoo!WccddOOOOOog232F81;",
"22-=>,5@dfd+OOOOOOkc__/~94GLUIH845KUKK8qOOkf]'/_OOOOdfOO^332F7,;",
"-:-->,5@ddd+OOO+OOcc__//%>5LTTsEsTIKHH7*Odfk''_/OOOdffoo^222F8,>",
"2::=>,5&kkddOOddOOkk~^]`M72JYTEEssHJJJiV@Okk!!~~OO+O+Oddk222J71;",
"::-=>,5&kkddOOdOddkk~!]`M725PTEETTLJJ5uV@Okx!~~~OOOdOOddl422J71;",
"-:-=1,5hccffOdOOkkoOQW!D8532FYTETTLJJ55K<%OOOOkfddddOO/_&425F81;",
":-:,1,5jkkfd++OOkxOoQQSpFFF35HYERTYLJF5J8<ooOOffddfdOO__%222F71;",
":--w144jfkd+OdOOkk+OZN7FJFFF2FHUUTUULG5FFr9OOOOofkddcc//g322H71;",
"2-=1125kkkdO+dOOkkOON8FFFJFF545HPLYUULF5FF8<oOOOdkd+cc//j232F81;",
":- >6:5cccOOfkOokk@#5FFFFFFJF50uUTHLLYL85FFrXoOoOOOOdfdd&223F71;",
":-=>6:4kckOOfdoOffX4FFFFFJFJ58NvDDuKHLIII5552XooOOOOdddd%222F71;",
"-:=,>23dccddO+++f9,2FJFFFFFF89vv!!#,5FITTK5257<@Ooddkfffl222F7>:",
":->1,35&ccdd+O+%9;22GFJFFFF59%bv~~@X,25UIIr5F56XoOddffkfj222F81;",
"-=00225gkkOOOOO.>28iKFJJFF89@okfvbo@Si85HKIrG52,qkOOddOO%222F7,;",
"2=>1222ffdOoOo.=28wiGFJFre$&oOkkvcOo!Aa455KI8F321mOOOOOO%222F8>>",
"-=>,:33ffkOO@X>:8778GF5FuN+dOOkkWnWW_/Vw2655GF2:46tkcbccf222F7>-",
"-=,>:25fkkOoX,2:77853336NbddOOcknnWW(_WN,2:222:2337qvcccx22257,,",
"211;222gO&o.:::7u7552:79ckccOOdO+O++OOoo>4422:22532,9%bbx222F7>-",
":w1;226fO%.;22;7772558qfccccOOOOO+++oOOOoX4425333333:#vZx22257>,",
"-1,:222lfq;222,772547mxbOdbbOOOOkknn!!kkOoX45553333226#&x22237>;",
"->>222-lq122-,164227mxvvdObbOOOOddnn!WkkoOo.6333335222,#l2:256>;",
"->,:222q12:->7662:>qhkbbvvccOOff++kkW!cvOOooX6333322222>t22256>:",
"201>222>:--67,222,qlkkbbvvccOOkf++kk!WbcOOOo%X,222322222,2:236,;",
":7<>:222::770622;#@dkkkkddddOOWWfknnnncckcO+d@#;232222:2222-5,>-",
"-=>>::2:-:;,6:2;#OOOfkkfddddOObbkfnnnncckkOOOO&#,22222222-2236,;",
"-=1>>2-2:-:-:;;#kcOOOOOOvcddOOOOOOkcbbckcckxOdd&.:2222:2-2-242>=",
"--=>:22--:-;-;#&ccOOOOOovcddOOOoOOckbbkkccck@Oddo.;2:22:2-2-46>>",
"-- >;22-2---:Xgf@%Oo&&gfzl%%@@fgO&jjljxzgf@@@@f&fg9::2222--22,;;",
"--= ;-22::2-:22222222222222223222442232232222222222222-:-22:2:>:",
"--==;22-:-22:2:2-2222-222222232222422232222222222222322222222:--",
":-=>>-3-:2-::-2-22-4222555F5FFFFFFFFHFFFG5F55553322G5-66:62:----",
"--=>>-:2--2-2-22232353478888888888r8888888875777766761>>>:,--:-:",
"--=,,=::2222222:,27474,170101w00w1w7101111,11110,,,1>;=;:::--:-:",
"--->--2--,:,6,671,,11011,,,,,:2,;:,::,,:,2:,>;::;,;-::----:--:::",
"-------6;>>>,>,1,>=,:;,::2-:----:---::-:--:----:-------:----:---"
};
