/* XPM */
static char *_1307_2c6754a11c74664b0ea414d93ccecc762880acf71cb3da7247292542a5baa358[] = {
/* columns rows colors chars-per-pixel */
"64 64 77 1 ",
"  c #1D0C02",
". c gray9",
"X c #191716",
"o c #1D1916",
"O c #1D1B1B",
"+ c #240E01",
"@ c #280F00",
"# c #261104",
"$ c #2B1202",
"% c #2F1807",
"& c #25140A",
"* c #2A160A",
"= c #2D190D",
"- c #331500",
"; c #381700",
": c #351904",
"> c #3B1A02",
", c #301708",
"< c #341A0A",
"1 c #3A1E0A",
"2 c #241711",
"3 c #241913",
"4 c #2B1C13",
"5 c #221E1D",
"6 c #321E13",
"7 c #3D210C",
"8 c #2F2117",
"9 c #25201E",
"0 c #2C221C",
"q c #322116",
"w c #3B2212",
"e c #32251B",
"r c #37291E",
"t c #3A2A1D",
"y c #211F20",
"u c #252323",
"i c #2A2625",
"p c #2D2926",
"a c #2C2B2B",
"s c #312924",
"d c #3A2C22",
"f c #312D2B",
"g c #3E3026",
"h c #33312E",
"j c #3B332D",
"k c #333232",
"l c #393532",
"z c #3D3936",
"x c #3B3A3A",
"c c #431E01",
"v c #401F08",
"b c #462103",
"n c #492101",
"m c #43240C",
"M c #49260B",
"N c #47280F",
"B c #48290F",
"V c #422612",
"C c #462913",
"Z c #482A12",
"A c #442C1A",
"S c #46301E",
"D c #402E20",
"F c #433224",
"G c #44352A",
"H c #453830",
"J c #413D3B",
"K c #45413F",
"L c #434242",
"P c #484646",
"I c #4D4A47",
"U c #4D4C4C",
"Y c #504C4A",
"T c #4F504F",
"R c #535353",
"E c #5C5755",
"W c #5F5E5E",
/* pixels */
"$#$@$@@@#$$$#$$@$$$@$$$$$$$$$$$$$$$$$$$$$$$$$$$$@$$@$@$@$$$@$@$@",
"@@@@+++++++ +++++++++@##@++#@@@@+@+@@@@@+@$$$@$#$@@@++++@@@#$@$@",
"$@@+                           + + +       @@@++++       +@@@$$@",
"@#@+#&+++&++###+########$*###*####&#####*##+ + +  +&+&+@+++#@$@$",
"@@@+##@#&@@@@$@#@$@$##$$$#$$@$$@$$$$#$$$$@######&*##$@$@#++@@@@$",
"++ +@$$#&&#$$$-$$-$----$------------>-----$$$$$$@$$$$$$@$#@@$$$@",
"@  +$$$#+&#$$$-----;-;-;>;>>>>>>>>>>>>>>>;>--$$-----$-$-$$@$@$@$",
"@ #$@@$@&&*$$4355599ffii9959ffiiiiiifffppp99595595=$$@$---$-$@@$",
"@++@@@-@$#**$%2O55iuafakkkuuaauaaaaauaaaakuuyyuyu4*$#@@$$---@$@-",
"+4&---@$$$#*$$#255iaffkafkuuuaaiaauaaaauaauuyOO94#$#$$$$@$$$@$@@",
"@&#$@$$$$$#*4$$*0piaaauaiuuiuuaikaaaiiauauOO.OO3&$,$:-@$$-@$@-$$",
"$&$@-$@@@$$%=4#@*0iaauauuaiuiuapaaaaaiaauaOOOo2#$*,$$$$@$$$@@@@@",
"$+#$$$$%$@$$%4=*$<0akaaaaayy5iiuaauuaaauuuOX.&*@$,,-$--@%$@+@$$@",
"$&#$-$-d,@-$$,==$;<0akaaakyOi5yuiuuuaiaauaO.&*-*<$-----%e-#++@$$",
"@&*--@$2&#@$$$===$$%uakkakyy..55OyOyuupauuO2$$%%$-$---<is-@**#@$",
"@&#$-$$o53=@--,,=%%*%0akkayy..yuyOOOuuaaui2*-16<,---$,eap-#+*%@$",
"$#*$$-$s9y8%$$--<<<,-<0fkk55OOkkLxTUaaxxp0:;:,<<----=0ffa>$#%%@@",
"@*##--$fyyO3%$$-,<1<<,<ehk55oOkkLLUTuaxze1>>1<<>--$%yaakp>-$%*@@",
"$#*$$--fyyOO8#%$--:<<<:<0h59OOuuaakkkkzg7>>-1<<:--%0aakkp;>$***@",
"@*=*@--fyyyO58%%---:16<<<e99O5uaaaakkag7>>>-11<>-$0iaakkp->$#*%@",
"@@**#--faauuy93%--;;>6w6718iyykxLLLLld7>>cc11w1;%5uuaaaai->;#*%@",
"@@*=#->faayy9993<;;->>1q6<<q5yxxLLLxd7ccc>>>w<;:49uauaaai-;>%*$@",
"@@==*--paaauyyu94,;-->17w7><89JLTTTK7ccb>;;1m><4ffuuuuuui--c,*=@",
"@@+=%--paaaayyuu54<--;>1m71>14xKYKKBbcc>;>7771qukkiuuuius--c-#=*",
"$@@*%#-paaOOyOuui9q1>-;77Vm>>cDjFFZbbcc>>vw<<4klaaaaaaaas--c-$4<",
"$@@&%#;fiiOOyyuuiuiq<>->bwm7>>mVMBbbcc;>>1m145xkaaaaaaaas--;;$%,",
"$@@*=*-iOOOO.Ouuaau54<;->mVmccccnnnb>>c>mm14faxxxxkkkkkaf--->,*$",
"$$@*<,-iOO..O.uuaayu98<->mVVccnc>>>>>>>mm145aaxxxLkkxkkkf---c,**",
"$$@+6,;o....yOyyuukxxkrq-mVCMbc>:>->:Cm77455LLxLkaakkaakl--;c<**",
"-$@+*,;o....Oyyyuixkxxai%>mVmbb>cc>AAw114555LLLxkkaaakkaj---c<*#",
"@$@@&=;Ouuyy..uuuuxxTRPL8<bMVVb><>mCVvmeuukkRRUUkaaaaaffI---c<**",
"-@$@&%>Ouuyy..uuuaxkTTPP0=1mCStFtAVmbnweuukkWRUUakaakafkY--;c<*@",
"$$@@&%>uiiuuOOauuakxUIWEd<>bNAFFVtMnncmFiilhPPLLakaaakkkk:;-c1**",
"-$@+&$>9uuuuOOuaauxkUIWEd7->NASFAAMnncwFsphhPPLLaaaaaakxh:--c<*@",
"@$$+4%>iaauuyuOOakkfJLPG7b;-bNAFZZBcc>>mefaiyyhfaaaakkRRs--;c1=#",
"$@@&4*>pauuuuyOOkkfkLxGCcbc->bZSSSZMnccbbeiiyifaaakaakURs:--c,**",
"$@@64$>faayuy9O5aauukd1cbnc>;>MNACCCMb>ccmq055y5uaaaxxUUf--;c<=*",
"@-+*=:>auauuyyOOuauudmccccnc>;>MMMZCZmc>cc7q55yyauaaxxUUd;--c1*@",
"$@+&%$1aaauyuu9Ouuy5>ccccncn>>7qZZMMMCmv>ccm6i55yOyykkaay;--c1=&",
"$@+&%$;aaauuuuOOii4:cccccccnb7djHHVbbmCVV>>c1435yyuukaaiy---c<*#",
"@$+=*--iaauuyy9y56<-cnbcccccmelkPKr<;bNAAm:>>1=5yyuakaakd:-;c1*@",
"$@&=*->iaauuyyy94,-->nncccccqikxPPfd1>1mVV7:>v:45yauaakaf---c,**",
"$+4=,-;iuaOOOOO3<-1wmcnncc1qiuaaxkkkKM>7mVm7v>-:6auaauauu---c,&*",
"@@&=--;iaiOO..2*-<6wvcncc7qiuuakkxkkKKw>>>mV1c--<eaauauau;--v<*@",
"@+&%$;;iiuOO.2%$16<1>c>c1duiuuaakkLLUPj7-->1>c-$-<spfkaai---c,*#",
"$+&#$->iiuO.&$-$<<1;-;>1dkiiuuaakkLLUUKg1------$;;1eafakf-$-c,**",
"$=**---iiio2%-$<61>>--1efkfkuaiuaaaauuOO=:-$-$-->;-<epkaf---c,&@",
"$6=#---iuu&$$-$=<:->><daffkkuuiiaaaauyOOO=1;>-;>;;;;,sakp--->,**",
"$*=$--$la4$--$%=<:>-10aaaakkuiiyppkkLLfau541;>;>;>;--<epf---;,*#",
"@&%$---j0=--$%=<:;;1eikakakkiuyyppkkLLkk5954:;>;;-;---<sf-$->,*#",
"@&*#---s<-$@*<,,-$<9aakkaaaau5piaakkxxkk5uO54<->;;-;---,q--->,&#",
"-4**-;$%$$@,=,$-$$0aaakkkkaau9ppaafkxlkk55OO94:;-;------,$$-;,*#",
"$,2*#---$$<=<,,-:4uuaaaaaaaayOxxfkkkkkakaauyu54,-----------$>**@",
"#@&*#$--@$*$%$-$5uiuiuaaauia5yxxkakkkkakaayuyy54:-----$-$$$-:%&+",
"@@*&$$-@$@$$$$%4akuiuuuiaaiuuuuuaaakkkaaaaaayyi54$,-$-$-$--$:-&@",
"@@ &*--@$$@@@*5ufkiuuuuiaaia9uuuaakakkkaaaauy5y554,----$-$@--*&&",
"@@ +#-$-@$@-$=fhiiiiiiisss5925ifyisappppii35529iiy4-$-@-$--$;,##",
"@++&#@-@@-$@@-$--$--------;--;---:---;-:-;-------$-----$-$$$;@@*",
"@@+ #-@-$-$--@-$--$------------;-;;--:;------------;;---$--$-@+@",
"@@+&*@--$@-@@-@-@------;>>c>ccccvcccccccv>c>>>;:;;:>>@,%--:@@@@@",
"@@+&&@--$$$$-@-$-;:;>>:,111111111vv1<v11111<1<1<,,,1=*&&&%$@@@$$",
"$@+*&*@@---$----$*,1<,,=<4===6==6===========***4*****#@#@$$@@$$@",
"@@+*@@@@@-$***,<%***=====,,%$**-**,*@,*,*$%$#*$$*$#@$@@@@@@$@$$@",
"@@+@@@@-&&&**&=***+*#**$#$@@@@@@@@@@@@@@@@@@@@@@@#@@@@$@@@@$@@$@"
};
