/* XPM */
static char *fa9382283dbb4380c27081ae0b6c1a4e[] = {
/* columns rows colors chars-per-pixel */
"64 64 204 2 ",
"   c #3F2215",
".  c #4D190E",
"X  c #551E12",
"o  c #591F13",
"O  c #4B260F",
"+  c #432517",
"@  c #4D2A13",
"#  c #452719",
"$  c #46291A",
"%  c #4B2D1C",
"&  c #562014",
"*  c #5C2215",
"=  c #542C13",
"-  c #5B2A16",
";  c #5D2519",
":  c #502D1C",
">  c #4E301F",
",  c #573014",
"<  c #5B3215",
"1  c #52301E",
"2  c #5C341B",
"3  c #622716",
"4  c #632619",
"5  c #652A1A",
"6  c #6A2C1D",
"7  c #643617",
"8  c #62361C",
"9  c #6E311E",
"0  c #643A1D",
"q  c #6B3C1D",
"w  c #71311F",
"e  c #4E2E20",
"r  c #522F20",
"t  c #543322",
"y  c #5B3624",
"u  c #5C3A25",
"i  c #5D3C28",
"p  c #6C2E21",
"a  c #6E3121",
"s  c #633C25",
"d  c #693E24",
"f  c #623E2B",
"g  c #683E2C",
"h  c #743422",
"j  c #7A3624",
"k  c #763A25",
"l  c #7C3A26",
"z  c #763729",
"x  c #7C3A29",
"c  c #6E411F",
"v  c #73411F",
"b  c #7F471F",
"n  c #6D4224",
"m  c #64412C",
"M  c #6A452D",
"N  c #6B482E",
"B  c #744524",
"V  c #794725",
"C  c #7D4925",
"Z  c #73462C",
"A  c #794729",
"S  c #73482E",
"D  c #7C4B2B",
"F  c #7F502A",
"G  c #674330",
"H  c #6B4631",
"J  c #6D4A33",
"K  c #6F4E38",
"L  c #714731",
"P  c #734C33",
"I  c #7A4D34",
"U  c #724E39",
"Y  c #7B4F38",
"T  c #755135",
"R  c #7C5135",
"E  c #74523A",
"W  c #7B533A",
"Q  c #7B593E",
"!  c #823C26",
"~  c #8A3C27",
"^  c #823D29",
"/  c #8C3E29",
"(  c #903E2A",
")  c #874127",
"_  c #894227",
"`  c #824C25",
"'  c #894E25",
"]  c #85412B",
"[  c #8B442C",
"{  c #824E2B",
"}  c #8C4A2D",
"|  c #974629",
" . c #93442C",
".. c #924B2F",
"X. c #845126",
"o. c #8B5026",
"O. c #85512C",
"+. c #8A532C",
"@. c #8E5A2D",
"#. c #945127",
"$. c #93542C",
"%. c #854230",
"&. c #8B4531",
"*. c #8E4A32",
"=. c #8E4C38",
"-. c #934531",
";. c #924B33",
":. c #9B4B34",
">. c #944D39",
",. c #9B4C39",
"<. c #835233",
"1. c #8A5531",
"2. c #8C5A31",
"3. c #83553A",
"4. c #895539",
"5. c #86593D",
"6. c #8C5B3C",
"7. c #955136",
"8. c #935A31",
"9. c #96513A",
"0. c #99533C",
"q. c #925E3E",
"w. c #A74C33",
"e. c #94613E",
"r. c #9B623E",
"t. c #8D5D42",
"y. c #915E42",
"u. c #9E5941",
"i. c #8E6043",
"p. c #946243",
"a. c #9A6444",
"s. c #976947",
"d. c #9D6A45",
"f. c #966548",
"g. c #9A674A",
"h. c #9C6B4C",
"j. c #9D704E",
"k. c #886E58",
"l. c #9E6E50",
"z. c #8C725D",
"x. c #90755F",
"c. c #A16844",
"v. c #A26D4C",
"b. c #AA6E4C",
"n. c #A4724E",
"m. c #AC724D",
"M. c #AD784E",
"N. c #A46E51",
"B. c #A57251",
"V. c #AA7451",
"C. c #AB7953",
"Z. c #AF7B59",
"A. c #B17552",
"S. c #B27B54",
"D. c #B87954",
"F. c #8D7561",
"G. c #927662",
"H. c #947A65",
"J. c #997C66",
"K. c #977C68",
"L. c #997E69",
"P. c #C07855",
"I. c #9D826B",
"U. c #98856C",
"Y. c #9E8C73",
"T. c #9F8A75",
"R. c #A3846D",
"E. c #A9876E",
"W. c #A6886F",
"Q. c #A48571",
"!. c #A88671",
"~. c #A48C74",
"^. c #AA8A73",
"/. c #A28F78",
"(. c #AD8D78",
"). c #B28D74",
"_. c #A49077",
"`. c #A5947D",
"'. c #A9977F",
"]. c #A8987F",
"[. c #B29077",
"{. c #B49279",
"}. c #BC997F",
"|. c #A79680",
" X c #A89780",
".X c #A69880",
"XX c #AB9A83",
"oX c #AF9D88",
"OX c #B19E89",
"+X c #AFA189",
"@X c #B2A38C",
"#X c #B5A691",
"$X c #B8A794",
"%X c #B6A892",
"&X c #B9AA95",
"*X c #BBAD99",
"=X c #BEB19C",
"-X c #C1B39F",
";X c #C4B6A2",
":X c #C7BAA6",
">X c #C8BAA7",
",X c #CABDAC",
"<X c #CCC0AF",
"1X c #CEC2B1",
/* pixels */
"*X&X&X;X;X*X&X*X@X#X#X$X#X@X,X-X.X+X+X%X#X&X@X$X@X#X#X%X*X*X;X*X*X*X#X*X#XOX@X@X@XXX@X@X&X*X<X;XoX=X&X=X=X*X*X*X*X@X@X@X@X*X;X=X",
"_ _ _ / [ [ [ / _ ~ / _ [ | ,X-Xt i L L U U U U I I P H U U H H P U U U U U U I K K H L L R >X;X9 a ) )  .[ ) [ [  . . ._ / ) ~ ",
"] [ ^ ] ] ^ ^ ^ ^ ^ ] ! ~ / :XXXe e G G G H K H K K H K G G J G H H H G J K H H H G G m M P ,X@X- 9 ! ] ] [ ] ] ) ^ ] _ _ ] ! ] ",
"[ ] ] } ] ] ] ] } [ ^ l ! / ,X_.$ i i G H H K K G H J H G K K K H K J J H H J K H J G m f H >X`.* a l ] ] _ ] ] ] ! ] ) ] [ [ ] ",
"} &.;...*.$.} } } } } ] ]  .,X`.e i i K K K E K U U E E E E K E U K K U U E K K U P K G G P ,X.X3 w ! [ *.} } } [ [ } ..[ _ } } ",
";.7...;.7.;.*.;...;.] ] !  .,X`.$ i G K E E E E E E E E E Q Q Q E E Q Q E E E E E E U H H K >XXX* l } } ..;.;.&.:.7.;.;.;.;.7.9.",
";.} &.[ } ;.} &...;.} ] ! ~ ,X].e i H K U K K K E U E K U K U E E U E K K E E E U E K G H H 1X_.; j _ } [ ;.} [ } *.;.} -.&.} ;.",
"[ } ] ] ] ] [ _ } *.[ ^ ^ ~ :X].$ i m G K J H K U K K K K J J J K K K G J K K K K K K G H L ,XXX* w ) ] [ [ [ _ _ } [ _ } [ _ } ",
"w j l j j k j l V ! x h 9 j ;X/.# t i G G i f g G G g G G i m m f g i f f f f f G m G i i m ;X`.& 6 h ! l l l l l j l l j j w w ",
"- ; 3 5 5 5 5 6 5 6 5 5 6 9 -XXX# % e t t t t t e t t y t t > > e e t e % % > t > t e e t f ;X_.X * ; 4 6 9 5 4 6 4 5 5 5 - 3 - ",
"XXoX@X#X#X#X#X#X#XoX$XXX=X:X:X*X@X@X@XoX%X#XoX+XoX%XoX$X&X%X@XXX|.|.@X%X&X@X+X+X#X#X%X%X=X,X,X-X@X@X$X=X=X*X=X*X%X%X*X&X&X&X@X@X",
";XJ.U.Q.Q.^.Q.R.!.R.Q.~.W.[.[.(.^.^.~.^.Q.(.~.W.~.~.^.~.Q.^.^.<X=XK.Q.T.!.^.!.(.^.!.~.~.).).{.^.^.^.^.^.^.^.(.(.(.^.^.^.Q.Q.^.1X",
"*X= s { +.2.8.8.1.8.O.1.O.O.{ O.2.2.1.8.8.8.8.8.8.8.8.+.F $.$.<X&X$ t M L I P P P I I I J P S H J L L P I K H I P I L L L Z I 1X",
"oX= 8 B D } O.<.{ O.D O.D V D O.{ O.} 2.+.1.+.O.{ O.O.{ V D X.>XXX$ t f m G H J N H J J P J H H M N N N H H H P K H J m m f L ,X",
"].@ 0 n <.2.2.O.<.{ D { { D F D O.<.O.I A { { <.{ F <.O.A A ' ,XoX# y f M N M J J m N J N H M M M H J J J H L H G H M m f f L ,X",
"_.= s O.1.2.2.4.2.1.2.4.2.O.F O.O.O.O.O.1.{ 1.1.1.4.8.1.{ { O.,XXX% f H K K P K K J K P K J J J J K J P P P P J H H G K g m L ,X",
"+X@ n D O.1.O.1.1.<.2.2.8.O.+.O.1.1.2.2.1.1.O.O.+.2.1.{ D { +.:XXX$ u m J J P J K P E P T J K I T L P J T E P J J J J H m m L <X",
"XX@ 0 A D <.D F D O.{ <.<.{ O.O.{ D O.<.1.<.<.1.<.2.1.{ A A O.:X`.# y m M H H J H J H J G H H J J K K K J L J H J H K m f f m ,X",
"Y.O 2 s B Z A n A n A B n A B Z Z n B D D O.D D A { D B B B B ;X|.# r u u i f m f m m i i i f f i f u m m m m f m f m u y y f -X",
"U.+ = < 8 2 0 8 0 2 2 2 2 2 2 0 2 2 2 0 0 8 0 2 0 s 0 2 2 2 0 ;X`.+ $ r % t r : > : % t > > % % % e : 1 t : t t t t > 1 % > y -X",
"@XF.F.G.H.H.H.K.G.z.G.G.F.H.F.F.z.F.F.G.x.G.x.G.H.H.H.H.G.K.Q.;XXXF.G.K.K.H.L.H.H.H.J.G.K.L.G.G.H.G.z.G.G.G.x.J.H.U.J.J.H.L.Q.,X",
"+XoX@X@XXX@X@X@X].].XXXXXX`.@XXXU./.`. XXXXXXXXXOXOXoXXX|.#X=X*X#XXXoX@XOXOXOXoXOXXXoXOXOXOX*X@X_.XXXX`.`.XXoXoXoX`.XXXXXX#X&X*X",
"m.v.b.m.m.A.S.A.A.M.M.A.m.D.>X%X4 z / -.-.;.>.-.>.:.:.>.;.:.,.,.-.-. .-.>.-.-.-.-.-. .-.:.w.,X;XI p.n.m.C.S.S.M.A.m.C.m.m.v.v.V.",
"c.v.j.v.n.n.B.n.n.v.v.v.c.m.>X].X 6 x x / &.&.*.;.*.&.>.&.-.;.&.&.&.=.^ &.%.( &.-.%.%./  .,.,X#XL 6.p.d.v.n.v.v.n.c.c.v.d.n.h.n.",
"h.n.v.B.h.j.n.n.h.h.d.s.d.m.;X/.X p x ^ ] %.&.%.%.&.&.=.*.*.-.*.-.=.;.=.[ %.&.*.&.*.] x x >.,XXXS 6.p.j.n.n.v.j.n.n.c.d.s.d.s.h.",
"n.B.n.C.n.C.C.C.n.M.n.h.h.b.;X~.r z ^ ( %.=.;.=.=.=.9.9.9.>.=.*.>.9.0.7.>.>.9.9.>.>.>.x %.-.,X XZ 5.s.j.C.m.n.n.B.V.M.b.n.M.n.n.",
"C.C.C.C.C.Z.S.C.C.C.n.h.d.V.;X_.r z &.=.;.>.>.u.>.9.9.>.0.>.>.>.>.9.9.0.0.9.>.0.u.>.>.&.&.-.1XXXL 6.h.C.C.C.C.Z.E.M.C.E.Z.S.C.C.",
"V.n.C.n.j.V.C.C.C.C.C.s.v.V.,X`.4 a &.&.9.>.=.>.>.*.>.=.>.=.=.&.>.;.>.4.9.>.>.>.>.>.=.^ [ -.,XXXZ t.d.n.n.C.V.C.M.m.C.n.V.M.C.n.",
"n.n.B.j.v.n.n.n.n.d.s.p.f.c.,X|.o p z &.&.*.&.>.%.=.&.%.&.&.%.*.&.=.&.%.&.=.*.&.*.&.&./ [ -.;X_.m 3.f.d.n.n.n.n.n.v.j.n.j.h.n.h.",
"q.i.p.p.i.i.p.t.p.p.5.5.3.t.;X~.X 5 p z z z ! ^ ^ k l z z x x z h x ^ x x ] x x ^ x x z h l -X/.m I 5.y.6.p.p.p.i.p.p.6.5.t.5.5.",
"N J I I R R I I R I L H P I -X_.X ; 4 p 5 6 5 6 5 6 6 p 4 6 6 5 5 4 5 6 9 6 p 5 6 6 5 4 p h ;X~.f Z Z P I P I I P I R I P S S S ",
"].XX@XXX@X@X%X*X#X+X#X@X&X,X,X$XoXoXoXXXXXXXXXXXoX+XoXoX+X#X@XoXXXoX#X#X&XoX@X@X#X@X%X#X=X:X>XOX'.XX@XOX#X@X@X@XXX@X@X@X@X#X#X+X",
"&XG.R.L.!.^.^.!.W.!.!.!.E.).(.Q.R.R.R.Q.E.L.R.L.Z.L.L.L.L.!.).>X#XH.I.E.E.E.W.~.W.W.W.W.E.^.).W.I.R.R.R.~.R.I.I.I.R.R.I.R.Q.W.,X",
"&XL 3.N.v.A.A.A.V.A.V.V.b.N.b.c.v.v.V.A.A.A.A.A.Z.D.D.N.b.D.P.>X@Xs P q.a.c.c.c.r.a.a.r.e.r.e.e.e.e.q.q.c.q.a.q.q.q.r.r.6.1.r.,X",
"XXf Y f.c.N.v.V.v.b.v.v.v.v.N.v.c.N.N.u.c.v.v.g.N.N.N.N.c.v.b.;X~.2 M 3.q.q.q.q.6.r.e.e.e.4.6.q.6.4.8.3.6.8.6.6.q.e.q.6.<.<.4.,X",
"~.f Y t.s.s.h.N.v.g.h.B.N.v.N.g.g.f.v.g.g.g.h.N.N.g.g.g.t.y.c.>X/.2 Z <.5.e.e.6.q.6.e.4.4.6.6.6.6.4.6.6.6.6.5.6.q.q.p.4.R <.6.>X",
"T.g W f.N.N.N.N.N.v.N.V.N.V.V.B.N.B.N.v.l.l.N.N.V.V.N.g.u.h.V.>X/.2 S 4.6.a.d.e.e.e.e.p.p.6.e.r.d.p.p.e.e.p.a.a.a.a.p.q.3.3.q.;X",
"|.f W y.h.N.N.N.V.N.V.V.V.B.N.V.V.N.N.N.V.N.N.V.V.V.N.N.g.h.N.;X/.2 S 4.e.a.s.e.e.e.e.e.5.6.a.a.r.e.e.t.e.6.e.e.e.q.e.5.I R 4.:X",
"|.f Y y.g.l.l.l.v.g.N.g.v.g.h.h.N.v.v.g.h.g.N.g.N.N.N.g.y.y.a.;XY.1 Z 3.6.q.q.6.e.q.<.3.<.5.6.6.6.4.5.2.3.5.6.3.W 5.6.3.<.I 1.:X",
"|.f L t.t.t.y.y.y.t.y.f.y.q.t.6.y.y.f.y.f.u.y.t.t.y.y.t.3.3.y.-X/.2 Z R <.<.R <.3.3.<.4.<.<.S R R R R I R D R R I I A I M Z I ;X",
"U.y g L L L I P L L I L I L L I P I I I Y <.I I <.3.I <.I L I ;XY.@ y s n s s m n n s s m n y u s f s s s s d d n u s s y y m -X",
"|.F.x.G.x.x.J.G.G.G.G.K.G.k.z.z.z.F.x.x.G.G.G.z.x.H.G.G.G.G.L.-X`.z.z.x.x.G.G.H.G.F.z.F.G.G.z.k.k.F.F.H.G.z.F.G.H.x.G.x.z.G.R.>X",
"|.`.`.OXXXXXOX|.`.`.'.'.`.`.@XXXU. X`._./.|.`.`.'.`.`.`./.`.#X#XXX].`.`.`.+X+X].'.]..XoX+X.X%X+XT._.XXXX`.`.XXoX+X@X@XoXXXXX%X%X",
") V ' ' +.o.' } ' ' ' ` ' | ,X&Xr i H L L L P I S S T J M L Z L L N S P S T T T P P P P Z R <X=X7 B ` ` X.` +.$.o.o.' ` ` ` ' ` ",
"C ` ` ' ` ` C X.` ` C V b #.<X].% t m M H J J N J N N J m M i M J M N M M M M N M M m M N D :X]., q V C ` ` X.` V ` V C V C ` V ",
"` C ` ` C ` C ` C X.C B c C -XY.  2 i N M L N P N N N N N N N N M N N J N N N M M N M M m M <X_.O q V ` ` O.o.C V V D C C C C V ",
"O.X.X.X.X.F +.+.o.+.X.C C X.;X].> u N N J J T P J P J P N J N T T P J J N J J J N J J N m N >X`.@ q C O.+.+.o.` ` ` { ` ` { ` ` ",
"+.+.+.@.+.o.@.+.+.@.X.C b ` <X].  u N T T T T T T T T T J T T T T E T T T N N T P J J N M S <X_.= q ` X.O.+.+.+.` } +.+.+.o.o.O.",
"+.X.O.O.` ` o.o.` O.` V V ' ,XXX+ y N J T J T P J T S T J N J T J J J N J N N M N J N m M S ,X`.= q b ` { { ` ` { { C ` ` ` { { ",
"V V V V ` ` { C C ` C B B ` >X_.$ t i N T J N J J N N N m H M N N M M N N N J M N N m i m L ,XXX- 7 c V ` ` { ` C C V ` A C C ` ",
"c c 0 q q q B v q q q 7 q c ,XT.  1 y s i u i m u i m 0 u u s u i u u u i s u s u u y > t u ;XXX@ < q q v v B q B B q q q q q B ",
"O @ , = , < < 2 < , = = = 7 :X`.  $ % % > > > > % % % > % $ % $ $ > > > > 1 % % % % $ $ > y >X@XO = , < < < < < < < , = = , = = ",
"].+X%X&X#X#X+XXXoXXXoX#X&X<X,X-XXX@XXXoXXXXXoX+X+X+XXX%X@XXX@X'.Y.`.+X&X#X&X&X$X%X%X%X&X-X,X1X-X@XoX@X#X%X&X#X#X@X'.oX@X#X#X@XOX",
"*XI.R.^.(.~.^.(.E.~.E.^.^.}.}.{.^.^.^.^.^.^.^.~.W.~.^.W.Q.^.^.,X@Xx.J.R.E.~.^.^.R.~.^.E.^.).{.(.E.E.W.^.^.!.W.R.R.R.R.R.W.!.!.,X",
"&Xf P g.d.v.v.n.v.v.N.N.v.v.v.a.g.a.v.v.v.V.B.h.d.a.p.g.s.a.m.,X+X3 w  . . .| :.-. . .:. .( (  .:.:.|  . . . .-.-.| ( ( ~ ( | ,X",
"XX2 L 5.y.h.p.h.a.g.a.s.s.g.p.d.h.g.f.s.s.h.h.s.j.a.q.i.5.5.b.>X_.* 5 j ^ [ [ [  .[ ^ _ _ ] ] [ ) _ ^ [ [ [ [ / _ / ~ ! ! j ~ >X",
"XXy P t.t.f.p.f.f.p.i.f.f.i.i.t.i.i.f.j.f.f.j.j.B.l.l.i.t.5.a.,X].* 6 l ] [ [ ] _ ] [ _ [ [ [ ] } [ ] [ ] } ] / %.[ ] ! j j ~ ,X",
"oXu Y t.f.j.f.l.h.s.h.h.f.f.f.g.l.l.l.h.h.x.h.j.l.l.l.f.5.t.c.>X`.* w ^ [ } [ } [ *.&.[ &.&.[ [ &.[ [ ;.[ [ &.[ -.[ &.] l ! ( ,X",
"'.s Q f.s.h.l.l.B.h.f.j.l.l.k.h.l.l.l.l.l.l.l.B.x.V.B.l.t.y.a.>X].* w ] &.&.&.&.*.&._ } [ ;.[ ;.[ &.;.*.;...[ } } } -.} ! ! ~ <X",
"XXy K i.s.f.h.h.s.g.h.f.f.f.h.h.h.h.f.h.h.f.h.h.g.s.h.i.t.t.y.;XXX& w l _ [ [ _ [ / ] _ } [ [ [ _ [ [ [ [ [ [ / ] } [ ) ! ! ~ <X",
"`.y L 3.t.t.i.t.t.t.t.y.f.f.f.t.p.p.i.p.i.t.i.i.t.t.p.t.W 5.q.,XXXX 9 j ^ ^ ! x ^ ^ ^ ! ^ ^ ! ^ ^ ^ ^ ^ ^ l ! ! ! ^ ! l h j ~ >X",
"oX: f L I I R U L U L I Y Y R U 3.R 3.W I I R I W P W P L P 3.,X'.X 3 5 p h w 6 w w w w 6 w w 6 h w w j 6 w h w h w 9 6 p p w ,X",
"XX: t y s y y y y y s s y y y s y s s y u i u u y t u y t y s =X/.. X X o o X X & X * * * X & 3 o o * 3 * o * o o o & & X o 4 >X",
"@X`.XXXXXXXXXXXXXX~.|.XXXX|.XXU.Y././.Y.T.|.XXT._.`./._.XX@X;X,X@X`./.XXXX/.U./.Y./.~.`.`.~.`._._.'.'.'.XXoX].XX/./.XXQ.T.XX-X;X"
};
