/* XPM */
static char *_f9def0279ca4bcdad1c42e222b1c0fa[] = {
/* columns rows colors chars-per-pixel */
"130 124 34 1 ",
"  c #390603",
". c #27200F",
"X c #362C18",
"o c #3D301C",
"O c #202020",
"+ c #2C2C2C",
"@ c gray19",
"# c gray22",
"$ c #440804",
"% c #4F0B06",
"& c #5A0D07",
"* c #651009",
"= c #70130B",
"- c #7B160E",
"; c #45381D",
": c #503D21",
"> c #574125",
", c #66492A",
"< c #6E4D2E",
"1 c #795232",
"2 c gray25",
"3 c #484848",
"4 c gray33",
"5 c gray36",
"6 c #646464",
"7 c gray44",
"8 c #8A1A10",
"9 c #951D13",
"0 c #A02015",
"q c #AB2317",
"w c #C1281B",
"e c #815A37",
"r c #93623F",
"t c #AA734C",
/* pixels */
"##22@@22##########22############22##@@##############222222222222##################22222222222222########@@@@@@####2222##########@@",
"##22@@22##########22############22##@@##############222222222222##################22222222222222########@@@@@@####2222##########@@",
"33@@9999888888888888888888**####22777777777777777777777777777777777777777755##@@22999999998888888888888888888888--------======**##",
"33@@9999888888888888888888**####22777777777777777777777777777777777777777755##@@22999999998888888888888888888888--------======**##",
"++##99--====88&&**88&&--**$$++##22776633663366336633664466446633663366665522++##@@88**--==--====--%%--%%--==--&&==**%%--**--**%%++",
"++##99--====88&&**88&&--**$$++##22776633663366336633664466446633663366665522++##@@88**--==--====--%%--%%--==--&&==**%%--**--**%%++",
"++##88**%%**&&****%%**&&%%$$++##227766333355332255552244555522445522554422##++##2288****%%$$**&&%%&&**%%&&****&&**%%&&**  **%%$$++",
"++##88**%%**&&****%%**&&%%$$++##227766333355332255552244555522445522554422##++##2288****%%$$**&&%%&&**%%&&****&&**%%&&**  **%%$$++",
"++##88%%****%%******%%**  ..++##227733665533552255335522552233335522443322##++####88%%**$$&&**$$**%%**%%**&&**$$****%%**%%**%%  ++",
"++##88%%****%%******%%**  ..++##227733665533552255335522552233335522443322##++####88%%**$$&&**$$**%%**%%**&&**$$****%%**%%**%%  ++",
"++##--**%%&&**%%**%%&&**%%..++##226666335533334455223322553322443333225522++++@@##==%%**%%**&&$$**%%%%****%%**&&****%%**  **&&  ++",
"++##--**%%&&**%%**%%&&**%%..++##226666335533334455223322553322443333225522++++@@##==%%**%%**&&$$**%%%%****%%**&&****%%**  **&&  ++",
"++##==%%****%%****%%**%%  ..++####6666335522552255225522443322335522443322##++@@##==****$$&&**%%&&%%&&%%**&&**$$**%%&&**%%**%%..++",
"++##==%%****%%****%%**%%  ..++####6666335522552255225522443322335522443322##++@@##==****$$&&**%%&&%%&&%%**&&**$$**%%&&**%%**%%..++",
"++##==**%%&&  %%%%  %%&&%%..++@@2244442222@@3322223322@@2233223322@@332222++++@@##==%%%%  %%%%  &&  %%  &&  %%  &&$$  %%&&%%&&..++",
"++##==**%%&&  %%%%  %%&&%%..++@@2244442222@@3322223322@@2233223322@@332222++++@@##==%%%%  %%%%  &&  %%  &&  %%  &&$$  %%&&%%&&..++",
"++##%%$$$$$$................++@@##33######################++++++++++++++++++++@@##&&$$$$$$$$$$$$$$$$$$$$                  ......++",
"++##%%$$$$$$................++@@##33######################++++++++++++++++++++@@##&&$$$$$$$$$$$$$$$$$$$$                  ......++",
"++####++++++++++++++++OOOOOO++@@22##++++++++++OOOOOOOOOO++++OOOOOOOO++++++++++##22@@++++++++++++++++++++++OOOOOOOOOO++++++++++++++",
"++####++++++++++++++++OOOOOO++@@22##++++++++++OOOOOOOOOO++++OOOOOOOO++++++++++##22@@++++++++++++++++++++++OOOOOOOOOO++++++++++++++",
"##22@@@@@@@@########@@@@@@@@@@##@@##############@@@@@@22######@@@@############22@@##22222222333333332222####@@@@@@22@@22######22@@",
"##22@@@@@@@@########@@@@@@@@@@##@@##############@@@@@@22######@@@@############22@@##22222222333333332222####@@@@@@22@@22######22@@",
"ww99888888======================**##22##ttttrrrrrrrrrrrreeeeeeeeeeeeeeeeeeeeeeeeeeeeeeeeeeeeeeeeeeeeeeeeee<<##@@229999888888888888",
"ww99888888======================**##22##ttttrrrrrrrrrrrreeeeeeeeeeeeeeeeeeeeeeeeeeeeeeeeeeeeeeeeeeeeeeeeee<<##@@229999888888888888",
"00==&&&&==**%%==%%**&&==$$==&&**..@@##22tt::11ee>>ee::>>ee>>>>ee,,<<>>>>>><<>><<>><<>>ee::ee>>,,eeee,,ee<<XX@@##@@99--%%==&&==&&==",
"00==&&&&==**%%==%%**&&==$$==&&**..@@##22tt::11ee>>ee::>>ee>>>>ee,,<<>>>>>><<>><<>><<>>ee::ee>>,,eeee,,ee<<XX@@##@@99--%%==&&==&&==",
"88&&**&&**%%&&&&$$**&&$$&&****%%..++####rr11::<<>><<<<>><<::<<::::>><<>><<>><<::<<<<>>::<<>><<::>><<::<<::XX@@##22--==%%**&&%%****",
"88&&**&&**%%&&&&$$**&&$$&&****%%..++####rr11::<<>><<<<>><<::<<::::>><<>><<>><<::<<<<>>::<<>><<::>><<::<<::XX@@##22--==%%**&&%%****",
"==%%****&&**$$**%%&&&&**$$**&&%%..++@@##rr::<<>>,,>>>>::>>>>::<<>>::<<>>>>::>>>>>><<;;>>>><<::<<::<<<<::::XX++@@##--%%******%%**%%",
"==%%****&&**$$**%%&&&&**$$**&&%%..++@@##rr::<<>>,,>>>>::>>>>::<<>>::<<>>>>::>>>>>><<;;>>>><<::<<::<<<<::::XX++@@##--%%******%%**%%",
"==**&&&&**&&%%%%&&%%****$$**$$%%..++@@##rr::<<<<>><<::>><<::::<<::>><<>>>>>><<::<<>>;;<<::<<::>>::<<::<<::XX++@@##--==%%**%%****%%",
"==**&&&&**&&%%%%&&%%****$$**$$%%..++@@##rr::<<<<>><<::>><<::::<<::>><<>>>>>><<::<<>>;;<<::<<::>>::<<::<<::XX++@@##--==%%**%%****%%",
"--%%**$$**%%&&%%**$$**$$&&****%%..++##22rr11;;<<>><<>>::>>;;>>::::<<>>>>;;>><<::>>;;>><<::>><<::>><<::<<::XXOO@@##==%%****  **%%&&",
"--%%**$$**%%&&%%**$$**$$&&****%%..++##22rr11;;<<>><<>>::>>;;>>::::<<>>>>;;>><<::>>;;>><<::>><<::>><<::<<::XXOO@@##==%%****  **%%&&",
"**%%==$$%%  %%%%**%%**%%  **%%%%..++##2211<<::>>;;::,,::>>::::>>;;::,,::,,::>>::>>>>;;,,::::>>oo::,,::>>::XXOO@@22==**%%%%  %%**%%",
"**%%==$$%%  %%%%**%%**%%  **%%%%..++##2211<<::>>;;::,,::>>::::>>;;::,,::,,::>>::>>>>;;,,::::>>oo::,,::>>::XXOO@@22==**%%%%  %%**%%",
"  ..                        ......@@##22<<::::::::::::::::::::::::::;;;;;;;;;;;;;;;;;;;;;;;;;;;;;;;;;;;;XXXXOO##@@**$$..$$....$$..",
"  ..                        ......@@##22<<::::::::::::::::::::::::::;;;;;;;;;;;;;;;;;;;;;;;;;;;;;;;;;;;;XXXXOO##@@**$$..$$....$$..",
"++++++++OO++++++OOOOOO++++++OOOO++@@##@@##@@++++++++++++++++++@@@@++++++++OOOOOOOOOO++++++OOOOOOOO++++++++++@@##22##++++++++++++++",
"++++++++OO++++++OOOOOO++++++OOOO++@@##@@##@@++++++++++++++++++@@@@++++++++OOOOOOOOOO++++++OOOOOOOO++++++++++@@##22##++++++++++++++",
"332222##@@@@##22@@22@@####@@@@@@@@####22######@@@@@@@@@@@@@@######22@@22##@@@@@@@@@@@@####22@@@@@@@@######22##22@@22@@@@@@22######",
"332222##@@@@##22@@22@@####@@@@@@@@####22######@@@@@@@@@@@@@@######22@@22##@@@@@@@@@@@@####22@@@@@@@@######22##22@@22@@@@@@22######",
"3322777777777777777777666666666666666666666666666666666655##2222====********************&&&&&&&&&&&&&&&&&&&&&&&&&&&&&&&&&&&&&&%%##",
"3322777777777777777777666666666666666666666666666666666655##2222====********************&&&&&&&&&&&&&&&&&&&&&&&&&&&&&&&&&&&&&&%%##",
"++2277335566336633663355335533557733553355336655##557722@@@@##22==&&$$**%%&&%%%%&&%%&&%%&&$$  %%%%$$%%%%$$%%%%%%%%%%$$%%%%  %%..++",
"++2277335566336633663355335533557733553355336655##557722@@@@##22==&&$$**%%&&%%%%&&%%&&%%&&$$  %%%%$$%%%%$$%%%%%%%%%%$$%%%%  %%..++",
"++@@77553355445533223355553344335533##55225533##33552255@@++##33**&&%%%%  %%  %%$$%%%%  %%  %%%%  %%$$%%$$%%%%%%  %%%%$$%%$$$$..++",
"++@@77553355445533223355553344335533##55225533##33552255@@++##33**&&%%%%  %%  %%$$%%%%  %%  %%%%  %%$$%%$$%%%%%%  %%%%$$%%$$$$..++",
"++##66##55552233##55##552255334455##335522335533##335522@@++2233**&&$$%%$$%%  %%$$%%%%$$%%$$%%%%  %%$$$$%%%%$$%%%%%%%%$$%%  $$..++",
"++##66##55552233##55##552255334455##335522335533##335522@@++2233**&&$$%%$$%%  %%$$%%%%$$%%$$%%%%  %%$$$$%%%%$$%%%%%%%%$$%%  $$..++",
"++##66553355@@55##223355332233553333##3355##5533##5522##@@++2233**$$%%$$%%%%  %%%%$$%%  %%  %%%%$$%%$$%%$$%%%%%%  %%$$%%%%$$$$..++",
"++##66553355@@55##223355332233553333##3355##5533##5522##@@++2233**$$%%$$%%%%  %%%%$$%%  %%  %%%%$$%%$$%%$$%%%%%%  %%$$%%%%$$$$..++",
"++226622##55@@333355##55##55##5533##335533##55##33333355@@++##22****$$%%$$%%%%%%%%$$%%  %%  $$$$  %%  %%  %%  %%%%%%    $$%%$$..++",
"++226622##55@@333355##55##55##5533##335533##55##33333355@@++##22****$$%%$$%%%%%%%%$$%%  %%  $$$$  %%  %%  %%  %%%%%%    $$%%$$..++",
"++##7755##222222##22@@222233##332222332222##224422442222@@++@@22**%%$$%%$$%%  $$$$$$$$  %%$$%%  %%  $$%%  $$%%  %%  %%  %%$$$$..++",
"++##7755##222222##22@@222233##332222332222##224422442222@@++@@22**%%$$%%$$%%  $$$$$$$$  %%$$%%  %%  $$%%  $$%%  %%  %%  %%$$$$..++",
"++##5544############################@@@@@@@@@@@@@@@@@@@@@@++@@22%%                                                    ..  $$  ..++",
"++##5544############################@@@@@@@@@@@@@@@@@@@@@@++@@22%%                                                    ..  $$  ..++",
"++####@@++++++++++++++++++++++++++++++++++@@@@@@++++++++++++######++++++++++++++++OOOOOOOOOO++@@@@@@++OOOOOO++++++++++++++++++++++",
"++####@@++++++++++++++++++++++++++++++++++@@@@@@++++++++++++######++++++++++++++++OOOOOOOOOO++@@@@@@++OOOOOO++++++++++++++++++++++",
"##2222222222####@@##@@@@@@##223333222222######@@@@@@@@@@@@@@@@22######22@@22##22##@@@@@@@@@@##2222####@@@@@@######22@@22######22@@",
"##2222222222####@@##@@@@@@##223333222222######@@@@@@@@@@@@@@@@22######22@@22##22##@@@@@@@@@@##2222####@@@@@@######22@@22######22@@",
"qq====================**##@@22rrrrrrrrrrrrrrrreeeeeeeeeeeeeeeeeeeeeeeeeeeeeeeeee<<##2222--99888888888888888888====================",
"qq====================**##@@22rrrrrrrrrrrrrrrreeeeeeeeeeeeeeeeeeeeeeeeeeeeeeeeee<<##2222--99888888888888888888====================",
"99**==**==**--====--**..@@##@@rr<<::<<::<<<<::<<>><<<<::<<>>::<<<<::<<<<::<<>><<XX@@##2288**%%**%%****$$**%%&&%%**%%**&&**%%**%%**",
"99**==**==**--====--**..@@##@@rr<<::<<::<<<<::<<>><<<<::<<>>::<<<<::<<<<::<<>><<XX@@##2288**%%**%%****$$**%%&&%%**%%**&&**%%**%%**",
"****%%&&******%%**&&%%..++##22rr::<<>>>><<>><<,,::<<>>>>::>>>><<>>::<<::>><<::<<XX@@222288**  **%%**&&$$**&&**%%&&&&**%%**%%**&&%%",
"****%%&&******%%**&&%%..++##22rr::<<>>>><<>><<,,::<<>>>>::>>>><<>>::<<::>><<::<<XX@@222288**  **%%**&&$$**&&**%%&&&&**%%**%%**&&%%",
"**&&%%****%%**%%****%%..++##@@rr::<<<<>>,,<<::<<::<<>><<;;<<oo>>>><<>>::,,<<>><<XX@@223388**%%**%%**&&**&&****%%**%%**&&****%%**%%",
"**&&%%****%%**%%****%%..++##@@rr::<<<<>>,,<<::<<::<<>><<;;<<oo>>>><<>>::,,<<>><<XX@@223388**%%**%%**&&**&&****%%**%%**&&****%%**%%",
"--**&&%%********%%&&%%..@@##22rr,,::<<>><<>>;;,,>>>>>>::>><<::<<>>::>>,,::>><<>>XX@@223388%%****%%**$$****%%%%**%%**&&****&&%%%%&&",
"--**&&%%********%%&&%%..@@##22rr,,::<<>><<>>;;,,>>>>>>::>><<::<<>>::>>,,::>><<>>XX@@223388%%****%%**$$****%%%%**%%**&&****&&%%%%&&",
"****&&%%**%%**%%****%%..@@####rr::<<>>;;,,<<::>>>><<>><<::>>oo::,,::<<,,::<<>><<XX@@##22--**%%****%%**&&&&%%**%%**%%**&&**%%&&**%%",
"****&&%%**%%**%%****%%..@@####rr::<<>>;;,,<<::>>>><<>><<::>>oo::,,::<<,,::<<>><<XX@@##22--**%%****%%**&&&&%%**%%**%%**&&**%%&&**%%",
"**%%%%&&**%%%%**%%%%%%..@@####,,::<<<<;;<<>>::<<::<<::<<;;>>::<<>>::,,::,,<<::>>XX++##22--**  **%%****&&**&&**%%**%%**%%**%%****%%",
"**%%%%&&**%%%%**%%%%%%..@@####,,::<<<<;;<<>>::<<::<<::<<;;>>::<<>>::,,::,,<<::>>XX++##22--**  **%%****&&**&&**%%**%%**%%**%%****%%",
"  ....              ....++####<<::::::::::::::::::;;;;;;;;;;;;;;;;;;;;;;;;;;;;XXXX++####**$$$$$$$$$$$$$$$$$$$$$$$$$$$$$$        ..",
"  ....              ....++####<<::::::::::::::::::;;;;;;;;;;;;;;;;;;;;;;;;;;;;XXXX++####**$$$$$$$$$$$$$$$$$$$$$$$$$$$$$$        ..",
"++++++++++++++++++++++++++##22##++OOOOOOOO++++@@@@@@++OOOOOOOOOO++++++++++++++++++@@######++++++++@@@@##@@++++OOOOOO++++++++++++++",
"++++++++++++++++++++++++++##22##++OOOOOOOO++++@@@@@@++OOOOOOOOOO++++++++++++++++++@@######++++++++@@@@##@@++++OOOOOO++++++++++++++",
"##22##22@@##@@@@####@@@@@@@@####@@@@@@##########2222####@@@@@@22######22@@##@@##@@####22##22@@22##22333322######@@22##22##22@@22@@",
"##22##22@@##@@@@####@@@@@@@@####@@@@@@##########2222####@@@@@@22######22@@##@@##@@####22##22@@22##22333322######@@22##22##22@@22@@",
"33@@==%%%%**********&&&&&&&&&&&&&&&&&&&&&&&&&&&&&&&&&&&&&&&&&&&&%%@@22@@99998888888888888888==================================**##",
"33@@==%%%%**********&&&&&&&&&&&&&&&&&&&&&&&&&&&&&&&&&&&&&&&&&&&&%%@@22@@99998888888888888888==================================**##",
"++22**$$$$%%%%  %%%%$$%%%%$$%%$$%%%%  %%$$%%%%%%  %%  %%%%$$$$%%..@@##2299****$$**$$**  **%%**  **&&  **&&%%**&&%%**%%**%%&&**..++",
"++22**$$$$%%%%  %%%%$$%%%%$$%%$$%%%%  %%$$%%%%%%  %%  %%%%$$$$%%..@@##2299****$$**$$**  **%%**  **&&  **&&%%**&&%%**%%**%%&&**..++",
"++##**$$  %%%%  %%%%%%$$%%  %%  %%%%  %%  %%%%%%  %%$$%%$$%%$$%%..++####88&&**$$&&$$%%  &&  **%%**  **$$**%%&&%%**&&%%****$$&&..++",
"++##**$$  %%%%  %%%%%%$$%%  %%  %%%%  %%  %%%%%%  %%$$%%$$%%$$%%..++####88&&**$$&&$$%%  &&  **%%**  **$$**%%&&%%**&&%%****$$&&..++",
"++##**$$  %%  %%$$  %%  %%%%$$%%%%  %%%%%%  $$%%  %%  %%  %%%%$$..++@@##88&&**$$$$&&**%%  **%%  ****  **%%%%**%%**%%**%%&&$$**..++",
"++##**$$  %%  %%$$  %%  %%%%$$%%%%  %%%%%%  $$%%  %%  %%  %%%%$$..++@@##88&&**$$$$&&**%%  **%%  ****  **%%%%**%%**%%**%%&&$$**..++",
"++@@**$$$$%%%%  %%%%$$%%%%$$%%  %%%%  %%  %%%%  %%%%$$%%%%%%$$$$..++@@##88**$$**&&$$**  **%%**%%%%  &&$$**%%&&**&&**%%%%**&&**..++",
"++@@**$$$$%%%%  %%%%$$%%%%$$%%  %%%%  %%  %%%%  %%%%$$%%%%%%$$$$..++@@##88**$$**&&$$**  **%%**%%%%  &&$$**%%&&**&&**%%%%**&&**..++",
"++22**$$  %%%%  %%  %%  %%  %%$$%%    %%  %%$$%%$$%%  %%  %%$$%%..OO@@2288**$$$$**$$%%  **  **  **  **$$&&%%**%%%%**%%**&&$$%%..++",
"++22**$$  %%%%  %%  %%  %%  %%$$%%    %%  %%$$%%$$%%  %%  %%$$%%..OO@@2288**$$$$**$$%%  **  **  **  **$$&&%%**%%%%**%%**&&$$%%..++",
"++@@**$$  %%  %%$$%%%%$$%%%%%%%%%%%%  %%$$    %%  %%$$%%$$%%$$%%..OO@@22--%%**$$&&$$**  %%**%%  **%%&&$$**%%**%%**%%**%%**$$**..++",
"++@@**$$  %%  %%$$%%%%$$%%%%%%%%%%%%  %%$$    %%  %%$$%%$$%%$$%%..OO@@22--%%**$$&&$$**  %%**%%  **%%&&$$**%%**%%**%%**%%**$$**..++",
"++22%%                                                          ..++##22**$$$$$$$$$$$$$$$$$$                                ....++",
"++22%%                                                          ..++##22**$$$$$$$$$$$$$$$$$$                                ....++",
"++@@##++++++++++++++++++++@@@@@@++OOOOOOOO++++++OOOOOOOO++++OOOO++++##@@##++++++++++++OOOOOO++++@@++++OO++++++++OOOOOO++++++++++++",
"++@@##++++++++++++++++++++@@@@@@++OOOOOOOO++++++OOOOOOOO++++OOOO++++##@@##++++++++++++OOOOOO++++@@++++OO++++++++OOOOOO++++++++++++",
"3322@@22@@22##22########22333322##22@@22##22##@@@@@@@@@@##22####@@####22@@22##################222222##########@@++OOOO++@@####22##",
"3322@@22@@22##22########22333322##22@@22##22##@@@@@@@@@@##22####@@####22@@22##################222222##########@@++OOOO++@@####22##",
"qq8888888888========================**##22##ttttrrrrrrrrrrrrrrrreeeeeeeeeeeeeeeeeeeeeeeeeeeeee<<##@@22998888888888================",
"qq8888888888========================**##22##ttttrrrrrrrrrrrrrrrreeeeeeeeeeeeeeeeeeeeeeeeeeeeee<<##@@22998888888888================",
"**%%**  ****$$**$$**%%--%%**$$**%%**..++####rr<<<<<<<<::<<oo<<>><<::<<::<<oo<<::<<::<<;;<<::::XX@@##2288**$$&&**  **%%**%%**$$**%%",
"**%%**  ****$$**$$**%%--%%**$$**%%**..++####rr<<<<<<<<::<<oo<<>><<::<<::<<oo<<::<<::<<;;<<::::XX@@##2288**$$&&**  **%%**%%**$$**%%",
"$$**%%%%**%%**$$**%%$$**  %%$$&&$$&&..++####rr>><<::<<::::oo>>,,>><<>>::oooo::>>>>::>>;;<<::<<XX++##2288$$**  **%%**%%&&**%%**&&  ",
"$$**%%%%**%%**$$**%%$$**  %%$$&&$$&&..++####rr>><<::<<::::oo>>,,>><<>>::oooo::>>>>::>>;;<<::<<XX++##2288$$**  **%%**%%&&**%%**&&  ",
"--**%%  %%**$$**$$%%**%%  **&&$$**%%..++##@@rr>>>>::<<::>>>><<;;<<oo<<oooo<<::<<::>>;;>>>>::::XX++##2288$$**%%%%****&&%%&&%%$$%%&&",
"--**%%  %%**$$**$$%%**%%  **&&$$**%%..++##@@rr>>>>::<<::>>>><<;;<<oo<<oooo<<::<<::>>;;>>>>::::XX++##2288$$**%%%%****&&%%&&%%$$%%&&",
"99%%**  **$$$$**$$**%%**  %%%%$$**$$..++##@@rr<<oo::<<::<<oo<<>>,,::<<oooo>>::<<::<<>>;;::,,::XX++##2288**$$  **&&%%%%**%%**$$%%**",
"99%%**  **$$$$**$$**%%**  %%%%$$**$$..++##@@rr<<oo::<<::<<oo<<>>,,::<<oooo>>::<<::<<>>;;::,,::XX++##2288**$$  **&&%%%%**%%**$$%%**",
"99$$**%%**$$**$$&&**$$**%%  &&**%%&&..++##@@rroo<<<<::<<>>::>>;;>>oooooooo::>>>>::>>::;;>>::::XX++####88$$**&&**%%**&&%%%%  **%%**",
"99$$**%%**$$**$$&&**$$**%%  &&**%%&&..++##@@rroo<<<<::<<>>::>>;;>>oooooooo::>>>>::>>::;;>>::::XX++####88$$**&&**%%**&&%%%%  **%%**",
"$$$$**%%%%$$****$$**$$%%  **$$**$$**..++####rroo<<::<<::>>>>>>oo,,oooooo<<>>::<<>>::<<;;<<;;>>XX++@@##88$$**  %%  **%%**%%  $$**  ",
"$$$$**%%%%$$****$$**$$%%  **$$**$$**..++####rroo<<::<<::>>>>>>oo,,oooooo<<>>::<<>>::<<;;<<;;>>XX++@@##88$$**  %%  **%%**%%  $$**  ",
"**%%**  **$$$$&&$$%%%%**  **$$%%&&%%..++##22ee<<oo::<<::<<oo>>::<<::oo::::<<::>><<::>>::>>::>>XX++@@##--$$$$  **  **%%**%%**$$**%%",
"**%%**  **$$$$&&$$%%%%**  **$$%%&&%%..++##22ee<<oo::<<::<<oo>>::<<::oo::::<<::>><<::>>::>>::>>XX++@@##--$$$$  **  **%%**%%**$$**%%",
"$$                                ....++####<<XXXXXXXXXXooooooooooooooooooooooooooooooooooooXXXXOO##22**....                      ",
"$$                                ....++####<<XXXXXXXXXXooooooooooooooooooooooooooooooooooooXXXXOO##22**....                      ",
"++++++++++++++++++++++++++++++++++++++++##22##@@++++++++++++++++++++++++++++++++OOOOOOOOOO++OOOOOO@@####++++++++++++OOOOOOOOOO++++",
"++++++++++++++++++++++++++++++++++++++++##22##@@++++++++++++++++++++++++++++++++OOOOOOOOOO++OOOOOO@@####++++++++++++OOOOOOOOOO++++",
"33@@22@@22@@@@@@##########2222@@########2222222222######22######22####@@######@@@@@@@@@@@@@@##@@@@@@22####@@22########@@@@@@######",
"33@@22@@22@@@@@@##########2222@@########2222222222######22######22####@@######@@@@@@@@@@@@@@##@@@@@@22####@@22########@@@@@@######"
};
