/* XPM */
static char *_734_fea489536313094434a4d5f4b4773c09349b8d9f66b8fb4acbff3430e97c766b[] = {
/* columns rows colors chars-per-pixel */
"64 64 50 1 ",
"  c #140E0B",
". c #150F0C",
"X c #17100C",
"o c #18110D",
"O c #19120E",
"+ c #1B130E",
"@ c #1C140F",
"# c #1D1510",
"$ c #1E1611",
"% c #201711",
"& c #211812",
"* c #221913",
"= c #241A13",
"- c #251A14",
"; c #261B15",
": c #271C16",
"> c #291D16",
", c #2A1E17",
"< c #2B1F18",
"1 c #2D2018",
"2 c #2E2119",
"3 c #2F221A",
"4 c #30231B",
"5 c #32241B",
"6 c #33251C",
"7 c #34261D",
"8 c #37271E",
"9 c #38281F",
"0 c #392920",
"q c #3B2A20",
"w c #3C2B21",
"e c #3D2C22",
"r c #3F2D22",
"t c #402E23",
"y c #423025",
"u c #443125",
"i c #463327",
"p c #483427",
"a c #493528",
"s c #4D372A",
"d c #4E382B",
"f c #4F392C",
"g c #513A2C",
"h c #523B2D",
"j c #533C2E",
"k c #553D2E",
"l c #563E2F",
"z c #573F30",
"x c #5F4434",
"c c #604535",
/* pixels */
"::==22tt::44pptt11<<116699==33,,2255==**--**oo;;;;77aaxx99::22ee",
"::==22tt::44pptt11<<116699==33,,2255==**--**oo;;;;77aaxx99::22ee",
"44uu99qq<<;;&&11,,1133gg11==33<<yy44,,,,;;**%%OO3333rrpp;;--@@11",
"44uu99qq<<;;&&11,,1133gg11==33<<yy44,,,,;;**%%OO3333rrpp;;--@@11",
"ssccww4466==$$$$-->>qqss33::<<<<<<,,>>22;;**$$OO::==7711::555577",
"ssccww4466==$$$$-->>qqss33::<<<<<<,,>>22;;**$$OO::==7711::555577",
"dddd66ee44qq==##$$&&33>>==&&33>>>>::4433<<&&&&@@==##$$%%>>::;;99",
"dddd66ee44qq==##$$&&33>>==&&33>>>>::4433<<&&&&@@==##$$%%>>::;;99",
"pp5566eessqq==OO$$--112233==>>::>>>>>>>>11**$$$$==%%--22>>**;;77",
"pp5566eessqq==OO$$--112233==>>::>>>>>>>>11**$$$$==%%--22>>**;;77",
"7766sszzaa==$$&&<<;;;;;;--====::11<<::;;--@@XX@@--,,665522==**11",
"7766sszzaa==$$&&<<;;;;;;--====::11<<::;;--@@XX@@--,,665522==**11",
"55ttssyy--%%11pp4411111111##%%==--==-->>==XXXX&&--11443366--**,,",
"55ttssyy--%%11pp4411111111##%%==--==-->>==XXXX&&--11443366--**,,",
">><<&&OOOO==qq11>>,,113322$$  $$@@@@==,,==XXOO>>--,,22223333==--",
">><<&&OOOO==qq11>>,,113322$$  $$@@@@==,,==XXOO>>--,,22223333==--",
"::55yy22$$$$&&;;>>33992244$$OO66rrss>>qq,,**@@<<>>>><<221144==%%",
"::55yy22$$$$&&;;>>33992244$$OO66rrss>>qq,,**@@<<>>>><<221144==%%",
",,449966$$@@%%**--11446644$$OO--113344ee00::##$$--::,,4411<<%%;;",
",,449966$$@@%%**--11446644$$OO--113344ee00::##$$--::,,4411<<%%;;",
"22444422<<&&$$$$$$::qq6622==$$99tttt881166<<@@@@**==::,,>>::$$99",
"22444422<<&&$$$$$$::qq6622==$$99tttt881166<<@@@@**==::,,>>::$$99",
",,2244<<<<::$$%%$$@@;;33--==%%rrffhh00qq77==$$==33======,,--****",
",,2244<<<<::$$%%$$@@;;33--==%%rrffhh00qq77==$$==33======,,--****",
",,11<<11;;@@##====;;-->>;;;;**qqyyjjww6611@@$$77<<>>,,,,11%%OO<<",
",,11<<11;;@@##====;;-->>;;;;**qqyyjjww6611@@$$77<<>>,,,,11%%OO<<",
"331144--OOXXXX==,,%%&&**;;,,;;11rrllss44--@@<<99ww66664444&&@@33",
"331144--OOXXXX==,,%%&&**;;,,;;11rrllss44--@@<<99ww66664444&&@@33",
"<<--%%XX  ..@@##--779933**qq<<==rr66$$==$$@@yyee3311111166>>$$>>",
"<<--%%XX  ..@@##--779933**qq<<==rr66$$==$$@@yyee3311111166>>$$>>",
"..$$@@++**$$  ====99ggii>>3311yy22$$==;;==44zzss11<<1122kk66;;@@",
"..$$@@++**$$  ====99ggii>>3311yy22$$==;;==44zzss11<<1122kk66;;@@",
"2255==**--**oo;;;;77aaxx99::22ee::==22tt::44pptt11<<116699==33,,",
"2255==**--**oo;;;;77aaxx99::22ee::==22tt::44pptt11<<116699==33,,",
"yy44,,,,;;**%%OO3333rrpp;;--@@1144uu99qq<<;;&&11,,1133gg11==33<<",
"yy44,,,,;;**%%OO3333rrpp;;--@@1144uu99qq<<;;&&11,,1133gg11==33<<",
"<<,,>>22;;**$$OO::==7711::555577ssccww4466==$$$$-->>qqss33::<<<<",
"<<,,>>22;;**$$OO::==7711::555577ssccww4466==$$$$-->>qqss33::<<<<",
">>::4433<<&&&&@@==##$$%%>>::;;99dddd66ee44qq==##$$&&33>>==&&33>>",
">>::4433<<&&&&@@==##$$%%>>::;;99dddd66ee44qq==##$$&&33>>==&&33>>",
">>>>>>>>11**$$$$==%%--22>>**;;77pp5566eessqq==OO$$--112233==>>::",
">>>>>>>>11**$$$$==%%--22>>**;;77pp5566eessqq==OO$$--112233==>>::",
"11<<::;;--@@XX@@--,,665522==**117766sszzaa==$$&&<<;;;;;;--====::",
"11<<::;;--@@XX@@--,,665522==**117766sszzaa==$$&&<<;;;;;;--====::",
"--==-->>==XXXX&&--11443366--**,,55ttssyy--%%11pp4411111111##%%==",
"--==-->>==XXXX&&--11443366--**,,55ttssyy--%%11pp4411111111##%%==",
"@@@@==,,==XXOO>>--,,22223333==-->><<&&OOOO==qq11>>,,113322$$  $$",
"@@@@==,,==XXOO>>--,,22223333==-->><<&&OOOO==qq11>>,,113322$$  $$",
"rrss>>qq,,**@@<<>>>><<221144==%%::55yy22$$$$&&;;>>33992244$$OO66",
"rrss>>qq,,**@@<<>>>><<221144==%%::55yy22$$$$&&;;>>33992244$$OO66",
"113344ee00::##$$--::,,4411<<%%;;,,449966$$@@%%**--11446644$$OO--",
"113344ee00::##$$--::,,4411<<%%;;,,449966$$@@%%**--11446644$$OO--",
"tttt881166<<@@@@**==::,,>>::$$9922444422<<&&$$$$$$::qq6622==$$99",
"tttt881166<<@@@@**==::,,>>::$$9922444422<<&&$$$$$$::qq6622==$$99",
"ffhh00qq77==$$==33======,,--****,,2244<<<<::$$%%$$@@;;33--==%%rr",
"ffhh00qq77==$$==33======,,--****,,2244<<<<::$$%%$$@@;;33--==%%rr",
"yyjjww6611@@$$77<<>>,,,,11%%OO<<,,11<<11;;@@##====;;-->>;;;;**qq",
"yyjjww6611@@$$77<<>>,,,,11%%OO<<,,11<<11;;@@##====;;-->>;;;;**qq",
"rrllss44--@@<<99ww66664444&&@@33331144--OOXXXX==,,%%&&**;;,,;;11",
"rrllss44--@@<<99ww66664444&&@@33331144--OOXXXX==,,%%&&**;;,,;;11",
"rr66$$==$$@@yyee3311111166>>$$>><<--%%XX  ..@@##--779933**qq<<==",
"rr66$$==$$@@yyee3311111166>>$$>><<--%%XX  ..@@##--779933**qq<<==",
"22$$==;;==44zzss11<<1122kk66;;@@..$$@@++**$$  ====99ggii>>3311yy",
"22$$==;;==44zzss11<<1122kk66;;@@..$$@@++**$$  ====99ggii>>3311yy"
};
