/* XPM */
static char *_ca76bda89aa41f7dad898221d498f5b[] = {
/* columns rows colors chars-per-pixel */
"130 122 46 1 ",
"  c #390603",
". c #27200F",
"X c #3D301C",
"o c #202020",
"O c #2C2C2C",
"+ c gray19",
"@ c #343434",
"# c gray22",
"$ c #440804",
"% c #4F0B06",
"& c #5A0D07",
"* c #651009",
"= c #70130B",
"- c #7B160E",
"; c #503D21",
": c #574125",
"> c #66492A",
", c #6E4D2E",
"< c gray25",
"1 c #484848",
"2 c #4C4C4C",
"3 c gray33",
"4 c gray36",
"5 c #646464",
"6 c gray44",
"7 c #7C7C7C",
"8 c #8A1A10",
"9 c #951D13",
"0 c #991E13",
"q c #A02015",
"w c #AB2317",
"e c #B62619",
"r c #C1281B",
"t c #CC2B1E",
"y c #D72E20",
"u c #815A37",
"i c #93623F",
"p c #9E6B47",
"a c #AA734C",
"s c #B27B50",
"d c #BD7F55",
"f c #CF8B5E",
"g c #EFAB69",
"h c gray55",
"j c #989898",
"k c gray66",
/* pixels */
"##################################################################################################################################",
"##################################################################################################################################",
"33##331111111111331111111111113311##111111111111113333333333331111111111111111113333333333333311111111######111133331111111111##<<",
"33##331111111111331111111111113311##111111111111113333333333331111111111111111113333333333333311111111######111133331111111111##<<",
"##9999888888888888888888**111133kkkkjjjjjjjjjjjjjjjjjjjjjjjjjjjjjjjjjjjj7711##33yyyyyyyyttttttttttttrrrrrrrrrreeeeeeeewwwwww9911++",
"##9999888888888888888888**111133kkkkjjjjjjjjjjjjjjjjjjjjjjjjjjjjjjjjjjjj7711##33yyyyyyyyttttttttttttrrrrrrrrrreeeeeeeewwwwww9911++",
"1199--====88&&**88&&--**$$OO1133kkhh55hh55hh55hh55hh66hh66hh55hh55hhhh7733OO11##rr99eeqqeeqqqqee**ee==eeqqee--qq99==ee88ee99==OO##",
"1199--====88&&**88&&--**$$OO1133kkhh55hh55hh55hh55hh66hh66hh55hh55hhhh7733OO11##rr99eeqqeeqqqqee**ee==eeqqee--qq99==ee88ee99==OO##",
"1188**%%**&&****%%**&&%%$$OO1133jjhh55557755337777336677773366773377663322OO1133rr9999==&&99--**--99==--9999--99==--99%%99**&&OO##",
"1188**%%**&&****%%**&&%%$$OO1133jjhh55557755337777336677773366773377663322OO1133rr9999==&&99--**--99==--9999--99==--99%%99**&&OO##",
"1188%%****%%******%%**  ..OO1133jj55hh775577337755773377335555773366553322OO1111rr**99&&--99&&99**99==99--99&&9988==99==99**$$OO##",
"1188%%****%%******%%**  ..OO1133jj55hh775577337755773377335555773366553322OO1111rr**99&&--99&&99**99==99--99&&9988==99==99**$$OO##",
"11--**%%&&**%%**%%&&**%%..OO1133hhhh557755556677335533775533665555337733@@OO##11ww**99==99--&&99****9999**99--9999==99%%99--$$OO##",
"11--**%%&&**%%**%%&&**%%..OO1133hhhh557755556677335533775533665555337733@@OO##11ww**99==99--&&99****9999**99--9999==99%%99--$$OO##",
"11==%%****%%****%%**%%  ..OO1111hhhh55773377337733773366553355773366553322OO##11ww8899&&--99==--**--==99--99&&99==--99==99**  OO##",
"11==%%****%%****%%**%%  ..OO1111hhhh55773377337733773366553355773366553322OO##11ww8899&&--99==--**--==99--99&&99==--99==99**  OO##",
"11==**%%&&  %%%%  %%&&%%..OO##3366663333<<5533335533<<3355335533<<553333@@OO##11ww****%%****$$--$$**%%--$$**$$--&&$$**--**--  OO##",
"11==**%%&&  %%%%  %%&&%%..OO##3366663333<<5533335533<<3355335533<<553333@@OO##11ww****%%****$$--$$**%%--$$**$$--&&$$**--**--  OO##",
"11%%$$$$$$................OO##11552222222222222222222222@@@@@@@@@@@@@@@@@@OO##11--&&&&&&&&&&&&&&&&&&&&%%%%%%%%%%%%%%%%%%      OO##",
"11%%$$$$$$................OO##11552222222222222222222222@@@@@@@@@@@@@@@@@@OO##11--&&&&&&&&&&&&&&&&&&&&%%%%%%%%%%%%%%%%%%      OO##",
"1111OOOOOOOOOOOOOOOOooooooOO##3311OOOOOOOOOOooooooooooOOOOooooooooOOOOOOOOOO1133##OOOOOOOOOOOOOOOOOOOOOOooooooooooOOOOOOOOOOOOOO##",
"1111OOOOOOOOOOOOOOOOooooooOO##3311OOOOOOOOOOooooooooooOOOOooooooooOOOOOOOOOO1133##OOOOOOOOOOOOOOOOOOOOOOooooooooooOOOOOOOOOOOOOO##",
"33########11111111##########11##11111111111111######33111111####11111111111133##11333333334455554433331111<<##<<33##3311111133##<<",
"33########11111111##########11##11111111111111######33111111####11111111111133##11333333334455554433331111<<##<<33##3311111133##<<",
"yyrrrrrrwwwwwwwwwwwwwwwwwwwwww99113311ggggffffffffffffddddddddddddddsssssssssssssssssssssssssssssssssssspp11<<33yyyyrrrrrrrrrrrr99",
"yyrrrrrrwwwwwwwwwwwwwwwwwwwwww99113311ggggffffffffffffddddddddddddddsssssssssssssssssssssssssssssssssssspp11<<33yyyyrrrrrrrrrrrr99",
"qq----qq88==qq==88--qq&&qq--99  ##1133gg,,aadduuss>>uussuuuuddiippuuuuuuppuuppuuppuudd>>dduuiissddiiddppXX##11##yyee==qq--qq--qq==",
"qq----qq88==qq==88--qq&&qq--99  ##1133gg,,aadduuss>>uussuuuuddiippuuuuuuppuuppuuppuudd>>dduuiissddiiddppXX##11##yyee==qq--qq--qq==",
"--99--99==----&&99--&&--9999**  OO1111ffaa,,ppuuppppuupp>>pp,,>>uuppuuppuupp>>ppppuu>>ppuupp,,uupp,,pp,,XX##1133eeqq==99--==9988&&",
"--99--99==----&&99--&&--9999**  OO1111ffaa,,ppuuppppuupp>>pp,,>>uuppuuppuupp>>ppppuu>>ppuupp,,uupp,,pp,,XX##1133eeqq==99--==9988&&",
"**9999--88&&99==----88&&99--**  OO##11ff,,ppuuiiuuuu>>uuuu,,ppuu>>ppuuuu>>uuuuuupp::uuuupp,,pp,,pppp,,,,XXOO<<11ee==999999==99==%%",
"**9999--88&&99==----88&&99--**  OO##11ff,,ppuuiiuuuu>>uuuu,,ppuu>>ppuuuu>>uuuuuupp::uuuupp,,pp,,pppp,,,,XXOO<<11ee==999999==99==%%",
"99----99--====--==9988&&99&&**  OO##11ff,,ppppuupp>>uupp>>,,pp>>uuppuuuuuupp>>ppuu::pp>>pp,,uu,,pp,,pp,,XXOO##11eeqq==99==9988==**",
"99----99--====--==9988&&99&&**  OO##11ff,,ppppuupp>>uupp>>,,pp>>uuppuuuuuupp>>ppuu::pp>>pp,,uu,,pp,,pp,,XXOO##11eeqq==99==9988==**",
"**99&&99**--==88&&99&&--9999**  OO1133ffaa::ppuuppuu>>uu::uu,,>>ppuuuu::uupp>>uu::uupp>>uupp,,uupp,,pp,,XXoo##11qq==9999%%99==--%%",
"**99&&99**--==88&&99&&--9999**  OO1133ffaa::ppuuppuu>>uu::uu,,>>ppuuuu::uupp>>uu::uupp>>uupp,,uupp,,pp,,XXoo##11qq==9999%%99==--%%",
"**qq&&**$$==**88**88**%%88****  OO1133aapp,,uu::,,ii,,uu>>,,uu::,,ii,,ii>>uu,,uuuu::ii,,,,uu;;,,ii,,uu,,XXoo<<33qq99==**%%**88**%%",
"**qq&&**$$==**88**88**%%88****  OO1133aapp,,uu::,,ii,,uu>>,,uu::,,ii,,ii>>uu,,uuuu::ii,,,,uu;;,,ii,,uu,,XXoo<<33qq99==**%%**88**%%",
"  $$$$$$$$$$$$$$$$$$$$$$$$      ##1133pp>>>>>>>>>>>>>>>>>>>>>>>>>>::::::::::::::::::::::::::::::::::::XXXXoo11##99&&  &&    &&  ..",
"  $$$$$$$$$$$$$$$$$$$$$$$$      ##1133pp>>>>>>>>>>>>>>>>>>>>>>>>>>::::::::::::::::::::::::::::::::::::XXXXoo11##99&&  &&    &&  ..",
"OOOOOOooOOOOOOooooooOOOOOOooooOO##11##11##@@OOOOOOOOOOOO@@@@####@@OOOOOOooooooooooOOOOOOooooooooOOOOOOOOOO##113311OOOOOOOOOOOOOOOO",
"OOOOOOooOOOOOOooooooOOOOOOooooOO##11##11##@@OOOOOOOOOOOO@@@@####@@OOOOOOooooooooooOOOOOOooooooooOOOOOOOOOO##113311OOOOOOOOOOOOOOOO",
"333311####1133##33##1111########111133111111<<##<<##<<##<<11111133##3311<<######<<<<111133<<####<<111111331133##33<<##<<33111111<<",
"333311####1133##33##1111########111133111111<<##<<##<<##<<11111133##3311<<######<<<<111133<<####<<111111331133##33<<##<<33111111<<",
"33kkkkjjjjjjjjjjjjjjhhhhhhhhhhhhhhhhhhhhhhhhhhhhhhhhhh77113333000088888888888888888888--------------------------------------==11<<",
"33kkkkjjjjjjjjjjjjjjhhhhhhhhhhhhhhhhhhhhhhhhhhhhhhhhhh77113333000088888888888888888888--------------------------------------==11<<",
"33kk5577hh55hh55hh557755775577jj5577557755hh772277jj33####113300--&&88==--**==--**--==--&&%%==**&&**==&&**====**==&&**==$$==  OO<<",
"33kk5577hh55hh55hh557755775577jj5577557755hh772277jj33####113300--&&88==--**==--**--==--&&%%==**&&**==&&**====**==&&**==$$==  OO<<",
"##kk77557766775533557777556655775522773377552255773377##OO114488--====%%==%%**&&==**%%==%%**==%%==&&==&&==**==%%====&&==&&&&  OO++",
"##kk77557766775533557777556655775522773377552255773377##OO114488--====%%==%%**&&==**%%==%%**==%%==&&==&&==**==%%====&&==&&&&  OO++",
"11hh22777733552277227733775566772255773355775522557733##OO335588--&&==&&==%%==&&====&&==&&==**%%==&&&&====&&==**====&&==$$&&  OO##",
"11hh22777733552277227733775566772255773355775522557733##OO335588--&&==&&==%%==&&====&&==&&==**%%==&&&&====&&==**====&&==$$&&  OO##",
"11hh775577<<772233557755335577555522557722775522773322##OO334488&&==&&==**%%**==&&==%%**%%**==&&**&&**&&==**==%%==&&**==&&&&  OO##",
"11hh775577<<772233557755335577555522557722775522773322##OO334488&&==&&==**%%**==&&==%%**%%**==&&**&&**&&==**==%%==&&**==&&&&  OO##",
"33hh332277<<555577227722772277552255775522772255555577##OO11338888&&==&&==**==**&&==%%==$$&&&&$$==$$==$$==$$====**%%$$&&**&&  OO<<",
"33hh332277<<555577227722772277552255775522772255555577##OO11338888&&==&&==**==**&&==%%==$$&&&&$$==$$==$$==$$====**%%$$&&**&&  OO<<",
"11jj77223333332233<<3333552255333355333322336633663333##OO##3388==&&==&&**$$&&&&&&&&%%**&&**$$==$$&&==$$&&**$$==$$==$$==&&&&  OO##",
"11jj77223333332233<<3333552255333355333322336633663333##OO##3388==&&==&&**$$&&&&&&&&%%**&&**$$==$$&&==$$&&**$$==$$==$$==&&&&  OO##",
"1177662222222222222222222222222222<<<<<<<<<<<<<<<<<<####OO##33==%%%%%%%%%%%%%%%%%%%%%%%%%%%%$$$$$$$$$$$$$$$$$$$$$$$$  $$&&$$  OO##",
"1177662222222222222222222222222222<<<<<<<<<<<<<<<<<<####OO##33==%%%%%%%%%%%%%%%%%%%%%%%%%%%%$$$$$$$$$$$$$$$$$$$$$$$$  $$&&$$  OO##",
"1111##OOOOOOOOOOOOOOOOOOOOOOOOOOOOOOOOOO######OOOOOOOOOOOO111111OOOOOOOOOOOOOOOOooooooooooOO######OOooooooOOOOOOOOOOOOOOOOOOOOOO##",
"1111##OOOOOOOOOOOOOOOOOOOOOOOOOOOOOOOOOO######OOOOOOOOOOOO111111OOOOOOOOOOOOOOOOooooooooooOO######OOooooooOOOOOOOOOOOOOOOOOOOOOO##",
"33333333331111##11######11335555333333111111<<<<####<<####<<3311111133##33113311<<##<<##<<1133331111<<##<<11111133##3311111133##<<",
"33333333331111##11######11335555333333111111<<<<####<<####<<3311111133##33113311<<##<<##<<1133331111<<##<<11111133##3311111133##<<",
"wwwwwwwwwwwwwwwwwwww9911##33ffffffffffffffffsssssssssssssssssssssssssssssssssspp113333eeyyrrrrrrrrrrrrrrrrrrwwwwwwwwwwwwwwwwwwww==",
"wwwwwwwwwwwwwwwwwwww9911##33ffffffffffffffffsssssssssssssssssssssssssssssssssspp113333eeyyrrrrrrrrrrrrrrrrrrwwwwwwwwwwwwwwwwwwww==",
"99qq99qq88eeqqqqee99  ##11##ffpp>>pp,,pppp>>ppuupppp,,ppuu>>pppp>>pppp,,ppuuppXX##1133rr99==99**9999&&99==--==99**99--99==99**99**",
"99qq99qq88eeqqqqee99  ##11##ffpp>>pp,,pppp>>ppuupppp,,ppuu>>pppp>>pppp,,ppuuppXX##1133rr99==99**9999&&99==--==99**99--99==99**99**",
"99==--998899==99--**  OO1133ff>>ppuuuuppuuppii,,ppuuuu,,uuuuppuu>>pp,,uupp>>ppXX##3333rr99%%99**99--&&99--99==----88**88==88--****",
"99==--998899==99--**  OO1133ff>>ppuuuuppuuppii,,ppuuuu,,uuuuppuu>>pp,,uupp>>ppXX##3333rr99%%99**99--&&99--99==----88**88==88--****",
"--==9988==99==8899**  OO11##ff>>ppppuuiipp,,pp,,ppuupp::pp;;uuuuppuu,,iippuuppXX##3355rr99==99**99--99--9999==99**88--9988==99**&&",
"--==9988==99==8899**  OO11##ff>>ppppuuiipp,,pp,,ppuupp::pp;;uuuuppuu,,iippuuppXX##3355rr99==99**99--99--9999==99**88--9988==99**&&",
"99--==99889988==--**  ##1133ffii>>ppuuppuu::iiuuuuuu,,uupp>>ppuu>>uuii,,uuppuuXX##3355rr==9999**99&&9999====99==99--8888--==**--**",
"99--==99889988==--**  ##1133ffii>>ppuuppuu::iiuuuuuu,,uupp>>ppuu>>uuii,,uuppuuXX##3355rr==9999**99&&9999====99==99--8888--==**--**",
"99--==99==99==8899**  ##1111ff>>ppuu::iipp,,uuuuppuupp,,uu;;>>ii>>ppii,,ppuuppXX##1133ee99==9999**99----==99==99**88--99==--99****",
"99--==99==99==8899**  ##1111ff>>ppuu::iipp,,uuuuppuupp,,uu;;>>ii>>ppii,,ppuuppXX##1133ee99==9999**99----==99==99**88--99==--99****",
"****--88****88******  ##1111ii>>pppp::ppuu,,pp,,pp>>pp::uu>>ppuu>>ii,,iipp>>uuXXOO1133ee99%%99**9999--99--99==99**88**88==9999**%%",
"****--88****88******  ##1111ii>>pppp::ppuu,,pp,,pp>>pp::uu>>ppuu>>ii,,iipp>>uuXXOO1133ee99%%99**9999--99--99==99**88**88==9999**%%",
"    $$$$$$$$$$$$$$    OO1111pp>>>>>>>>>>>>>>>>>>::::::::::::::::::::::::::::XXXXOO111199&&&&&&&&&&&&&&&&&&&&&&&&&&&&&&%%%%%%%%  ..",
"    $$$$$$$$$$$$$$    OO1111pp>>>>>>>>>>>>>>>>>>::::::::::::::::::::::::::::XXXXOO111199&&&&&&&&&&&&&&&&&&&&&&&&&&&&&&%%%%%%%%  ..",
"OOOOOOOOOOOOOOOOOOOOOOOO113311OOooooooooOOOO######OOooooooooooOOOOOOOOOOOOOOOOOO##111111OOOOOOOO####11##OOOOooooooOOOOOOOOOOOOOOOO",
"OOOOOOOOOOOOOOOOOOOOOOOO113311OOooooooooOOOO######OOooooooooooOOOOOOOOOOOOOOOOOO##111111OOOOOOOO####11##OOOOooooooOOOOOOOOOOOOOOOO",
"331133##11####1111########1111######111111111133331111######3311111133##11##11##1111331133##331133445533221111##3311331133##33##<<",
"331133##11####1111########1111######111111111133331111######3311111133##11##11##1111331133##331133445533221111##3311331133##33##<<",
"##00====8888888888--------------------------------------------==##33##yyyyrrrrrrrrrrrrrrrrwwwwwwwwwwwwwwwwwwwwwwwwwwwwwwwwww9911++",
"##00====8888888888--------------------------------------------==##33##yyyyrrrrrrrrrrrrrrrrwwwwwwwwwwwwwwwwwwwwwwwwwwwwwwwwww9911++",
"3388&&&&**==%%====&&====&&==&&**==%%==&&==**==%%==%%====&&&&==  ##1133yy9999&&99&&99%%99**99%%99--%%88--**99--==99==88**--99  OO<<",
"3388&&&&**==%%====&&====&&==&&**==%%==&&==**==%%==%%====&&&&==  ##1133yy9999&&99&&99%%99**99%%99--%%88--**99--==99==88**--99  OO<<",
"1188&&$$==**%%==**==&&==%%**$$====%%==$$**==**%%==&&==&&==&&==  OO1111rr--99&&--&&==%%--%%88==99%%99&&99**--**99--==8899&&--  OO##",
"1188&&$$==**%%==**==&&==%%**$$====%%==$$**==**%%==&&==&&==&&==  OO1111rr--99&&--&&==%%--%%88==99%%99&&99**--**99--==8899&&--  OO##",
"1188&&$$==%%**&&%%==%%==**&&**==%%==****$$&&==$$==$$**%%****&&  OO##11rr--99&&&&--99==%%99==%%8899%%99****99**99==99**--&&99  OO##",
"1188&&$$==%%**&&%%==%%==**&&**==%%==****$$&&==$$==$$**%%****&&  OO##11rr--99&&&&--99==%%99==%%8899%%99****99**99==99**--&&99  OO##",
"##88&&&&==**%%==**&&====&&==$$**==%%==$$**==$$====&&======&&&&  OO##11rr99&&99--&&99%%99**88====%%--&&99==--88--88==**99--99  OO++",
"##88&&&&==**%%==**&&====&&==$$**==%%==$$**==$$====&&======&&&&  OO##11rr99&&99--&&99%%99**88====%%--&&99==--88--88==**99--99  OO++",
"3388&&$$**==%%==%%==%%==%%==&&==%%%%==$$**&&==&&**%%==%%**&&==  oo##33rr99&&&&99&&==%%99%%99%%88%%99&&--**99**==99==88--&&**  OO<<",
"3388&&$$**==%%==%%==%%==%%==&&==%%%%==$$**&&==&&**%%==%%**&&==  oo##33rr99&&&&99&&==%%99%%99%%88%%99&&--**99**==99==88--&&**  OO<<",
"##88&&$$==%%**&&**==&&==******====%%**&&$$%%==$$==&&==&&==&&==  oo##33ee**99&&--&&99%%==99==%%88**--&&99**99**99==88**99&&99  OO++",
"##88&&$$==%%**&&**==&&==******====%%**&&$$%%==$$==&&==&&==&&==  oo##33ee**99&&--&&99%%==99==%%88**--&&99**99**99==88**99&&99  OO++",
"33==$$$$%%%%%%%%%%%%%%$$$$$$$$$$$$$$$$$$$$$$$$$$$$$$$$$$$$$$$$  OO113399&&&&&&&&&&&&&&&&&&%%%%%%%%%%$$$$$$$$$$$$$$$$$$$$$$    OO<<",
"33==$$$$%%%%%%%%%%%%%%$$$$$$$$$$$$$$$$$$$$$$$$$$$$$$$$$$$$$$$$  OO113399&&&&&&&&&&&&&&&&&&%%%%%%%%%%$$$$$$$$$$$$$$$$$$$$$$    OO<<",
"##11OOOOOOOOOOOOOOOOOOOO######OOooooooooOOOOOOooooooooOOOOooooOOOO11##11OOOOOOOOOOOOooooooOO@@##@@OOooOOOOOOOOooooooOOOOOOOOOOOO++",
"##11OOOOOOOOOOOOOOOOOOOO######OOooooooooOOOOOOooooooooOOOOooooOOOO11##11OOOOOOOOOOOOooooooOO@@##@@OOooOOOOOOOOooooooOOOOOOOOOOOO++",
"33##33##33113311111111335555331133##33113311<<######<<11331111##111133##331111111111111111223333332211111111##++oooo++##11113311<<",
"33##33##33113311111111335555331133##33113311<<######<<11331111##111133##331111111111111111223333332211111111##++oooo++##11113311<<",
"rrrrrrrrrrwwwwwwwwwwwwwwwwwwwwwwww99113311ggggffffffffffffffffsssssssssssssssssssssssssssssspp11##33yyrrrrrrrrrrwwwwwwwwwwwwwwww88",
"rrrrrrrrrrwwwwwwwwwwwwwwwwwwwwwwww99113311ggggffffffffffffffffsssssssssssssssssssssssssssssspp11##33yyrrrrrrrrrrwwwwwwwwwwwwwwww88",
"==99%%9999&&88&&99==ee==99&&99==99  OO1111ffpppppppp>>pp;;ppuupp>>pp>>pp;;pp>>pp>>pp::pp,,>>XX##1133rr99&&--99%%99**99**99&&99**%%",
"==99%%9999&&88&&99==ee==99&&99==99  OO1111ffpppppppp>>pp;;ppuupp>>pp>>pp;;pp>>pp>>pp::pp,,>>XX##1133rr99&&--99%%99**99**99&&99**%%",
"99====99==99&&88==&&99%%==&&--&&--  OO1111ffuupp,,pp>>,,;;uuiiuuppuu>>;;;;>>uuuu,,uu::pp>>ppXX@@1133rr&&99%%99**99**--99**99--$$**",
"99====99==99&&88==&&99%%==&&--&&--  OO1111ffuupp,,pp>>,,;;uuiiuuppuu>>;;;;>>uuuu,,uu::pp>>ppXX@@1133rr&&99%%99**99**--99**99--$$**",
"99==%%==99&&88&&==99==%%99--&&88==  OO11<<ffuuuu,,pp>>uuuupp::pp;;pp;;;;pp>>pp>>uu::uuuu>>,,XXOO1133rr&&99****9999--**--**&&**--**",
"99==%%==99&&88&&==99==%%99--&&88==  OO11<<ffuuuu,,pp>>uuuupp::pp;;pp;;;;pp>>pp>>uu::uuuu>>,,XXOO1133rr&&99****9999--**--**&&**--**",
"==88%%88&&&&99&&99==99%%==**&&99&&  OO11<<ffpp;;,,pp>>pp;;ppuuii>>pp;;;;uu>>pp>>ppuu::,,ii>>XXOO1133rr99&&%%99--****99**99&&**99%%",
"==88%%88&&&&99&&99==99%%==**&&99&&  OO11<<ffpp;;,,pp>>pp;;ppuuii>>pp;;;;uu>>pp>>ppuu::,,ii>>XXOO1133rr99&&%%99--****99**99&&**99%%",
"&&99==99&&99&&--99&&99==%%--99==--  OO11<<ff;;pppp>>ppuu,,uu::uu;;;;;;;;>>uuuu>>uu,,::uu,,>>XXOO1111rr&&99--99**99--****%%99**99$$",
"&&99==99&&99&&--99&&99==%%--99==--  OO11<<ff;;pppp>>ppuu,,uu::uu;;;;;;;;>>uuuu>>uu,,::uu,,>>XXOO1111rr&&99--99**99--****%%99**99$$",
"&&99====&&8888&&88&&==%%99&&99&&88  OO1111ff;;pp,,pp>>uuuuuu;;ii;;;;;;ppuu>>ppuu>>pp::pp::uuXXOO##11rr&&99%%**%%99**99**%%&&99$$$$",
"&&99====&&8888&&88&&==%%99&&99&&88  OO1111ff;;pp,,pp>>uuuuuu;;ii;;;;;;ppuu>>ppuu>>pp::pp::uuXXOO##11rr&&99%%**%%99**99**%%&&99$$$$",
"==88%%99&&&&--&&====99%%99&&**--==  OO1133ddpp;;,,pp>>pp;;uu>>pp>>;;,,>>pp>>uupp>>uu,,uu>>uuXXOO##11ee&&&&%%99%%99**99**99&&99**%%",
"==88%%99&&&&--&&====99%%99&&**--==  OO1133ddpp;;,,pp>>pp;;uu>>pp>>;;,,>>pp>>uupp>>uu,,uu>>uuXXOO##11ee&&&&%%99%%99**99**99&&99**%%",
"$$$$$$$$$$$$$$$$$$$$$$$$$$$$$$$$    OO1111ppXXXXXXXXXX;;;;;;;;;;;;;;;;;;;;;;;;;;;;;;;;;;;;XXXXoo113399    $$$$$$$$$$$$$$$$$$$$$$  ",
"$$$$$$$$$$$$$$$$$$$$$$$$$$$$$$$$    OO1111ppXXXXXXXXXX;;;;;;;;;;;;;;;;;;;;;;;;;;;;;;;;;;;;XXXXoo113399    $$$$$$$$$$$$$$$$$$$$$$  "
};
