/* XPM */
static char *_35c81a9e82d4cc8bb5ca8f933142893[] = {
/* columns rows colors chars-per-pixel */
"128 130 23 1 ",
"  c black",
". c #00023D",
"X c #202020",
"o c #2C2C2C",
"O c gray22",
"+ c #000349",
"@ c #000454",
"# c #000560",
"$ c #00076B",
"% c #000877",
"& c #484848",
"* c gray33",
"= c #646464",
"- c gray44",
"; c #000A82",
": c #000D92",
"> c #000E9D",
", c #0010A9",
"< c #0012B4",
"1 c #0014C0",
"2 c #0016CB",
"3 c #0018D7",
"4 c #3E47F2",
/* pixels */
"&&&&&&&&&&&&&&&&&&&&&&&&&&OO**==------------------------------------------------------------==OOooXX&&&&&&&&&&&&&&&&&&&&&&&&&&&&",
"&&&&&&&&&&&&&&&&&&&&&&&&&&OO**==------------------------------------------------------------==OOooXX&&&&&&&&&&&&&&&&&&&&&&&&&&&&",
"OO$$%%%%%%%%%%%%%%%%%%%%%%%%%%%%%%%%%%%%%%$$OOOO;;;;;;;;;;;;;;;;;;;;;;;;;;;;;;;;;;;;;;;;;;;;;;;;;;;;;;;;OOOO$$%%%%%%%%%%%%%%$$oo",
"OO$$%%%%%%%%%%%%%%%%%%%%%%%%%%%%%%%%%%%%%%$$OOOO;;;;;;;;;;;;;;;;;;;;;;;;;;;;;;;;;;;;;;;;;;;;;;;;;;;;;;;;OOOO$$%%%%%%%%%%%%%%$$oo",
"XX>>>>>>>>>>>>>>>>>>>>>>>>>>>>>>>>>>>>>>>>>>XXXX<<<<<<<<<<<<<<<<<<<<<<<<<<<<<<<<<<<<<<<<<<<<<<<<<<<<<<<<XXXX,,,,,,,,,,,,,,,,,,XX",
"XX>>>>>>>>>>>>>>>>>>>>>>>>>>>>>>>>>>>>>>>>>>XXXX<<<<<<<<<<<<<<<<<<<<<<<<<<<<<<<<<<<<<<<<<<<<<<<<<<<<<<<<XXXX,,,,,,,,,,,,,,,,,,XX",
"  >>>>>>;;>>%%>>>>::%%::::%%::::%%>>%%$$$$@@  XX<<>><<,,%%>><<::$$$$::;;>>>>;;$$;;>><<>>;;::>><<<<>>::$$  XX,,<<>>::>>,,,,::%%  ",
"  >>>>>>;;>>%%>>>>::%%::::%%::::%%>>%%$$$$@@  XX<<>><<,,%%>><<::$$$$::;;>>>>;;$$;;>><<>>;;::>><<<<>>::$$  XX,,<<>>::>>,,,,::%%  ",
"  >>::%%;;::::::%%%%>>::>>##::::%%$$%%%%$$##  XX<<<<>>::::::$$::@@$$@@@@%%>>>>##$$$$##$$$$@@$$;;;;$$##$$  XX,,,,>>>>%%::>>>>@@  ",
"  >>::%%;;::::::%%%%>>::>>##::::%%$$%%%%$$##  XX<<<<>>::::::$$::@@$$@@@@%%>>>>##$$$$##$$$$@@$$;;;;$$##$$  XX,,,,>>>>%%::>>>>@@  ",
"  >>;;>>$$1111::%%%%%%::;;;;%%##@@%%$$@@@@##  XX                                                          XX,,>>,,<<<<,,>>%%%%  ",
"  >>;;>>$$1111::%%%%%%::;;;;%%##@@%%$$@@@@##  XX                                                          XX,,>>,,<<<<,,>>%%%%  ",
"  >>;;%%>>1111##%%%%%%>>::::::;;$$$$%%@@@@..  XX>>>>>>>>>>>>>>>>>>>>>>>>>>>>>>>>>>>>>>XXXXXXXXXXXXXXXXXXXXXX,,<<>>,,>>%%%%##@@  ",
"  >>;;%%>>1111##%%%%%%>>::::::;;$$$$%%@@@@..  XX>>>>>>>>>>>>>>>>>>>>>>>>>>>>>>>>>>>>>>XXXXXXXXXXXXXXXXXXXXXX,,<<>>,,>>%%%%##@@  ",
"  >>::::,,,,>>>>>>::>>>>>>::::$$$$##@@##$$##  XX>><<<<<<,,>>::::<<::::,,::::,,<<<<>>>>  XX>>>>>>>>::::##XXXX,,::::>>%%;;;;####  ",
"  >>::::,,,,>>>>>>::>>>>>>::::$$$$##@@##$$##  XX>><<<<<<,,>>::::<<::::,,::::,,<<<<>>>>  XX>>>>>>>>::::##XXXX,,::::>>%%;;;;####  ",
"  >>>>::>>,,,,>>::%%##>>>>::;;;;%%####@@....  XX>>,,<<3311,,>><<>>::::::,,,,>>>>>>::>>  XX>>::::;;::%%##  XX,,::::>>$$;;;;;;##  ",
"  >>>>::>>,,,,>>::%%##>>>>::;;;;%%####@@....  XX>>,,<<3311,,>><<>>::::::,,,,>>>>>>::>>  XX>>::::;;::%%##  XX,,::::>>$$;;;;;;##  ",
"  >>::%%::>>>>;;::%%::$$$$;;;;;;$$%%%%##@@..  XX>>,,11<<11::,,>>>><<::::>>%%>>%%::>>%%  XX>>::::::%%%%##  XX,,<<>>::>>>>;;;;..  ",
"  >>::%%::>>>>;;::%%::$$$$;;;;;;$$%%%%##@@..  XX>>,,11<<11::,,>>>><<::::>>%%>>%%::>>%%  XX>>::::::%%%%##  XX,,<<>>::>>>>;;;;..  ",
"  >>;;;;;;>>%%%%%%>>>>$$@@####$$##%%%%%%@@..  XX>>,,,,,,::::::,,>>>>>>>>::;;##%%%%%%##  XX>>>>::%%%%@@@@  XX<<%%%%::>>>>::@@..  ",
"  >>;;;;;;>>%%%%%%>>>>$$@@####$$##%%%%%%@@..  XX>>,,,,,,::::::,,>>>>>>>>::;;##%%%%%%##  XX>>>>::%%%%@@@@  XX<<%%%%::>>>>::@@..  ",
"  ::%%;;>>;;;;$$::>>>>$$$$##@@######%%%%@@..  XX>><<,,,,,,::::,,<<<<>>>>####;;%%%%##@@  XX>>>>::%%>>%%@@  XX<<%%<<>>%%::::@@..  ",
"  ::%%;;>>;;;;$$::>>>>$$$$##@@######%%%%@@..  XX>><<,,,,,,::::,,<<<<>>>>####;;%%%%##@@  XX>>>>::%%>>%%@@  XX<<%%<<>>%%::::@@..  ",
"  ::;;::%%%%>>;;##%%@@%%##@@##%%..@@....##..  XX>><<>>>>,,,,,,,,<<,,,,>>####$$>>####..  XX>>%%;;::%%@@@@  XX<<<<%%%%####%%%%..  ",
"  ::;;::%%%%>>;;##%%@@%%##@@##%%..@@....##..  XX>><<>>>>,,,,,,,,<<,,,,>>####$$>>####..  XX>>%%;;::%%@@@@  XX<<<<%%%%####%%%%..  ",
"  ::%%::%%##;;;;%%##%%##%%##..$$$$......##..  XX>>,,>>>>::<<::::>>,,,,>>::::%%%%@@@@##  XX>>;;;;;;$$$$##  XX<<%%$$##%%##%%%%..  ",
"  ::%%::%%##;;;;%%##%%##%%##..$$$$......##..  XX>>,,>>>>::<<::::>>,,,,>>::::%%%%@@@@##  XX>>;;;;;;$$$$##  XX<<%%$$##%%##%%%%..  ",
"  ::::%%%%%%$$##@@@@##%%##$$##....$$..##@@..  XX>>,,3311;;;;::::;;%%%%%%;;::;;%%####..  XX>>>>;;;;$$$$##  XX<<%%%%$$@@@@@@@@..  ",
"  ::::%%%%%%$$##@@@@##%%##$$##....$$..##@@..  XX>>,,3311;;;;::::;;%%%%%%;;::;;%%####..  XX>>>>;;;;$$$$##  XX<<%%%%$$@@@@@@@@..  ",
"  ::%%::####$$##%%##........................  XX>><<1111;;;;;;>>>>%%;;;;%%;;$$%%##@@..  XX>>%%::>>@@@@@@  XX                    ",
"  ::%%::####$$##%%##........................  XX>><<1111;;;;;;>>>>%%;;;;%%;;$$%%##@@..  XX>>%%::>>@@@@@@  XX                    ",
"                                              XX>><<>>>>::;;;;>>>>>>;;;;::####%%##@@..  XX>>>>>>::>>@@##  XXXXXXXXXXXXXXXXXXXXXX",
"                                              XX>><<>>>>::;;;;>>>>>>;;;;::####%%##@@..  XX>>>>>>::>>@@##  XXXXXXXXXXXXXXXXXXXXXX",
">><<,,>>,,>>>>>>>>>>,,>>>>>>>>  ,,,,,,>>>>::::  >>,,::>>;;::>>>>>>>>%%::::%%%%@@@@....  XX::>>::>>::$$##  XX>>>>>>>>  <<<<<<<<<<",
">><<,,>>,,>>>>>>>>>>,,>>>>>>>>  ,,,,,,>>>>::::  >>,,::>>;;::>>>>>>>>%%::::%%%%@@@@....  XX::>>::>>::$$##  XX>>>>>>>>  <<<<<<<<<<",
"<<,,>>::>><<,,>>;;>>>>%%>>::%%  ,,,,::<<<<%%<<  >>>>>>>><<>>::>>>>>>;;##$$%%....##@@..  XX::::%%$$%%$$@@  XX>>,,;;%%  <<<<>>,,<<",
"<<,,>>::>><<,,>>;;>>>>%%>>::%%  ,,,,::<<<<%%<<  >>>>>>>><<>>::>>>>>>;;##$$%%....##@@..  XX::::%%$$%%$$@@  XX>>,,;;%%  <<<<>>,,<<",
"<<,,::::;;>>>>;;%%::::%%%%::::  ,,<<<<,,::%%%%  >>,,::>><<>>;;%%;;;;##%%%%$$....##....  XX::::@@@@@@##..  XX>>,,,,%%  <<>>,,,,,,",
"<<,,::::;;>>>>;;%%::::%%%%::::  ,,<<<<,,::%%%%  >>,,::>><<>>;;%%;;;;##%%%%$$....##....  XX::::@@@@@@##..  XX>>,,,,%%  <<>>,,,,,,",
",,>>::,,,,::::%%%%%%::%%%%%%%%  ,,<<,,,,::::##  >>,,>>>>>>;;>>%%%%##$$$$@@@@@@####@@..  XX::%%@@##@@@@..  XX>>;;%%@@  <<<<<<,,,,",
",,>>::,,,,::::%%%%%%::%%%%%%%%  ,,<<,,,,::::##  >>,,>>>>>>;;>>%%%%##$$$$@@@@@@####@@..  XX::%%@@##@@@@..  XX>>;;%%@@  <<<<<<,,,,",
">>;;::,,<<,,%%%%::::%%::@@%%%%  ,,<<::%%::::##  >>>>>>::::::::%%##@@####@@####@@......  XX::%%##@@@@....  XX>>@@##@@  <<<<,,,,,,",
">>;;::,,<<,,%%%%::::%%::@@%%%%  ,,<<::%%::::##  >>>>>>::::::::%%##@@####@@####@@......  XX::%%##@@@@....  XX>>@@##@@  <<<<,,,,,,",
">>>>;;::,,22%%::%%%%####$$%%%%  ,,::<<%%%%%%##                                          XX                          XX<<<<>>>>::",
">>>>;;::,,22%%::%%%%####$$%%%%  ,,::<<%%%%%%##                                          XX                          XX<<<<>>>>::",
",,;;%%;;::>>::%%%%::##$$%%@@@@  ,,::::##%%%%@@  XXXXXXXXXXXXXXXXXXXXXXXXXXXXXXXXXXXXXXXXXXXXXXXXXX,,,,,,,,,,,,,,,,XXXX<<>>>>::::",
",,;;%%;;::>>::%%%%::##$$%%@@@@  ,,::::##%%%%@@  XXXXXXXXXXXXXXXXXXXXXXXXXXXXXXXXXXXXXXXXXXXXXXXXXX,,,,,,,,,,,,,,,,XXXX<<>>>>::::",
",,>>;;::%%::%%::::%%$$%%##%%@@  ,,<<::;;##@@##  XX,,,,,,,,,,,,,,,,,,,,,,,,,,,,,,,,,,,,,,,,::>>XXXX,,11,,11>>>>>>::  XX<<,,::::::",
",,>>;;::%%::%%::::%%$$%%##%%@@  ,,<<::;;##@@##  XX,,,,,,,,,,,,,,,,,,,,,,,,,,,,,,,,,,,,,,,,::>>XXXX,,11,,11>>>>>>::  XX<<,,::::::",
",,,,::;;,,::::::::%%%%$$@@@@@@  >><<%%;;;;##@@  XX,,<<,,>><<<<<<,,<<>>,,>><<,,%%>><<<<<<%%>>@@  XX,,11,,1111>>::;;  XX<<<<::::::",
",,,,::;;,,::::::::%%%%$$@@@@@@  >><<%%;;;;##@@  XX,,<<,,>><<<<<<,,<<>>,,>><<,,%%>><<<<<<%%>>@@  XX,,11,,1111>>::;;  XX<<<<::::::",
",,>>;;%%;;,,,,##%%::;;;;$$@@##  >>%%##$$$$@@##  XX,,<<>>,,113333<<2233>><<>>>><<<<>>>>>>>>%%@@  XX,,11111111>>;;%%  XX<<,,<<>>>>",
",,>>;;%%;;,,,,##%%::;;;;$$@@##  >>%%##$$$$@@##  XX,,<<>>,,113333<<2233>><<>>>><<<<>>>>>>>>%%@@  XX,,11111111>>;;%%  XX<<,,<<>>>>",
">>::%%;;>>,,,,>>::%%;;;;$$@@##  ::%%@@@@@@@@##  XX,,,,>><<222233<<332222,,%%>>%%%%>>%%%%>>@@@@  XX,,,,>>11>>;;>>##  XX<<<<<<>>>>",
">>::%%;;>>,,,,>>::%%;;;;$$@@##  ::%%@@@@@@@@##  XX,,,,>><<222233<<332222,,%%>>%%%%>>%%%%>>@@@@  XX,,,,>>11>>;;>>##  XX<<<<<<>>>>",
",,::,,::::>>,,>>##%%$$$$$$@@@@                  XX,,<<<<,,,,1111>>>>2222>>>>%%%%%%$$>>%%%%@@@@  XX,,11>>>>>>>>;;##  XX<<<<<<,,,,",
",,::,,::::>>,,>>##%%$$$$$$@@@@                  XX,,<<<<,,,,1111>>>>2222>>>>%%%%%%$$>>%%%%@@@@  XX,,11>>>>>>>>;;##  XX<<<<<<,,,,",
">>;;;;>>>>::>>>>##$$@@##@@....  XXXXXXXXXXXXXXXXXX,,,,<<,,,,,,>>>>>><<>>>>>>%%;;;;%%%%@@@@@@##  XX,,1111>>>>;;%%$$  XX<<>>>><<,,",
">>;;;;>>>>::>>>>##$$@@##@@....  XXXXXXXXXXXXXXXXXX,,,,<<,,,,,,>>>>>><<>>>>>>%%;;;;%%%%@@@@@@##  XX,,1111>>>>;;%%$$  XX<<>>>><<,,",
">>::;;>>>>>>::%%$$##@@####@@@@  XX,,,,,,,,>>>>XXXX,,>>>><<,,;;;;>><<,,%%>>>>%%;;;;;;$$$$$$@@@@  XX,,1111::::>>>>@@  XX<<>>>>,,,,",
">>::;;>>>>>>::%%$$##@@####@@@@  XX,,,,,,,,>>>>XXXX,,>>>><<,,;;;;>><<,,%%>>>>%%;;;;;;$$$$$$@@@@  XX,,1111::::>>>>@@  XX<<>>>>,,,,",
"::;;::;;>>>>%%####@@@@@@##..##  XX,,,,;;>>::;;  XX,,<<,,<<,,;;;;>>>>>>%%>>>>>>$$;;;;@@$$$$$$..  XX,,,,11::::::>>@@  XX<<<<::::%%",
"::;;::;;>>>>%%####@@@@@@##..##  XX,,,,;;>>::;;  XX,,<<,,<<,,;;;;>>>>>>%%>>>>>>$$;;;;@@$$$$$$..  XX,,,,11::::::>>@@  XX<<<<::::%%",
"::;;;;%%;;;;%%####$$%%%%##....  XX,,>>>>::;;::  XX,,<<<<>>,,,,,,::>>%%%%%%>>>>$$@@##@@##$$$$..  XX,,,,>>;;,,>>>>##  XX<<;;;;::::",
"::;;;;%%;;;;%%####$$%%%%##....  XX,,>>>>::;;::  XX,,<<<<>>,,,,,,::>>%%%%%%>>>>$$@@##@@##$$$$..  XX,,,,>>;;,,>>>>##  XX<<;;;;::::",
"::;;>>::$$%%%%$$##$$%%%%##@@..  XX,,>>::;;$$##  XX,,<<>>%%>>,,,,>>>>%%$$%%##$$$$$$@@....@@....  XX,,,,11;;,,,,::##  XX<<;;;;%%%%",
"::;;>>::$$%%%%$$##$$%%%%##@@..  XX,,>>::;;$$##  XX,,<<>>%%>>,,,,>>>>%%$$%%##$$$$$$@@....@@....  XX,,,,11;;,,,,::##  XX<<;;;;%%%%",
"::>>::;;;;%%####@@++++$$##@@..  XX,,,,;;,,;;@@  XX,,>>>><<%%>>>>::%%$$%%%%####$$$$##....####..  XX,,>>11>>;;::::@@  XX<<<<%%%%%%",
"::>>::;;;;%%####@@++++$$##@@..  XX,,,,;;,,;;@@  XX,,>>>><<%%>>>>::%%$$%%%%####$$$$##....####..  XX,,>>11>>;;::::@@  XX<<<<%%%%%%",
"%%::::;;%%%%%%%%@@++++@@@@##..  XX,,,,,,$$$$##  XX,,%%<<%%>>>>%%%%$$##%%%%%%####@@@@######++..  XX,,11>>>>::@@$$##  XX<<>>>>::::",
"%%::::;;%%%%%%%%@@++++@@@@##..  XX,,,,,,$$$$##  XX,,%%<<%%>>>>%%%%$$##%%%%%%####@@@@######++..  XX,,11>>>>::@@$$##  XX<<>>>>::::",
"%%;;;;%%$$%%%%%%@@@@##@@@@@@@@  XX,,,,,,>>@@@@  XX,,>><<%%>>>>$$####@@%%%%%%##@@@@@@@@++++++..  XX,,11>>::%%::$$@@  XX<<>>>>::;;",
"%%;;;;%%$$%%%%%%@@@@##@@@@@@@@  XX,,,,,,>>@@@@  XX,,>><<%%>>>>$$####@@%%%%%%##@@@@@@@@++++++..  XX,,11>>::%%::$$@@  XX<<>>>>::;;",
"%%;;##$$%%##%%%%@@##@@..@@##@@  XX,,::::@@;;##  XX,,>>%%>>>>%%@@@@@@@@########@@..............  XX,,11>>%%::::%%##  XX<<::>>>>%%",
"%%;;##$$%%##%%%%@@##@@..@@##@@  XX,,::::@@;;##  XX,,>>%%>>>>%%@@@@@@@@########@@..............  XX,,11>>%%::::%%##  XX<<::>>>>%%",
"%%::%%##%%##$$@@##....@@......  XX,,::::,,@@##  XX                                              XX>>,,>>%%##%%%%##  XX<<::;;;;%%",
"%%::%%##%%##$$@@##....@@......  XX,,::::,,@@##  XX                                              XX>>,,>>%%##%%%%##  XX<<::;;;;%%",
"%%;;::;;$$%%$$@@@@@@..##..@@..  XX,,,,;;,,;;@@  XXXXXXXXXXXXXXXXXXXXXXXXXXXXXXXXXXXXXXXXXXXXXXXXXX>>,,,,>>%%@@##..  XX<<<<;;;;%%",
"%%;;::;;$$%%$$@@@@@@..##..@@..  XX,,,,;;,,;;@@  XXXXXXXXXXXXXXXXXXXXXXXXXXXXXXXXXXXXXXXXXXXXXXXXXX>>,,,,>>%%@@##..  XX<<<<;;;;%%",
"%%::;;%%##$$%%$$..............  XX,,,,;;;;@@##  XX>>>>>>>>>>>>>>>>>>>>>>>>>>>>>>>>>>>>>>>>>>>>XXXX>>,,>><<>>%%##..  XX<<::::%%;;",
"%%::;;%%##$$%%$$..............  XX,,,,;;;;@@##  XX>>>>>>>>>>>>>>>>>>>>>>>>>>>>>>>>>>>>>>>>>>>>XXXX>>,,>><<>>%%##..  XX<<::::%%;;",
"                                XX,,,,%%%%@@@@  XX>><<<<<<<<<<<<,,>>>>>>>>>>>>>>::;;%%<<::>>%%  XX>>11>>>><<;;@@..  XX          ",
"                                XX,,,,%%%%@@@@  XX>><<<<<<<<<<<<,,>>>>>>>>>>>>>>::;;%%<<::>>%%  XX>>11>>>><<;;@@..  XX          ",
"XXXXXXXXXX@@@@$$$$;;;;;;%%$$##XXXX>>,,%%%%%%@@  XX,,<<1111<<>>>>,,,,11<<::::>>>>::%%;;%%;;::%%  XX>>>>>>>>;;;;@@..  XX;;::;;;;  ",
"XXXXXXXXXX@@@@$$$$;;;;;;%%$$##XXXX>>,,%%%%%%@@  XX,,<<1111<<>>>>,,,,11<<::::>>>>::%%;;%%;;::%%  XX>>>>>>>>;;;;@@..  XX;;::;;;;  ",
"XX::>>,,<<<<<<<<<<<<<<<<<<<<<<XXXX>>>>;;%%%%##  XX,,<<111111,,,,,,,,<<<<%%%%%%%%>>>>>>::::%%##  XX>>11>>%%$$@@@@..  XX::::%%%%  ",
"XX::>>,,<<<<<<<<<<<<<<<<<<<<<<XXXX>>>>;;%%%%##  XX,,<<111111,,,,,,,,<<<<%%%%%%%%>>>>>>::::%%##  XX>>11>>%%$$@@@@..  XX::::%%%%  ",
"XX>><<<<<<<<<<,,>>,,<<>>>>>><<  XX>>>>::@@####  XX,,<<<<<<<<2222,,,,,,%%%%%%%%%%%%::%%%%$$::##  XX>>,,;;$$##@@$$..  XX::%%$$$$  ",
"XX>><<<<<<<<<<,,>>,,<<>>>>>><<  XX>>>>::@@####  XX,,<<<<<<<<2222,,,,,,%%%%%%%%%%%%::%%%%$$::##  XX>>,,;;$$##@@$$..  XX::%%$$$$  ",
"XX>><<,,,,2222,,<<<<<<::>><<<<  XX>>::;;@@@@@@  XX,,<<<<,,<<222222%%>>::%%%%$$$$$$;;%%%%%%%%##  XX>>>>$$##$$@@@@..  XX::$$%%@@  ",
"XX>><<,,,,2222,,<<<<<<::>><<<<  XX>>::;;@@@@@@  XX,,<<<<,,<<222222%%>>::%%%%$$$$$$;;%%%%%%%%##  XX>>>>$$##$$@@@@..  XX::$$%%@@  ",
"XX<<<<<<,,2222<<::::>><<<<::,,  XX              XX>>,,<<,,<<<<2222<<>>>>::%%$$$$####@@%%%%%%##  XX;;%%%%@@@@@@##..  XX;;%%$$@@  ",
"XX<<<<<<,,2222<<::::>><<<<::,,  XX              XX>>,,<<,,<<<<2222<<>>>>::%%$$$$####@@%%%%%%##  XX;;%%%%@@@@@@##..  XX;;%%$$@@  ",
"XX<<>>,,>>,,,,,,::::::<<>>;;;;  XXXXXXXXXXXXXXXXXX>>>>,,11::::<<>><<>>>>>>>>%%%%####%%##@@++++  XX                  XX;;$$@@##  ",
"XX<<>>,,>>,,,,,,::::::<<>>;;;;  XXXXXXXXXXXXXXXXXX>>>>,,11::::<<>><<>>>>>>>>%%%%####%%##@@++++  XX                  XX;;$$@@##  ",
"XX<<<<,,::;;,,,,>>::::>><<<<>>  XX<<<<,,>>>>::XXXX>>>>1111::::::,,>>>>>>%%%%::;;$$####@@@@....  XXXXXXXXXXXXXXXXXXXXXXXXXXXXXX  ",
"XX<<<<,,::;;,,,,>>::::>><<<<>>  XX<<<<,,>>>>::XXXX>>>>1111::::::,,>>>>>>%%%%::;;$$####@@@@....  XXXXXXXXXXXXXXXXXXXXXXXXXXXXXX  ",
"XX<<<<::>><<,,;;>>,,,,,,%%>>>>  XX<<%%<<;;::;;  XX>><<<<<<,,::::<<<<<<>>%%%%%%%%######@@@@....  XX,,,,,,,,<<<<<<<<<<<<<<<<<<<<  ",
"XX<<<<::>><<,,;;>>,,,,,,%%>>>>  XX<<%%<<;;::;;  XX>><<<<<<,,::::<<<<<<>>%%%%%%%%######@@@@....  XX,,,,,,,,<<<<<<<<<<<<<<<<<<<<  ",
"XX<<<<<<<<>>;;<<;;,,%%%%>>;;>>  XX<<>>,,,,::%%  XX>>,,>>>>,,,,,,<<<<<<<<>>%%;;$$@@######$$@@++  XX,,,,>>>>,,,,,,,,>>;;<<>>>>%%  ",
"XX<<<<<<<<>>;;<<;;,,%%%%>>;;>>  XX<<>>,,,,::%%  XX>>,,>>>>,,,,,,<<<<<<<<>>%%;;$$@@######$$@@++  XX,,,,>>>>,,,,,,,,>>;;<<>>>>%%  ",
"XX<<>><<::>>>><<,,::%%++%%>>>>  XX<<<<%%>>%%$$  XX>><<>>>>>>::>><<<<<<<<>>>>>>@@@@@@@@##$$$$##  XX,,>>,,2222,,,,,,::>>>>>>::%%  ",
"XX<<>><<::>>>><<,,::%%++%%>>>>  XX<<<<%%>>%%$$  XX>><<>>>>>>::>><<<<<<<<>>>>>>@@@@@@@@##$$$$##  XX,,>>,,2222,,,,,,::>>>>>>::%%  ",
"XX<<,,::::<<33<<>>;;>>%%%%>>>>  XX<<,,>>>>%%>>  XX>><<<<>>>><<;;;;<<<<<<>>>>>>$$@@@@##@@++++++  XX,,<<<<221111,,,,;;;;>>::%%##  ",
"XX<<,,::::<<33<<>>;;>>%%%%>>>>  XX<<,,>>>>%%>>  XX>><<<<>>>><<;;;;<<<<<<>>>>>>$$@@@@##@@++++++  XX,,<<<<221111,,,,;;;;>>::%%##  ",
"XX<<>><<>>334433::::>>::;;%%;;  XX<<,,>>%%>>$$  XX>>>><<::::%%%%%%;;>>>>>>%%%%%%####@@@@@@....  XX,,::<<::1111,,,,>>>>%%%%%%@@  ",
"XX<<>><<>>334433::::>>::;;%%;;  XX<<,,>>%%>>$$  XX>>>><<::::%%%%%%;;>>>>>>%%%%%%####@@@@@@....  XX,,::<<::1111,,,,>>>>%%%%%%@@  ",
"XX<<,,<<,,<<33<<>>%%>>>>++++##  XX<<>>,,,,%%##  XX>>>><<>>;;;;%%%%%%;;%%;;@@@@::::$$$$@@++....  XX,,<<,,::::::>>>>%%%%%%%%@@##  ",
"XX<<,,<<,,<<33<<>>%%>>>>++++##  XX<<>>,,,,%%##  XX>>>><<>>;;;;%%%%%%;;%%;;@@@@::::$$$$@@++....  XX,,<<,,::::::>>>>%%%%%%%%@@##  ",
"XX<<>><<,,,,,,;;;;;;%%$$++++##  XX<<<<,,::;;##  XX>>::<<<<::<<%%%%;;%%%%;;%%@@::::;;$$$$##@@##  XX,,,,>>::::::>>%%$$##%%@@@@##  ",
"XX<<>><<,,,,,,;;;;;;%%$$++++##  XX<<<<,,::;;##  XX>>::<<<<::<<%%%%;;%%%%;;%%@@::::;;$$$$##@@##  XX,,,,>>::::::>>%%$$##%%@@@@##  ",
"XX>><<,,,,>>%%%%::>>::::%%####  XX<<,,>>;;;;%%  XX>><<::>><<>>;;%%$$$$;;;;@@@@%%::::%%$$@@@@..  XX,,,,::>>::::>>%%$$##$$%%@@@@  ",
"XX>><<,,,,>>%%%%::>>::::%%####  XX<<,,>>;;;;%%  XX>><<::>><<>>;;%%$$$$;;;;@@@@%%::::%%$$@@@@..  XX,,,,::>>::::>>%%$$##$$%%@@@@  ",
"XX<<>><<,,;;;;,,%%>>>>::$$%%@@  XX<<>><<%%%%%%  XX>><<>>>>>>::;;>>>>$$$$@@$$@@@@%%%%%%##@@@@..  XX,,,,<<,,;;,,,,::%%##::::@@..  ",
"XX<<>><<,,;;;;,,%%>>>>::$$%%@@  XX<<>><<%%%%%%  XX>><<>>>>>>::;;>>>>$$$$@@$$@@@@%%%%%%##@@@@..  XX,,,,<<,,;;,,,,::%%##::::@@..  ",
"XX<<>><<>>::;;%%##;;>>>>::$$##  XX<<<<>>######  XX>>>>>>::::%%;;>>>>>>$$##$$$$@@++++++##......  XX<<<<,,;;>>,,,,,,::%%::::%%..  ",
"XX<<>><<>>::;;%%##;;>>>>::$$##  XX<<<<>>######  XX>>>>>>::::%%;;>>>>>>$$##$$$$@@++++++##......  XX<<<<,,;;>>,,,,,,::%%::::%%..  ",
"XX,,>>;;;;;;>>##++##;;::::$$$$  XX<<,,>>%%$$@@  XX>>,,>>::::<<>>%%>>>>@@@@$$$$##@@....@@......  XX<<,,>>;;>>>>,,,,::%%%%%%%%..  ",
"XX,,>>;;;;;;>>##++##;;::::$$$$  XX<<,,>>%%$$@@  XX>>,,>>::::<<>>%%>>>>@@@@$$$$##@@....@@......  XX<<,,>>;;>>>>,,,,::%%%%%%%%..  ",
"XX,,>>$$##;;##>>%%%%::@@##@@@@  XX,,>>######@@  XX>>,,<<%%<<<<>>@@######@@@@++++++....++@@....  XX<<,,>><<>>>>%%;;$$$$%%%%@@..  ",
"XX,,>>$$##;;##>>%%%%::@@##@@@@  XX,,>>######@@  XX>>,,<<%%<<<<>>@@######@@@@++++++....++@@....  XX<<,,>><<>>>>%%;;$$$$%%%%@@..  ",
"XX>>>>;;;;##;;@@##@@##$$##$$##  XX,,>>;;$$####  XX>>>>,,<<>>%%::@@######@@@@....$$$$##..++..@@  XX<<<<<<::>>%%%%$$%%%%$$##..##  ",
"XX>>>>;;;;##;;@@##@@##$$##$$##  XX,,>>;;$$####  XX>>>>,,<<>>%%::@@######@@@@....$$$$##..++..@@  XX<<<<<<::>>%%%%$$%%%%$$##..##  ",
"XX>>::%%%%%%%%%%$$$$$$$$%%%%%%XXXX>>;;%%%%%%%%XXXX>>>>::>>::%%%%%%%%%%%%$$##@@@@%%%%%%%%@@@@$$XXXX<<>>>>%%::>>%%%%%%%%%%$$$$%%  ",
"XX>>::%%%%%%%%%%$$$$$$$$%%%%%%XXXX>>;;%%%%%%%%XXXX>>>>::>>::%%%%%%%%%%%%$$##@@@@%%%%%%%%@@@@$$XXXX<<>>>>%%::>>%%%%%%%%%%$$$$%%  ",
"OO;;;;;;%%%%%%%%%%%%%%%%%%%%%%OOOO;;;;%%%%%%%%OOOO>>11;;;;;;;;;;%%%%%%%%%%%%%%%%%%%%%%%%%%%%%%OOOO<<;;;;%%%%%%%%%%%%%%%%%%%%%%XX",
"OO;;;;;;%%%%%%%%%%%%%%%%%%%%%%OOOO;;;;%%%%%%%%OOOO>>11;;;;;;;;;;%%%%%%%%%%%%%%%%%%%%%%%%%%%%%%OOOO<<;;;;%%%%%%%%%%%%%%%%%%%%%%XX",
"******************************************************************************************************************************OO",
"******************************************************************************************************************************OO"
};
