/* XPM */
static char *_0371_49b7a18414e3810817eb18a256ebf04dfacdaa825cebd2a177dec1541f1fcc1f[] = {
/* columns rows colors chars-per-pixel */
"64 64 59 1 ",
"  c #06150F",
". c #071811",
"X c #091D14",
"o c gray9",
"O c #191717",
"+ c #111C17",
"@ c #151E1A",
"# c #1D1B1B",
"$ c #211E1E",
"% c #092217",
"& c #0B2519",
"* c #0B281C",
"= c #14241D",
"- c #1C221E",
"; c #211F20",
": c #0D2E20",
"> c #1C2420",
", c #152A21",
"< c #1A2922",
"1 c #0E3222",
"2 c #113625",
"3 c #103927",
"4 c #193328",
"5 c #123D2A",
"6 c #19392B",
"7 c #252323",
"8 c #292626",
"9 c #222926",
"0 c #282728",
"q c #232E29",
"w c #2C2B2B",
"e c #322E2E",
"r c #22352C",
"t c #2B322E",
"y c #30302F",
"u c #2C3531",
"i c #333232",
"p c #303935",
"a c #383837",
"s c #353C39",
"d c #3B3B3B",
"f c #423D3D",
"g c #13432E",
"h c #144731",
"j c #164B34",
"k c #1A563C",
"l c #1A5A3E",
"z c #3C423F",
"x c #1B5C40",
"c c #1D6445",
"v c #20714E",
"b c #434242",
"n c #494444",
"m c #464847",
"M c #4D4C4C",
"N c #4F504F",
"B c #545454",
"V c #5F5E5E",
"C c #606060",
/* pixels */
"0088ewbb00iennnbywwwywiaaa77eeeweiei08779897O#0000iaMMVVia00uiff",
"0w78eebb00eiMnfbwwwywyiiad;0ee0eeeii;0770077#O8800iaMMVVaa00ewff",
"iimmdaddee;80;wewwetuyNBee0;eiwwnbiiwwww0077;;$#wiiibznM0008$$wi",
"iumbddddww0w;;wwwwwwiyBNwi;8eiewbbiiwwww0077;7$#ieiufbmm0008$#ew",
"MMCCdfiiii8;;;;;880wddMMei88eeewywwwwwew0087;;O$0087piwwwwefieai",
"MMCCddiiai88;;;;88w0dfMMeewewweeww0ww0yy0887;$$$0w78aawe88eiieaa",
"MNNNaizdiidd8;$$$$77eee8;8;;ei00w000iiyyww;7;;$$87$$;$;7e8w8e8aa",
"NNNNaazdiiff;;$$$$77yy8w8;8;ie00www0iyyyew77;8$;77$$;;7;8ew808da",
"nMiiiazdMMfd07##$$88teqqiy778w0wwqwww0wwwe77;;;;;0;;00yy8e;;w8ai",
"mmiiiifbNMdf07##$$88w=**yy77w8w0www0ww0www;7-#;;80;;00wye88;8waa",
"aapiNMBBnn77$;;8ww8<%%*348777700wyww0e8w00##O###00wwiiayee;877ee",
"aaipNMBBMM77$;8;ww41*%*55q87788wyuww008800#-##-#77wwaiyaee8877ew",
"yybbMMnm887;wenmr53:3*&1lk$$7;770;;880w887O#oO;700wwyyyyii88770w",
"yabzMMnn88;7ewz633jjg3&&kl-$$787000;8www;8#Oo#-700wyyyyyii8877ww",
"w00w7;####07dq&:3hclgg1&,q#-OO$$;###;00008O###ww00wwyyytiyeu8779",
"0www7;##O#0>+%&2g5kcl3g**==2OO$$;;#;88ww87OO##w000wwyyyeyyie7880",
"wwiinfee7$$$X&355jccc511*151=#iidbMN00ddw088$$ww00wwwwyywyyi00;;",
"00einnee;;$;,gggxccl3*1*153:&#iibbNM0wddwe;;$$e8w0w0wwyyuwiy0;;;",
"0eiiaaii#7#&*53jvcj1111%*13*&+88wwyyuidzdd80$$$$970qwwiiwwww8;ew",
"e0ieafii7##&&%*1xxh3113**13,@@97wwyyiifzdd8;$$$$08wwwwyiwywy;;8w",
"wuiieieeww>>..&X*lj1*111*:*&&#samzbbaawwiiye;$$$7707w0ww8w8e;;ff",
"uwiiiieeww77-+;..,&*:*:1*&&&@;pdbbzbaaewiiww;;$$7777w0ww8888$$ef",
"w0yyiywwww00;;;-$7*=>&*&X&&77-pdNNNBddddai78;;8;yi7007;7ew88;8;;",
"wwyyyyywwww0-;>@$$#$0=i>%>77;>idNMBNddddap87;;8;yy777778we888;88",
"wwwwwwyy00;##;77778w88w888888;fabbBBzdaie8$$$;aiwe00wwwwew7$$$8w",
"wwywwwyw00#;;#77778800w888e8;;ffbbBBddiae8$$;$aaw0wwwwwwew$7$$ew",
"yyyyii00##ooo#;0ww777>0;88e888webbBBMMii88$$wwfafdaaiiyiey77$$ee",
"iyywii00o;oo##7;ww$$;>;088ee88eedbBBMNii88$Owwaaddiiaiyyyy77#$ye",
"ww00;;oooooo##;;80iaddyy;8dde088ffie;;;0;8$$bbfzuywyywyyiae8$$0w",
"ww00;;oooooo;#;;88aaaayy;8ddwe;;ffff;;0;;;$$bbzfiitwyytwai8w$7w0",
"o#;;;###00;;oo;;97iiBNmmwwiye0nnee;;880w88iiBBMMwewwyweyBBii88##",
"oo;;;#;#0;;;oo0097ddNBnm0wieeennee;;;;w;;;iiBBMMyywwwetiBBiiw8#$",
"eeii07778777O#8800aiMMVVadw0eeffww77yybb88ifnnbbewwwewaiaa0;ieee",
"eeii77977877##0800aammVVaa00wwff8w0;yyzbw8einnfbwwwwewiaaa0;eeew",
"nbyyweww00777;##iiiwbbMM0078$$eeiinmdaddwe88;;iwwwywieNBww70eeww",
"mbaywwww0087;7#Oyyeizfnn0087#$eeiinnaaddwe8w;;eewwwyeeBBwy77eeww",
"wwww00iw0087;7#$0008iawww8iiiiaaNMCCddiiai;8$$$$00wwddMMiew0ewww",
"wwww00wiw077;$#$0078ifeww0aiiiiaMMCCbdiiii0;$$;$00wwddMMeew0ee0e",
"0w0wiiiuww>777#$77-#$$7$8ew80wadNNNNiadfiidf;;$$-;;;ii0w;8;7ie0e",
"ww00iiiuww7777$#78-;7$$$e88e00aaNMNNaifziedf8;$$#;77ie888;7;ee0w",
"0www00wwew77;;#777;788wi8e7788aammiiiibdNMss;8;$$$08weyyie888800",
",,0w0wwwww77#;77777;80weww$700iimmiiiizdNMss0;;;$$88ewytei;88w00",
",<ww000000###o##88wwaiiiye7887widiaiMmBBmm77;;;0tw880000880;77w0",
":X&&@,0000######87wwpiiiee8779ewidiiMdVBMM77;;;;eww000888088900w",
"&**%@,000;#Ooo;>00wtiiyyii98;7e8iibbMmbm00;;iwbmyt99&&X%wt-$7$77",
"%%::hh&w77##oo0;00wwiyyyii8887weiibbMMbb00;;eebmii99%&XXww$$7799",
"%%::hh&&;0OO;#wq00wwwyeweiei7788w0tw;0##O#;0ddiyw0==*2hh*&$$OO--",
"&***:::*0;#O;#0w00wwyyyyeeie78;8w0ww;;####0;iiew0w=,2*hh*&$$OO>>",
"%***1:**ww77#$www0w0wtwyuyyi88$$8wiifnwe;;;;;>w7==****1***$$..tt",
"********&&78#$ww090wwwyywyiy88$8e8ianbee;;;;7;0w==&&&*11**$$..ii",
"***&&****&00$$$$000wwwyywyww;8e88eeiaaai;;##;7XX11*****&***&#$00",
"%%****&*&&&&$$$$000wwwayyyww;$8;e8eiaaia;$;;;;XX11**&*******$#90",
"%%***&&&&&&*$#$$7707w0ee00w0;;afeeeiiiyyee$7-#XX%%%&****&&&&%&aa",
"%*&*&&&*%&ww#$$$7;70000eq0w8;;afewiiyiywew$7--XX%%&%*&**&&&&&&aa",
"&&&&*&&&%%77$$77ei0;;00;ew08;8;8wwywiywwww08XX..&&&&&*&*&*%%@Xzf",
"***&**%%ai78$$87ei000;;;ww88;;88wwwyyiyiww0qXX..&&%&&&&&&&%%++bd",
"**&&*&%Xwy#$$$idwww0wwwwee8;;#we0wwwwwyy00--XX..*&**&&**%%++77fd",
"&&%&teaaew$#$$diwe0ww0ww8e;8O;w0wwywwuyw00##XX..********%&@+$7dd",
"&&&&ssii88#$wwdazdpiiaiyei;;;$eiyyywii00@#@@##..%&&*X%7700ew88ew",
"bbBBMMii88$$wwaddziiaiieei;;O$iiyyyyiy00##@>##.X*%**%%7700we88we",
"fbia$$8$$$$$bbdbyyyyyywyaa8w;;e0ww00;;o@oocc;-##..  dauy=#ttee77",
"bdai$$88$$$$bbfdyuwwwwywai8w;;0eww00;;oooocc##;-..  adiy@@tie878",
"ee$$8788;8eiBBMMwywwywyeBBii;w###o;;#;;#77;;#o9700paBNnm00eyeefn",
"ee$$$78888iiVBMMtywwyyiiBB>>00;;oo;;####77;#oo7777aaNNmnwweeeenf"
};
