/* XPM */
static char *_186_7ccb79692de97dd517e5801a7d714546dd3e656eb8925c5f1fe734a9ff94b552[] = {
/* columns rows colors chars-per-pixel */
"64 64 74 1 ",
"  c gray9",
". c #191717",
"X c #1D1B1B",
"o c #211E1E",
"O c #1B1E20",
"+ c #211F20",
"@ c #0E282F",
"# c #162123",
"$ c #1C2224",
"% c #12262B",
"& c #1C2528",
"* c #13292E",
"= c #1C282C",
"- c #002A35",
"; c #0D2C33",
": c #002F3A",
"> c #142D33",
", c #1B2C30",
"< c #01323E",
"1 c #0E333D",
"2 c #1E3136",
"3 c #13323B",
"4 c #1C353B",
"5 c #252323",
"6 c #292626",
"7 c #212729",
"8 c #282728",
"9 c #24292C",
"0 c #2C2B2B",
"q c #322E2E",
"w c #30302F",
"e c #262F31",
"r c #2B2F30",
"t c #233135",
"y c #29383C",
"u c #333232",
"i c #383837",
"p c #33393B",
"a c #3B3B3B",
"s c #423D3D",
"d c #003643",
"f c #003846",
"g c #0F3A44",
"h c #003C4A",
"j c #113740",
"k c #1B3B43",
"l c #2D3F44",
"z c #1A414B",
"x c #004253",
"c c #0B4350",
"v c #004A5C",
"b c #274046",
"n c #324145",
"m c #394649",
"M c #004F62",
"N c #005265",
"B c #0C5060",
"V c #00556A",
"C c #00596F",
"Z c #005C73",
"A c #00657D",
"S c #434243",
"D c #494444",
"F c #454A4B",
"G c #4D4C4C",
"H c #4F504F",
"J c #545454",
"K c #5F5E5E",
"L c #606060",
"P c #006E88",
"I c #00809F",
"U c #0089A9",
"Y c #0090B2",
"T c #009BC0",
/* pixels */
"8866qrSS80uqDDDsw000w0iiii55iqq0qquq65556556 X6880iuFGKKii88wwss",
"8056rqsS60uqDGsS0000wwpuii55qq6qqquq6655675$XX6688iiGGKKii88wwss",
"uuSFiasaq06655r000w0wwHHqq55uq0qDSuu0090805555XXwwwwaSFD8866Xow0",
"uuSSiiaa006655r00000wwHJ0w55qu00DSuu000088555oXXwwwwSsFF8866oXww",
"GHLLaluuqi55oooo0600aaGGww66qq000q0008qw8055o5XX0857iiw06qqqwuii",
"GGLLssuuii55oo+o6600aaGGuqq60000008009qr8655oooX8055ui0w06usquui",
"HGHHiulsqqaa55oooo55qq605555qwq68080uuur005555Xo65ooo+5o6q0666si",
"HHHHuissuuas55ooooo5uw08555oqw608088uuru0woo55oX55ooo5o5q60066ii",
"FFuuiussGGas55Xooo66w0ttww55068800090600ww+5++55555+86qq665566ii",
"DFuuuunsGHas65oXoo6601xxww556080000098090055+o++55+5660w6q5o66iu",
"iiuuGGKJGD55oo+50w84<<xNz86565880r00806688XoX XX5800iuuiqq6655w0",
"iuiuGHJJFF56o+5+wtcvx<xVV4556586ww00800688o. XXX580ruuuuqq6655ww",
"uumsGGDS665+q0FDzVVMNx<MIPoo55568655666q55.X .558800wwwwiw665500",
"uusSGGDS66+5qqmBNVAAZNxfII,o55558655600665X. X$+880wwwwwwi605500",
"80w05+XXXX65akhvNAUIAZvxx2##..ooX+XX550065.XoX008800wwwwwwww5557",
"00005+X.XX67<dhvAZIIIZVxx3gc..oooXXo650056..XX808800wwwwwwww5656",
"06uuDDqqo5o$:xVCVPIUUVvvxMNM>XuusmHH09aa0055oo00800900ww00uw665+",
"06uiDsqq5ooocAZAIYYIVvvxvVVxfOuusaHH90aa0055oo0008000wwwwrww856+",
"00wwiiuu5o+ffVVPTYANMvv<xMNxx@58rwwwwwasaa66oooo568800wu00005o66",
"06wuiiqso$#<<fxvIIAVvNVxxvNv##=500uwwussaa65oooo787000uwww0w5506",
"rruuquqqwe$&--x<xIAxxxvvxxxf<$ipSmsSii00uu80oooo555880000066ooss",
"qruuqu0q005+%@o--cxxxxxvxf<f;+iaSssSii0wui00oooX557508006806oosu",
"08rquqr00008oo+&Xox*>xxf<x155>baHHJJaaaaui68o+55ww8655550066o6oo",
"00qrwurq0080++&,5ooX84w>f>55+=naHHJHaaaaii55oo65ww5655550q666o66",
"000000rq88$X+o7=5566660066666osamsJJaaiuqqooooii00066000qq55XXq6",
"000rr0r088+Xo+55550068606666o6asSSJJaSuiq6ooooii0000000w005oXo0q",
"wwu0uu86XXX X.55005oo5&566qq660qsSJJHGuu66o.60iasaiuiuwwqw55oXqq",
"wuqruw69XX  ..5500oo$555066q660qSsJJGHuu66oo00iiaauuuiwwww55Xowq",
"006655X     X+Oo86iiiiww55aaq666ssiuO+55o5ooSSssuwr0w0w0ui06o560",
"0r605o      oX++66iippww55aaqqooSDuu++55ooooSmsauw0rw00wii605o00",
"..++XXXX65++  5555iiHJDD00wwq0DDwqoo656056wiJJGGw000wwwwJJwi66XX",
"..++XXXX55++  5557iiJHDF00ww0qDDqqoo656956uwJJGH0wwrw0wwJJwi66oX",
"qqwu556$5655XX8688iuGGKKii60w0ss0658wwsmq6qqDDSm0000q0iuii65qqqq",
"uwuw75555555XX8686iiGGKKii88qqss6055wwSs66quDGsSq000qquiii56qq0q",
"DDuuw00088555oXXwwwwsSFD8866oXqquwDDiiaa006655q0000qwwJJ0055qqq0",
"SDuw0008805555XXwwwwSaFD8865XoqquuDFaaaaqq66550q00w0qqGJrq55qq00",
"000806ww8855++XX0655ii6000wuuuiuHGLLasuuiu55oooo8800aaGGqq08q000",
"0w000eww8055ooXo0055iiqq08iuuwiiGGLLasuuiu55oooo7806aaGGqq08qq00",
"8080uuwr005555oo55++oo5oq66688aaHHHHiuasuuaa55oooo55ww065555uq08",
"0808uwww00555+oo55++oo556q6q08iiHHHHuisnuuaa55oooo+5ww00+555qq80",
"000087080w55oo++55+588wq065566iuFFquuusaHGnn65Xooo66w0wwqi550q66",
"gg0000000w55oo5+565+880q065566uiSFiuuuamGGnn56XX5+560w0wqq556686",
"gg00808888XX  oX5500uuuuww6655w0uiuuHFJJGD+5oX550008680808556508",
"x<x<1;8888XX XoX5800iiuuww6665wwiiuiJmJJDG55oo55w050880958569980",
"<xxf;;w065XX..+&58w0wwwwiw76o5q6uumsGFDS665+weFSwwt2hf<<00Oo&955",
"x<xvAAx655X.. 55880wwuwwwi66550quuSSGGDs06+50wSFww22ff<<w0oo5+t=",
"<<xxAA<x=7X.oX088809wrwrwwqu556598005+XX.X55aaw00011xxAAhho+  ==",
"fxfxvxxx58..XX808800wwwwwquq5656800w55XoXX65ppww0011vvAAhf++ X=*",
"x<xxvvxx8655o.00880000wwr0wu65ooq6qiDDqqo55o&&8811fffxxvxhoo--yb",
"<x<xfffxfx55ooq0090800rrrwwu66o666uuDsqwo5oo+58011ffxfvvxxo+--uu",
"xxxxfxxfff66oooo658800uuw00r55660quuiiuuoooX55::vvxxfxfxfffhoX68",
"<<x<xx<xfxfxoooo680900uu0ww0556506wqiiiuooXXo5::vvxfxfxfhxhhXX85",
"<xxxfxff<xx<oooo555608068806ooisq0uuuuww0w5o&&:<<<ffxffxxfxffxii",
"x<<xx<xff<0qo.oo5657860q8080ooisqquuuwwr00$5+&<<<ff<fxxfffffffii",
"<<x<ffxx<f55oo55ww6655650q565555800wwuw00080<:--fffxxfxxfx<f;@sS",
"xxfxxf<<ii555o55ww5655550066555500wwww0w0008<<--fxffffffffff;;as",
"hhhhhhddwwXoooii0w800800qq55oX00000r00qr88oo<<-:hhhhhhxhff@@56ia",
"hhdfyyii00oXooii0r080000qqooXo0000q0r0rq88oO<<--hxhhhhhh<f@*6osa",
"hhffnniq66oo00ipsapuuuwwqq55oXuqwwrruu88XX@@..<:hhhhdd5505w0660q",
"sSJJGGuu66XX0wiiaauuiiuwwqo5Xowuwwr0uu86X.%*.X::hhhhdf5580006600",
"Ssuioo655oooSSsaww0wrq0rii685o800066++ X  YYOX++----aiww%%yyqq55",
"sSuioo55ooooSSaSwuw0qrw0ui00o508r0865+    YYX+XX----iauq&%ypq056",
"qqoo556666uqJJHG0w000wrqJJwu66XX.Xo5XXXX55++  6555iiJHSD88wwqqDs",
"qqoo566665qiJJGGqwr00ruuJJj360XX. o5OXXX55++  5555iiHHFF00wqqqsD"
};
