/* XPM */
static char *resize_bricks[] = {
/* columns rows colors chars-per-pixel */
"65 65 225 2 ",
"   c #571E11",
".  c #4C2D1C",
"X  c #452617",
"o  c #5E2315",
"O  c #542D13",
"+  c #5C2B15",
"@  c #5C271A",
"#  c #512F1E",
"$  c #5E281B",
"%  c #542014",
"&  c #4F301F",
"*  c #52311E",
"=  c #5C351C",
"-  c #5B3216",
";  c #4C270F",
":  c #622516",
">  c #632619",
",  c #632A1B",
"<  c #6B2D1D",
"1  c #632917",
"2  c #712F1E",
"3  c #62371B",
"4  c #6E301E",
"5  c #65391C",
"6  c #6B3D1E",
"7  c #603315",
"8  c #70301F",
"9  c #703F1F",
"0  c #553322",
"q  c #593723",
"w  c #5C3A25",
"e  c #563B2B",
"r  c #5D3D2A",
"t  c #4F2F20",
"y  c #6A2E20",
"u  c #623A23",
"i  c #693F23",
"p  c #623E2B",
"a  c #6B3D2C",
"s  c #6B3224",
"d  c #743421",
"f  c #7A3624",
"g  c #7D3A26",
"h  c #7D3B2A",
"j  c #73392A",
"k  c #70401F",
"l  c #5B402F",
"z  c #5D4331",
"x  c #6E4122",
"c  c #65422C",
"v  c #6A452D",
"b  c #6C482E",
"n  c #754524",
"m  c #7A4723",
"M  c #7D4925",
"N  c #72462B",
"B  c #74492E",
"V  c #7C4B2B",
"C  c #784729",
"Z  c #634533",
"A  c #6A4631",
"S  c #6D4A33",
"D  c #664938",
"F  c #6F4E38",
"G  c #724C34",
"H  c #7A4D33",
"J  c #714E39",
"K  c #734A34",
"L  c #745035",
"P  c #7E5136",
"I  c #74523B",
"U  c #7B543C",
"Y  c #7B583E",
"T  c #68503F",
"R  c #7B5640",
"E  c #7D5A43",
"W  c #7C5D49",
"Q  c #755A48",
"!  c #7E614C",
"~  c #7A6350",
"^  c #823C26",
"/  c #893C27",
"(  c #823E2A",
")  c #8B3E2A",
"_  c #834C25",
"`  c #894E25",
"'  c #86412B",
"]  c #8B442C",
"[  c #824E2B",
"{  c #8C492D",
"}  c #874126",
"|  c #92442C",
" . c #924A2F",
".. c #954528",
"X. c #855127",
"o. c #85512C",
"O. c #8A532C",
"+. c #885027",
"@. c #8C4531",
"#. c #8E4933",
"$. c #804F30",
"%. c #924631",
"&. c #924B34",
"*. c #934E39",
"=. c #984B32",
"-. c #845334",
";. c #8A5531",
":. c #8C5932",
">. c #845539",
",. c #8A573A",
"<. c #85583D",
"1. c #8C5B3C",
"2. c #925B35",
"3. c #95513A",
"4. c #98523C",
"5. c #925E3D",
"6. c #945035",
"7. c #91512D",
"8. c #95623E",
"9. c #8F603D",
"0. c #825B43",
"q. c #8D5D41",
"w. c #815D4A",
"e. c #8A5643",
"r. c #925E42",
"t. c #8D6043",
"y. c #82634D",
"u. c #8D684D",
"i. c #946244",
"p. c #9A6544",
"a. c #976847",
"s. c #9C6946",
"d. c #966648",
"f. c #9B654B",
"g. c #9C6B4B",
"h. c #976948",
"j. c #9E704E",
"k. c #826451",
"l. c #8A6552",
"z. c #846952",
"x. c #8C6A55",
"c. c #8D6C5A",
"v. c #9D6D51",
"b. c #916C5A",
"n. c #976952",
"m. c #8E745C",
"M. c #897057",
"N. c #9C7255",
"B. c #92745C",
"V. c #9B755B",
"C. c #A36A46",
"Z. c #A26D4C",
"A. c #A86D4B",
"S. c #A4714E",
"D. c #AA724E",
"F. c #A36652",
"G. c #A36D51",
"H. c #A86D59",
"J. c #A57251",
"K. c #A97551",
"L. c #AC7954",
"P. c #A27659",
"I. c #A4795C",
"U. c #AA7C5D",
"Y. c #B07752",
"T. c #B3714D",
"R. c #8D7761",
"E. c #957B64",
"W. c #9A7D63",
"Q. c #957A65",
"!. c #A37C64",
"~. c #AA7D61",
"^. c #A87F68",
"/. c #B47F65",
"(. c #9F8165",
"). c #97816B",
"_. c #9A836D",
"`. c #9C8671",
"'. c #9E8A73",
"]. c #9F8F78",
"[. c #AC8262",
"{. c #A4846A",
"}. c #AA846C",
"|. c #AA896D",
" X c #A4876B",
".X c #B18464",
"XX c #B28867",
"oX c #A08671",
"OX c #A28B75",
"+X c #AA8C74",
"@X c #A38E79",
"#X c #AA8E79",
"$X c #B38E73",
"%X c #A5937C",
"&X c #AB927C",
"*X c #AD9076",
"=X c #B4947B",
"-X c #B9967B",
";X c #C0987D",
":X c #A79681",
">X c #AB9681",
",X c #AD9A84",
"<X c #AF9E88",
"1X c #B19C85",
"2X c #B29E88",
"3X c #B59780",
"4X c #B1A08A",
"5X c #B3A38D",
"6X c #BAA38D",
"7X c #B6A591",
"8X c #B6A691",
"9X c #BCA692",
"0X c #B7A893",
"qX c #BAAA95",
"wX c #BCAE9A",
"eX c #BEB19C",
"rX c #BFB4A0",
"tX c #C2AC96",
"yX c #C1B19D",
"uX c #C3A188",
"iX c #C4B5A2",
"pX c #C5B8A6",
"aX c #C8B9A7",
"sX c #C9BCAA",
"dX c #C6BAA8",
/* pixels */
"0X0X6XwXyX0X0X0X2X2X4X4X4X2XiXiX:X:X<X<X4X7X<X<X<X<X5X<X7X0XwXwX7X7X5X5X5X<X:X<X<X,X:X<X<X7XeXsXyX,X0X0XqXqXqXqXqX0X2X2X2X2XqXqXqX",
"{ { @.%.;.@.%.@.] @.%.{ &.=.tXpXQ c S I I R R R R U U I F R I F F R R R R Q R R I R F J K I B.sX3Xd j { { &.@.@.6.@.&.&. .{  .{ ] ",
"' ] ( ' ' ^ ' } ( ( ] ^ / / 2X0XD X r A A A F S F F S F S A S S A A A A A F A A A A A p c c b.dX_.+ f g ' ' ] ' ' } ' ' } } ' ^ ' ",
"] ' ' { ' ' ' ' { ] ( g ( / uX2Xz 0 r A A A S F A A S A A Z F F S S F S A A A F F A A A c c x.yXE.o f g ' ' } } ' } g ' ] ' ] ] ' ",
"{ ] &. .@.7.{ { { { { ' ( ) uX4XD 0 r Z F F J I F F J I I I F F I I F S F I I F J J K S A c x.pXE.: f ^ ] { { { { ] ] {  .] } { { ",
"&.6. .&.6.6.@.&. .&.] ' ( | 0X4Xz 0 c S I I I I I I I I I I Y Y I I I Y I I I I I I I F A A M.iXE.> g { { &.&.&.{ =.6.&.&. .&.6.3.",
"&.{ @.{ { &.{ @.{ &.@.] / / tX2XD 0 A S F F F F J I J I I I I I I I I I F I I I I J J S A c z.dXR.> g } { { &.{ ] { &.&.{ | ] @.&.",
"] { ' ' ' ' { } { @.] ( ( / 2X4Xz 0 r A F S A S J F J F S S S S S F I S Z S F F F F F A A A x.iXE.: f ' ' ] ] ] } ] { ] ] { { ] { ",
"f g g f g g g ^ M } h f d f 2X,Xz # w c A p p A A A c A Z c c c c c c r p p p c A A A z r p y.iXQ.  y f ^ ^ g f ^ g f h ^ g f f 8 ",
"+ : < < , , < < 4 4 < < , < 2X4Xz X t 0 e 0 0 0 t 0 q q w 0 0 * 0 t 0 0 0 # t 0 0 t 0 t 0 q W eXR.    y < < 4 < , 4 < < < , + : , ",
"`.'.@X%X%X%X%X%X%X'.%XoX,X6XyXyX%X%X%X#X%X:X@X@X@X:X%X#X:X:X%X'.`.`.'.:X:X%X].].@X:X:X:X,X4XwXaX0XOX#X:X,X<X2X2X:X:X:X:X:X:X:X@X@X",
"wXoX'.#X#X#X%X+X#X#X#X@X#X3X3X=X%X#X*X%X@X#X#X#X#X@X#X%X#X%X*XqXiX:X`.@X#X*X%X#X%X#X#X@X%X=X-X2X*X#X*X*X=X%X%X3X=X=X=X#X=X#X#X=XsX",
"qXc S -.1.8.8.8.8.8.1.9.1.1.1.1.8.8.9.8.8.8.8.8.5.8.8.8.1.1.2.$XsXR.e A U R 0.<.0.>.0.<.<.R <.U R R I 0.Y 0.R U 0.R 0.U U U U q.sX",
",X= 4 n M +.O.o.o.O.V o.V M M X.[ o.[ O.7.;.O.O.o.O.O.[ M M _ |.rX~ X q p A c S S A S S S S K c A A N c b b A A K K A A p c a I dX",
"%X* = x V 1.:.o.V o.V V o.V V V [ -.[ -.[ [ [ -.[ [ o.-.V C M |.iX~ X p p c A S S S c S S S b c c c A A S S K c A A A A A p p J iX",
"'.- c V ;.:.:.o.1.;.;.-.:.o.V o.o.o.o.[ -.o.o.;.;.;.;.;.[ [ _ |.rX~ t c A J K K S S S S K S S S K S F K K K K K S A A A S p a I iX",
"%X= u V ;.:.X.:.:.:.;.:.1.X.X.o.:.O.;.:.;.:.o.o.@.1.:.o.[ [ X.|.iX~ # p A D J K S F K J I J K K H L K S S L I K S S S S S c c J sX",
"%X* x x V P V V V o.o.:.:.o.o.o.o.V o.:.;.o.-.-.;.;.:.o.V M M  XwXW X p A A K D S S K K K a D D K S S I I K K S S S S S c p p J pX",
"'.O = x V B V V C C M M x V C B V B C V V o.o.V V [ [ H n C x (.wXQ X q p u p p A c A p p p p p c A c c c c c c c c c c p p q A eX",
").. O = = = 3 k x = = 7 = 3 = x 3 = = 6 x 6 x 3 6 i i u 4 = = (.eXQ X X # t 0 0 & 0 t t 0 t t t t X 0 * 0 q 0 0 0 0 0 0 # X 0 p qX",
"%X~ Y ! y.z.y.z.y.! ! y.y.~ ! ! W W W w.! y.y.! w.l.w.w.w.w.l.>XwXR.Q ~ ~ ~ k.w.! ! k.! w.k.k.W ! ! W Q ! ! ! ! k.~ z.k.k.! k.R.iX",
"0X%X%X%X%X%X%X%X].'.OX%X+X].%X+X`.`.OX:X%X%X%X+X>X>X,X:X:X>X7XyXwX:X:X,X,X,X>X,X:X:X%X,X>X1X<X<X%X'.%X@X'.@X%X%X:X:X%X:X%X%X<X6XiX",
"XX[.[.XX[.XX$XXX[.XX[.[.[.[.tXqXw.e.r.f.f.v.n.f.H.H.F.F.n.n.H.H.H.F.f.f.n.H.F.F.v.F.f.f.H.F.^.sX4Xu.V.[.[.[.XXXX.X.X[.[.[.[.^.[.|.",
"C.s.S.C.S.D.Y.Y.Y.A.A.A.S.D.tXqXa > f ( / ] @.@.) =.) e.) ) ) *.) @.@.) ) ) ) ) ) ) @./ ) ) H.sX%XH r.s.C.S.S.D.S.D.A.C.C.C.C.g.S.",
"s.j.j.S.j.j.S.S.j.g.s.g.s.D.tX4Xa y s f ) ) @.) ) ) @.@.*.@.@.) @.@.@.@.@.@.' @.) ) #.) ( ) H.rX#XK 9.i.j.j.S.g.C.S.s.C.s.8.s.s.g.",
"S.S.j.Y.S.J.K.K.j.S.S.g.s.A.6X%Xp y f ) ) ) @.e.@.e.*.e.=.=.*.*.#.*.4.*.3.@.&.*.*.=.*.) h ( H.rX).B <.h.j.Y.S.S.S.J.K.S.S.S.D.j.j.",
"K.K.K.Y.L.L.L.L.K.Y.S.j.s.D.tX,XD s ( #.) e.e.4.4.e.e.=.*.e.*.*.*.*.4.4.4.4.*.3.4.4.e.#.( ) H.dX(.B 9.j.K.Y.L.K.K.U.Y.K.[.[.[.D.K.",
"K.K.K.K.J.L.L.L.K.L.L.s.s.D.tX4Xa s ( #.=.=.=.e.4.) e.=.*.*.*.*.*.*.*.*.3.4.*.*.e.4.*.#.) #.H.dX_.K 9.s.K.K.L.L.U.[.Y.K.D.D.D.[.K.",
"K.j.K.j.S.S.S.K.K.j.S.h.s.C.tX4Xa y h ) e.) e.) ) =.*.) @.e.@.@.#.&.#.@.@.*.*.*.#.#.#.#./ ] F.yX).B 1.s.C.J.J.D.K.D.S.J.D.K.j.K.S.",
"s.a.g.h.h.h.g.d.s.h.t.q.1.i.0X2Xs y y h ( ( ) ) @.) ( ) ( ( ( ( h ( ) ( V ( @.( ) ( ( ( ( ^ d.eXE.c >.t.p.p.g.s.s.h.g.h.8.8.a.8.t.",
"L P :.>.>.-.-.-.:.:.L K K H 2X2Xs   > y s y y 2 y y y y y y < < y y 2 2 2 s s s 2 2 2 < < < e.qXm.c B H L -.-.-.-.U -.-.L B L B V ",
"M.m.E.m.E.E.W._.).B.E.R.E.#XwX4XR.~ l.l.l.l.l.l.b.l.l.b.l.b.b.l.w.l.b.b.n.b.l.b.l.b.b.b.b.R.%XeX#Xx.B.B.E.E.E.E.E.m.(.B.(.).B.(.B.",
"4X@X3X@X=X2X2X3X2X2X,X=X3XtX0X<X:X:X=X%X%X%X%X%X*X*X%X%X%X3X2X0XwX,X%X2X2X2X%X2X2X2X%X4X4X6XqX6X%X#X%X=X:X2X%X,X%X%X%X,X%X2X2X2XeX",
"0Xy.b.V.P.^..X^.U.U.^.^.U.U.^.U.P.P.U.^.^.U.U.U.Y.U.^.P.P.U.U.uXpXQ.0.b.J.P.J.U.U.P.P.J.V.J.P.J.V.V.V.V.V.K.J.V.n.V.V.J.V.n.n.J.aX",
"2XK -.f.C.K.K.K.C.D.D.S.A.F.K.C.C.C.A.A.A.T.D.D.K.K.Y.H.A.A.T.;XwXk.u H 5.p.p.8.5.5.8.8.8.5.2.5.5.1.;.2.1.5.2.5.5.5.5.5.5.-.o.i.aX",
"#XA I r.p.g.C.J.C.C.g.S.F.C.F.C.g.C.H.r.C.p.g.g.F.F.n.C.f.p.C.-X0XW u H >.1.8.5.5.5.5.8.1.1.1.1.1.1.;.2.<.1.1.1.1.5.5.8.1.-.-.t.aX",
"_.A J r.g.g.n.J.J.C.n.K.J.F.K.n.n.g.C.C.h.n.n.F.K.C.F.g.r.r.C.3XqX! u H >.5.p.8.1.5.5.5.1.1.1.5.5.i.1.r.5.1.5.q.5.5.8.i.;.U -.i.iX",
"'.A U i.J.F.J.F.J.F.K.K.J.J.K.K.K.H.J.F.J.J.J.K.K.K.K.n.p.f.C.3XqX! 6 H 1.8.p.p.8.8.8.i.i.t.1.i.8.p.8.i.i.8.i.i.p.p.i.i.1.>.>.i.yX",
"@XA I r.g.C.J.C.K.F.J.F.J.C.C.J.J.J.J.F.C.F.J.F.J.K.K.F.f.f.p.$X4X! 3 H 1.5.i.i.5.8.8.1.1.>.1.i.p.8.5.1.1.1.1.5.1.1.1.5.<.H H 1.yX",
"@XA H q.f.l.h.g.g.i.g.g.g.f.d.i.f.g.g.h.g.p.f.p.f.f.g.g.q.1.r.#X0X! u H -.1.1.1.1.1.1.-.-.-.:.<.,.-.>.>.-.-.:.Y -.U >.-.-.H K 1.yX",
"'.p A >.>.>.>.>.<.L 1.>.1.>.U >.>.,.1.>.q.3.1.>.<.1.,.1.-.H H #X0X! - x B V B b B V H B V B B c c B b B B c x B B N c n c p a K eX",
").Q J R R R w.R Y Y 0.E E U R R E E 0.E 0.0.0.E <.y.0.0.0.E U #X0X~ A S L I I I I U I K I I L S S F I I I J I L I U F F I S F ! yX",
":X`._.`._.`.oX`.(.)._. X`.Q.).).E.)._.)._.`.`.).)._._._._._.`.2X0X'.).).)._.'.'._._.)._._.]._._.).Q._._.'._.)._.`.'.'.#X_._.`.:XyX",
"W.E.W.{._.{.{.^.(.(.(.(.W.~.7X7XR.R.E.E.R.E.).Q.(.E.).).E.E._.#X_.).E.).).(.'._.(.).)._._._.%XeX,Xm.B.(.{.W.(.{.}. X X X{.{.{.|.|.",
"^ m _ ` ` _ _ ` _ ` _ m _ ..tXyXZ * c b N K c H B b B b b c x c c b c B b b b B F b b b B c n.sX#X- x M M _ _ +.` _ _ _ M M M _ m ",
"M _ _ X._ _ C _ _ _ M M m ` 6X4Xz # u c A A K c S b b b b c c c b b b b b c b b b b c c c N u.pXm.- 6 M _ _ _ X._ C } V M M M _ C ",
"_ _ X._ _ _ _ _ _ +._ m k m 4X%Xl * c c b b K K S b b b b b b b b B b S b b b b c b b b c c u.pXM.O x M X.X.+.+.M M M V M _ M M M ",
"X.X.X.+.X.o.O.O.+.+._ _ m _ qX4XZ * c b S S L L S K L K S S b L L L K S K b S S B b S S b c z.yXm.O x M o.O.+.+._ _ _ o._ X._ _ _ ",
"O.+.O.:.+.+.:.+.+.:.X.M M _ 6X0Xr 0 c S L L L L L B L L F b L L L L L L L S b b L K S S B c x.pXB.O k _ X.o.o.O.o._ { o.O.O.+.+.[ ",
"o.X.o.X._ _ ` ` _ X._ M n _ qX4Xz 0 c S L S L B S F B B S S b L F b b A b S b A c b b c c c l.pX).O 6 M _ _ _ _ _ [ _ M _ M _ _ [ ",
"n M n n M M M M M M m n C M 6X=Xl X w c b S b b A A b A c c c c A v A v A A A A c b c p w p k.aXV.O 7 k n M _ V M C m M M M n M _ ",
"7 3 3 7 6 7 x x 7 6 7 7 7 7 4X4Xe X 0 q w 0 0 l = = l u = = w w 0 = 0 0 0 = w 0 w = q 0 X * Q iX).; - 6 6 6 6 x 3 n 6 7 3 7 3 3 6 ",
"l c b A A b b c b b c c A B qX0XF e z z z z z A z l l z Z l l l l l l D z D z A z z z z p D c.dX'.l c c B b S c B c c c c c b x c ",
"4X%X4X4X0X4X,X,X%X%X2X4X0XyXaXwX4X,X<X,X,X,X,X<X<X<X,X4X4X4X,X4X%X].%X4X7X5X7X7X4X0X0X4X0XyXpXpX0X-X,X4X4X0X7X<X4X2X:X3X4X4X4X<X6X",
"wXB.(.{. X X X#X|.|.{. X|.$X$X$X}.}.|.|.{.|.|.{._. X X X{.{.{.6XyX_.M.B.~.~.^.{.^.~.{.~.~.^.[.}. X^.U.~.{.~.~.~.~.W.!.!.W.~.^.{.aX",
"4XA B h.s.C.C.J.C.C.S.F.C.S.C.s.f.f.f.g.C.J.S.g.s.s.8.h.h.8.C.-XeXu.: C ] | | | %.%.] | =.| ) |  .=. .| ..| ] | %.| ..) / / / =.aX",
"%Xu N <.q.g.i.g.f.g.i.g.h.g.i.i.g.h.d.h.h.h.g.h.g.g.i.t.q.>.r.-XwXE o < g ' ] ] ] | ' } } ' ' ' ] } ' ( ] ] ] ] / ] / / ( ^ f @.yX",
":Xc K q.q.i.i.g.d.i.t.h.d.t.i.t.i.i.d.g.h.h.g.V.S.J.j.h.q.1.5.-XeXw.o f ( ' ] ] ] ] ] ] } ] ] ] ' { ] ] ] ' { ' / @.] ' ^ f f @.aX",
",Xc I q.d.g.g.n.g.h.g.g.f.d.d.d.g.n.J.g.n.V.g.g.V.g.F.g.q.q.8.-XeXW : f ' { { ] { @.@.] { @.@.] ] @.] { &.] ] { ] %.] @.' g ^ %.aX",
"%Xc Y i.h.g.g.n.J.g.d.g.n.g.m.h.J.n.g.n.V.g.g.J.V.V.D.n.d.q.r.$XeXE : g ' @.] @.@.@.] } { ] &.] &.] { &.@.&. .] { { { %.] ^ ^ %.sX",
"%Xp S q.i.d.g.g.d.f.f.d.g.d.g.g.g.g.i.g.g.d.g.g.p.h.g.i.q.q.q.#XwXW % f ( ] ] ] ' ] ] ' ] { ] ] ] ] ] ] ] ] ] ] / ' ] ] } g ^ ] aX",
"%Xr N U q.q.q.q.q.q.q.q.i.i.d.q.i.i.q.i.q.q.q.t.1.q.t.t.>.U ,.#XyXW o f g ( ^ g g ( ^ g g ^ h ^ ^ g h ^ ( h g g ^ ^ ( ^ g f f @.yX",
":X0 p A K H H J A J V H H I K J L -.L U H K H K L K K L K N K #XeXW   o , f 8 < < 4 4 4 4 < 4 4 < f 8 8 f , < f 4 f y 4 < y y j pX",
"%Xr r p a p p p p p c c p p p c a c c c c c c c c r p c r p p W.0XW   @ @ @ @ @ @ @ @ , , , @ @ , @ , , 4 @ @ , @ @ @ @ @ @ > j yX",
"4X%X%X%X%X:X%X%X%X#X%X%X%X%X%X_._.'.'._._.%X%X]._.+X].].].:X0XpXeX%X].+X%X].).).]._.'. X].].'.+X'.'.%X+X%X%X:X%X%X'.'.%X_._.%XqXpX"
};
