/* XPM */
static char *_18d9db2385242e591010c344f89af918CpXnBk4xAKwKu8U[] = {
/* columns rows colors chars-per-pixel */
"64 64 6 1 ",
"  c None",
". c black",
"X c #393939",
"o c #484848",
"O c #57A04D",
"+ c #0C40EF",
/* pixels */
"..........                                            ..........",
"..........                                            ..........",
"....++++................................................++++....",
"....++++................................................++++....",
"..++..++....oooooooooooooo..++++++++..oooooooooooooo....++..++..",
"..++..++....oooooooooooooo..++++++++..oooooooooooooo....++..++..",
"..++++....................................................++++..",
"..++++....................................................++++..",
"..........XXXXXXXXXXXXXXXX..++++++++..XXXXXXXXXXXXXXXX..........",
"..........XXXXXXXXXXXXXXXX..++++++++..XXXXXXXXXXXXXXXX..........",
"  ......XXXXXXXXXXXXXXXXXX............XXXXXXXXXXXXXXXXXX......  ",
"  ......XXXXXXXXXXXXXXXXXX............XXXXXXXXXXXXXXXXXX......  ",
"  ..oo..XXXXXXXXXXXXXXXXXXXXXXXXXXXXXXXXXXXXXXXXXXXXXXXX..oo..  ",
"  ..oo..XXXXXXXXXXXXXXXXXXXXXXXXXXXXXXXXXXXXXXXXXXXXXXXX..oo..  ",
"  ..oo..XXXXXXXXXXXXXXXXXXXXXXXXXXXXXXXXXXXXXXXXXXXXXXXX..oo..  ",
"  ..oo..XXXXXXXXXXXXXXXXXXXXXXXXXXXXXXXXXXXXXXXXXXXXXXXX..oo..  ",
"  ..oo..XXXXXXXXXXXXXXXXXXXXXXXXXXXXXXXXXXXXXXXXXXXXXXXX..oo..  ",
"  ..oo..XXXXXXXXXXXXXXXXXXXXXXXXXXXXXXXXXXXXXXXXXXXXXXXX..oo..  ",
"  ..oo..XXXXXXXXXXXXXXXXXXXXXXXXXXXXXXXXXXXXXXXXXXXXXXXX..oo..  ",
"  ..oo..XXXXXXXXXXXXXXXXXXXXXXXXXXXXXXXXXXXXXXXXXXXXXXXX..oo..  ",
"  ..oo..XXXXXXXXXX........XX........XX........XXXXXXXXXX..oo..  ",
"  ..oo..XXXXXXXXXX........XX........XX........XXXXXXXXXX..oo..  ",
"  ..oo..XXXXXXXXXX..OOOO..XX..OOOO..XX..OOOO..XXXXXXXXXX..oo..  ",
"  ..oo..XXXXXXXXXX..OOOO..XX..OOOO..XX..OOOO..XXXXXXXXXX..oo..  ",
"  ..oo..XXXXXXXXXX..OOOO..XX..OOOO..XX..OOOO..XXXXXXXXXX..oo..  ",
"  ..oo..XXXXXXXXXX..OOOO..XX..OOOO..XX..OOOO..XXXXXXXXXX..oo..  ",
"  ..........XXXXXX..OOOO..XX..OOOO..XX..OOOO..XXXXXX..........  ",
"  ..........XXXXXX..OOOO..XX..OOOO..XX..OOOO..XXXXXX..........  ",
"  ..++..++..XXXXXX..OOOO..XX..OOOO..XX..OOOO..XXXXXX..++..++..  ",
"  ..++..++..XXXXXX..OOOO..XX..OOOO..XX..OOOO..XXXXXX..++..++..  ",
"  ..++..++..XXXXXX..OOOO..XX..OOOO..XX..OOOO..XXXXXX..++..++..  ",
"  ..++..++..XXXXXX..OOOO..XX..OOOO..XX..OOOO..XXXXXX..++..++..  ",
"  ..++..++..XXXXXX..OOOO..XX..OOOO..XX..OOOO..XXXXXX..++..++..  ",
"  ..++..++..XXXXXX..OOOO..XX..OOOO..XX..OOOO..XXXXXX..++..++..  ",
"  ..++..++..XXXXXX..OOOO..XX..OOOO..XX..OOOO..XXXXXX..++..++..  ",
"  ..++..++..XXXXXX..OOOO..XX..OOOO..XX..OOOO..XXXXXX..++..++..  ",
"  ..........XXXXXX..OOOO..XX..OOOO..XX..OOOO..XXXXXX..........  ",
"  ..........XXXXXX..OOOO..XX..OOOO..XX..OOOO..XXXXXX..........  ",
"  ..oo..XXXXXXXXXX..OOOO..XX..OOOO..XX..OOOO..XXXXXXXXXX..oo..  ",
"  ..oo..XXXXXXXXXX..OOOO..XX..OOOO..XX..OOOO..XXXXXXXXXX..oo..  ",
"  ..oo..XXXXXXXXXX..OOOO..XX..OOOO..XX..OOOO..XXXXXXXXXX..oo..  ",
"  ..oo..XXXXXXXXXX..OOOO..XX..OOOO..XX..OOOO..XXXXXXXXXX..oo..  ",
"  ..oo..XXXXXXXXXX........XX........XX........XXXXXXXXXX..oo..  ",
"  ..oo..XXXXXXXXXX........XX........XX........XXXXXXXXXX..oo..  ",
"  ..oo..XXXXXXXXXXXXXXXXXXXXXXXXXXXXXXXXXXXXXXXXXXXXXXXX..oo..  ",
"  ..oo..XXXXXXXXXXXXXXXXXXXXXXXXXXXXXXXXXXXXXXXXXXXXXXXX..oo..  ",
"  ..oo..XXXXXXXXXXXXXXXXXXXXXXXXXXXXXXXXXXXXXXXXXXXXXXXX..oo..  ",
"  ..oo..XXXXXXXXXXXXXXXXXXXXXXXXXXXXXXXXXXXXXXXXXXXXXXXX..oo..  ",
"  ..oo..XXXXXXXXXXXXXXXXXXXXXXXXXXXXXXXXXXXXXXXXXXXXXXXX..oo..  ",
"  ..oo..XXXXXXXXXXXXXXXXXXXXXXXXXXXXXXXXXXXXXXXXXXXXXXXX..oo..  ",
"  ..oo..XXXXXXXXXXXXXXXXXXXXXXXXXXXXXXXXXXXXXXXXXXXXXXXX..oo..  ",
"  ..oo..XXXXXXXXXXXXXXXXXXXXXXXXXXXXXXXXXXXXXXXXXXXXXXXX..oo..  ",
"  ......XXXXXXXXXXXXXXXXXX............XXXXXXXXXXXXXXXXXX......  ",
"  ......XXXXXXXXXXXXXXXXXX............XXXXXXXXXXXXXXXXXX......  ",
"..........XXXXXXXXXXXXXXXX..++++++++..XXXXXXXXXXXXXXXX..........",
"..........XXXXXXXXXXXXXXXX..++++++++..XXXXXXXXXXXXXXXX..........",
"..++++....................................................++++..",
"..++++....................................................++++..",
"..++..++....oooooooooooooo..++++++++..oooooooooooooo....++..++..",
"..++..++....oooooooooooooo..++++++++..oooooooooooooo....++..++..",
"....++++................................................++++....",
"....++++................................................++++....",
"..........                                            ..........",
"..........                                            .........."
};
