/* XPM */
static char *f8724e8f64984c5eaadaaee73a939e17l6ZOYBpL4sIqQ30x[] = {
/* columns rows colors chars-per-pixel */
"64 64 6 1 ",
"  c None",
". c black",
"X c #393939",
"o c #484848",
"O c #0C40EF",
"+ c #AB0FB9",
/* pixels */
"..........                                            ..........",
"..........                                            ..........",
"....OOOO................................................OOOO....",
"....OOOO................................................OOOO....",
"..OO..OO....oooooooooooooo..OOOOOOOO..oooooooooooooo....OO..OO..",
"..OO..OO....oooooooooooooo..OOOOOOOO..oooooooooooooo....OO..OO..",
"..OOOO....................................................OOOO..",
"..OOOO....................................................OOOO..",
"..........XXXXXXXXXXXXXXXX..OOOOOOOO..XXXXXXXXXXXXXXXX..........",
"..........XXXXXXXXXXXXXXXX..OOOOOOOO..XXXXXXXXXXXXXXXX..........",
"  ......XXXXXXXXXXXXXXXXXX............XXXXXXXXXXXXXXXXXX......  ",
"  ......XXXXXXXXXXXXXXXXXX............XXXXXXXXXXXXXXXXXX......  ",
"  ..oo..XXXXXXXXXXXXXXXXXXXXXXXXXXXXXXXXXXXXXXXXXXXXXXXX..oo..  ",
"  ..oo..XXXXXXXXXXXXXXXXXXXXXXXXXXXXXXXXXXXXXXXXXXXXXXXX..oo..  ",
"  ..oo..XXXXXXXXXXXXXXXXXXXXXXXXXXXXXXXXXXXXXXXXXXXXXXXX..oo..  ",
"  ..oo..XXXXXXXXXXXXXXXXXXXXXXXXXXXXXXXXXXXXXXXXXXXXXXXX..oo..  ",
"  ..oo..XXXXXXXXXXXXXXXXXXXXXXXXXXXXXXXXXXXXXXXXXXXXXXXX..oo..  ",
"  ..oo..XXXXXXXXXXXXXXXXXXXXXXXXXXXXXXXXXXXXXXXXXXXXXXXX..oo..  ",
"  ..oo..XXXXXXXXXXXXXXXXXXXXXXXXXXXXXXXXXXXXXXXXXXXXXXXX..oo..  ",
"  ..oo..XXXXXXXXXXXXXXXXXXXXXXXXXXXXXXXXXXXXXXXXXXXXXXXX..oo..  ",
"  ..oo..XXXXXXXXXX........XX........XX........XXXXXXXXXX..oo..  ",
"  ..oo..XXXXXXXXXX........XX........XX........XXXXXXXXXX..oo..  ",
"  ..oo..XXXXXXXXXX..++++..XX..++++..XX..++++..XXXXXXXXXX..oo..  ",
"  ..oo..XXXXXXXXXX..++++..XX..++++..XX..++++..XXXXXXXXXX..oo..  ",
"  ..oo..XXXXXXXXXX..++++..XX..++++..XX..++++..XXXXXXXXXX..oo..  ",
"  ..oo..XXXXXXXXXX..++++..XX..++++..XX..++++..XXXXXXXXXX..oo..  ",
"  ..........XXXXXX..++++..XX..++++..XX..++++..XXXXXX..........  ",
"  ..........XXXXXX..++++..XX..++++..XX..++++..XXXXXX..........  ",
"  ..OO..OO..XXXXXX..++++..XX..++++..XX..++++..XXXXXX..OO..OO..  ",
"  ..OO..OO..XXXXXX..++++..XX..++++..XX..++++..XXXXXX..OO..OO..  ",
"  ..OO..OO..XXXXXX..++++..XX..++++..XX..++++..XXXXXX..OO..OO..  ",
"  ..OO..OO..XXXXXX..++++..XX..++++..XX..++++..XXXXXX..OO..OO..  ",
"  ..OO..OO..XXXXXX..++++..XX..++++..XX..++++..XXXXXX..OO..OO..  ",
"  ..OO..OO..XXXXXX..++++..XX..++++..XX..++++..XXXXXX..OO..OO..  ",
"  ..OO..OO..XXXXXX..++++..XX..++++..XX..++++..XXXXXX..OO..OO..  ",
"  ..OO..OO..XXXXXX..++++..XX..++++..XX..++++..XXXXXX..OO..OO..  ",
"  ..........XXXXXX..++++..XX..++++..XX..++++..XXXXXX..........  ",
"  ..........XXXXXX..++++..XX..++++..XX..++++..XXXXXX..........  ",
"  ..oo..XXXXXXXXXX..++++..XX..++++..XX..++++..XXXXXXXXXX..oo..  ",
"  ..oo..XXXXXXXXXX..++++..XX..++++..XX..++++..XXXXXXXXXX..oo..  ",
"  ..oo..XXXXXXXXXX..++++..XX..++++..XX..++++..XXXXXXXXXX..oo..  ",
"  ..oo..XXXXXXXXXX..++++..XX..++++..XX..++++..XXXXXXXXXX..oo..  ",
"  ..oo..XXXXXXXXXX........XX........XX........XXXXXXXXXX..oo..  ",
"  ..oo..XXXXXXXXXX........XX........XX........XXXXXXXXXX..oo..  ",
"  ..oo..XXXXXXXXXXXXXXXXXXXXXXXXXXXXXXXXXXXXXXXXXXXXXXXX..oo..  ",
"  ..oo..XXXXXXXXXXXXXXXXXXXXXXXXXXXXXXXXXXXXXXXXXXXXXXXX..oo..  ",
"  ..oo..XXXXXXXXXXXXXXXXXXXXXXXXXXXXXXXXXXXXXXXXXXXXXXXX..oo..  ",
"  ..oo..XXXXXXXXXXXXXXXXXXXXXXXXXXXXXXXXXXXXXXXXXXXXXXXX..oo..  ",
"  ..oo..XXXXXXXXXXXXXXXXXXXXXXXXXXXXXXXXXXXXXXXXXXXXXXXX..oo..  ",
"  ..oo..XXXXXXXXXXXXXXXXXXXXXXXXXXXXXXXXXXXXXXXXXXXXXXXX..oo..  ",
"  ..oo..XXXXXXXXXXXXXXXXXXXXXXXXXXXXXXXXXXXXXXXXXXXXXXXX..oo..  ",
"  ..oo..XXXXXXXXXXXXXXXXXXXXXXXXXXXXXXXXXXXXXXXXXXXXXXXX..oo..  ",
"  ......XXXXXXXXXXXXXXXXXX............XXXXXXXXXXXXXXXXXX......  ",
"  ......XXXXXXXXXXXXXXXXXX............XXXXXXXXXXXXXXXXXX......  ",
"..........XXXXXXXXXXXXXXXX..OOOOOOOO..XXXXXXXXXXXXXXXX..........",
"..........XXXXXXXXXXXXXXXX..OOOOOOOO..XXXXXXXXXXXXXXXX..........",
"..OOOO....................................................OOOO..",
"..OOOO....................................................OOOO..",
"..OO..OO....oooooooooooooo..OOOOOOOO..oooooooooooooo....OO..OO..",
"..OO..OO....oooooooooooooo..OOOOOOOO..oooooooooooooo....OO..OO..",
"....OOOO................................................OOOO....",
"....OOOO................................................OOOO....",
"..........                                            ..........",
"..........                                            .........."
};
