/* XPM */
static char *_df635432fd045e48362babef002839eCVxWZRaiWVyFliD2[] = {
/* columns rows colors chars-per-pixel */
"64 64 5 1 ",
"  c None",
". c black",
"X c #393939",
"o c #484848",
"O c #0C40EF",
/* pixels */
"..........                                            ..........",
"..........                                            ..........",
"....OOOO................................................OOOO....",
"....OOOO................................................OOOO....",
"..OO..OO....oooooooooooooo..OOOOOOOO..oooooooooooooo....OO..OO..",
"..OO..OO....oooooooooooooo..OOOOOOOO..oooooooooooooo....OO..OO..",
"..OOOO....................................................OOOO..",
"..OOOO....................................................OOOO..",
"..........XXXXXXXXXXXXXXXX..OOOOOOOO..XXXXXXXXXXXXXXXX..........",
"..........XXXXXXXXXXXXXXXX..OOOOOOOO..XXXXXXXXXXXXXXXX..........",
"  ......XXXXXXXXXXXXXXXXXX............XXXXXXXXXXXXXXXXXX......  ",
"  ......XXXXXXXXXXXXXXXXXX............XXXXXXXXXXXXXXXXXX......  ",
"  ..oo..XXXXXXXXXXXXXXXXXXXXXXXXXXXXXXXXXXXXXXXXXXXXXXXX..oo..  ",
"  ..oo..XXXXXXXXXXXXXXXXXXXXXXXXXXXXXXXXXXXXXXXXXXXXXXXX..oo..  ",
"  ..oo..XXXXXXXXXXXXXXXXXXXXXXXXXXXXXXXXXXXXXXXXXXXXXXXX..oo..  ",
"  ..oo..XXXXXXXXXXXXXXXXXXXXXXXXXXXXXXXXXXXXXXXXXXXXXXXX..oo..  ",
"  ..oo..XXXXXXXXXXXXXXXXXXXXXXXXXXXXXXXXXXXXXXXXXXXXXXXX..oo..  ",
"  ..oo..XXXXXXXXXXXXXXXXXXXXXXXXXXXXXXXXXXXXXXXXXXXXXXXX..oo..  ",
"  ..oo..XXXXXXXXXXXXXXXXXXXXXXXXXXXXXXXXXXXXXXXXXXXXXXXX..oo..  ",
"  ..oo..XXXXXXXXXXXXXXXXXXXXXXXXXXXXXXXXXXXXXXXXXXXXXXXX..oo..  ",
"  ..oo..XXXXXXXXXX........XX........XX........XXXXXXXXXX..oo..  ",
"  ..oo..XXXXXXXXXX........XX........XX........XXXXXXXXXX..oo..  ",
"  ..oo..XXXXXXXXXX..    ..XX..    ..XX..    ..XXXXXXXXXX..oo..  ",
"  ..oo..XXXXXXXXXX..    ..XX..    ..XX..    ..XXXXXXXXXX..oo..  ",
"  ..oo..XXXXXXXXXX..    ..XX..    ..XX..    ..XXXXXXXXXX..oo..  ",
"  ..oo..XXXXXXXXXX..    ..XX..    ..XX..    ..XXXXXXXXXX..oo..  ",
"  ..........XXXXXX..    ..XX..    ..XX..    ..XXXXXX..........  ",
"  ..........XXXXXX..    ..XX..    ..XX..    ..XXXXXX..........  ",
"  ..OO..OO..XXXXXX..    ..XX..    ..XX..    ..XXXXXX..OO..OO..  ",
"  ..OO..OO..XXXXXX..    ..XX..    ..XX..    ..XXXXXX..OO..OO..  ",
"  ..OO..OO..XXXXXX..    ..XX..    ..XX..    ..XXXXXX..OO..OO..  ",
"  ..OO..OO..XXXXXX..    ..XX..    ..XX..    ..XXXXXX..OO..OO..  ",
"  ..OO..OO..XXXXXX..    ..XX..    ..XX..    ..XXXXXX..OO..OO..  ",
"  ..OO..OO..XXXXXX..    ..XX..    ..XX..    ..XXXXXX..OO..OO..  ",
"  ..OO..OO..XXXXXX..    ..XX..    ..XX..    ..XXXXXX..OO..OO..  ",
"  ..OO..OO..XXXXXX..    ..XX..    ..XX..    ..XXXXXX..OO..OO..  ",
"  ..........XXXXXX..    ..XX..    ..XX..    ..XXXXXX..........  ",
"  ..........XXXXXX..    ..XX..    ..XX..    ..XXXXXX..........  ",
"  ..oo..XXXXXXXXXX..    ..XX..    ..XX..    ..XXXXXXXXXX..oo..  ",
"  ..oo..XXXXXXXXXX..    ..XX..    ..XX..    ..XXXXXXXXXX..oo..  ",
"  ..oo..XXXXXXXXXX..    ..XX..    ..XX..    ..XXXXXXXXXX..oo..  ",
"  ..oo..XXXXXXXXXX..    ..XX..    ..XX..    ..XXXXXXXXXX..oo..  ",
"  ..oo..XXXXXXXXXX........XX........XX........XXXXXXXXXX..oo..  ",
"  ..oo..XXXXXXXXXX........XX........XX........XXXXXXXXXX..oo..  ",
"  ..oo..XXXXXXXXXXXXXXXXXXXXXXXXXXXXXXXXXXXXXXXXXXXXXXXX..oo..  ",
"  ..oo..XXXXXXXXXXXXXXXXXXXXXXXXXXXXXXXXXXXXXXXXXXXXXXXX..oo..  ",
"  ..oo..XXXXXXXXXXXXXXXXXXXXXXXXXXXXXXXXXXXXXXXXXXXXXXXX..oo..  ",
"  ..oo..XXXXXXXXXXXXXXXXXXXXXXXXXXXXXXXXXXXXXXXXXXXXXXXX..oo..  ",
"  ..oo..XXXXXXXXXXXXXXXXXXXXXXXXXXXXXXXXXXXXXXXXXXXXXXXX..oo..  ",
"  ..oo..XXXXXXXXXXXXXXXXXXXXXXXXXXXXXXXXXXXXXXXXXXXXXXXX..oo..  ",
"  ..oo..XXXXXXXXXXXXXXXXXXXXXXXXXXXXXXXXXXXXXXXXXXXXXXXX..oo..  ",
"  ..oo..XXXXXXXXXXXXXXXXXXXXXXXXXXXXXXXXXXXXXXXXXXXXXXXX..oo..  ",
"  ......XXXXXXXXXXXXXXXXXX............XXXXXXXXXXXXXXXXXX......  ",
"  ......XXXXXXXXXXXXXXXXXX............XXXXXXXXXXXXXXXXXX......  ",
"..........XXXXXXXXXXXXXXXX..OOOOOOOO..XXXXXXXXXXXXXXXX..........",
"..........XXXXXXXXXXXXXXXX..OOOOOOOO..XXXXXXXXXXXXXXXX..........",
"..OOOO....................................................OOOO..",
"..OOOO....................................................OOOO..",
"..OO..OO....oooooooooooooo..OOOOOOOO..oooooooooooooo....OO..OO..",
"..OO..OO....oooooooooooooo..OOOOOOOO..oooooooooooooo....OO..OO..",
"....OOOO................................................OOOO....",
"....OOOO................................................OOOO....",
"..........                                            ..........",
"..........                                            .........."
};
