/* XPM */
static char *result[] = {
/* columns rows colors chars-per-pixel */
"64 64 217 2 ",
"   c #000000",
".  c #0B0503",
"X  c #190B07",
"o  c #33160D",
"O  c #29100B",
"+  c #431E11",
"@  c #4C1B13",
"#  c #5A1D17",
"$  c #432811",
"%  c #482212",
"&  c #562616",
"*  c #6F2C1C",
"=  c #776A3E",
"-  c #7F703C",
";  c #061948",
":  c #0A1C49",
">  c #141E49",
",  c #0E204B",
"<  c #17254B",
"1  c #162657",
"2  c #0E2155",
"3  c #23294A",
"4  c #29344B",
"5  c #363A4A",
"6  c #2E2F50",
"7  c #182C66",
"8  c #243876",
"9  c #573E4A",
"0  c #4A384A",
"q  c #3D434D",
"w  c #364365",
"e  c #474948",
"r  c #595645",
"t  c #4F4950",
"y  c #635D43",
"u  c #605D4F",
"i  c #6F514E",
"p  c #6A6242",
"a  c #69634A",
"s  c #746C51",
"d  c #464E6E",
"f  c #73706D",
"g  c #5B6171",
"h  c #893722",
"j  c #9D3B27",
"k  c #A93829",
"l  c #E7003B",
"z  c #EC003B",
"x  c #F4013B",
"c  c #F9043B",
"v  c #FB0A3B",
"b  c #FC133B",
"n  c #FD1A3B",
"m  c #D73534",
"M  c #FD233B",
"N  c #FE2B3B",
"B  c #FE323B",
"V  c #FE3B3B",
"C  c #F03A39",
"Z  c #E73837",
"A  c #B1442B",
"S  c #83733B",
"D  c #8C7938",
"F  c #927E36",
"G  c #937E3A",
"H  c #CB4931",
"J  c #D34C32",
"K  c #E94B37",
"L  c #FF433B",
"P  c #F04B38",
"I  c #FF4C3B",
"U  c #F34539",
"Y  c #FF533B",
"T  c #FF5C3C",
"R  c #F15838",
"E  c #E45136",
"W  c #FF643C",
"Q  c #FF6C3C",
"!  c #F06F38",
"~  c #F17038",
"^  c #FF733E",
"/  c #FF7C3C",
"(  c #F17F38",
")  c #8B5649",
"_  c #8D724B",
"`  c #B36C49",
"'  c #90756D",
"]  c #A96558",
"[  c #CF7347",
"{  c #FF7A42",
"}  c #F67847",
"|  c #F07445",
" . c #9A8336",
".. c #AD912F",
"X. c #BB9B2A",
"o. c #B3952C",
"O. c #A68B31",
"+. c #A98E30",
"@. c #A58B39",
"#. c #AD9235",
"$. c #AF9334",
"%. c #D6AF1F",
"&. c #DCB41C",
"*. c #D7B01F",
"=. c #E9BD16",
"-. c #E0B61B",
";. c #E4B919",
":. c #E7BC17",
">. c #C19F28",
",. c #FF833D",
"<. c #FF8C3D",
"1. c #FF933E",
"2. c #FA973C",
"3. c #C5A226",
"4. c #CAA625",
"5. c #CEA923",
"6. c #D3AC21",
"7. c #F1B838",
"8. c #FCCE06",
"9. c #F4C60E",
"0. c #F6C80C",
"q. c #F9CB09",
"w. c #FED102",
"e. c #EEC113",
"r. c #F1C411",
"t. c #FFC23B",
"y. c #9A8746",
"u. c #9A8A59",
"i. c #8F8156",
"p. c #A99346",
"a. c #A58F4F",
"s. c #B6A950",
"d. c #8E8876",
"f. c #A69669",
"g. c #A79978",
"h. c #B2A27C",
"j. c #ADA874",
"k. c #D1844D",
"l. c #FF8543",
"z. c #FE8B43",
"x. c #FE8D48",
"c. c #FF9542",
"v. c #FB9745",
"b. c #F68A59",
"n. c #FA9455",
"m. c #E88B4B",
"M. c #FFA547",
"N. c #FAA358",
"B. c #D19178",
"V. c #E58B6A",
"C. c #ED9865",
"Z. c #CCBD46",
"A. c #D7CE52",
"S. c #E8E759",
"D. c #EEF768",
"F. c #EDFE75",
"G. c #D4CE5B",
"H. c #2C4495",
"J. c #274093",
"K. c #344B9A",
"L. c #394F9C",
"P. c #314895",
"I. c #3C529D",
"U. c #36498C",
"Y. c #44559C",
"T. c #595F9E",
"R. c #4A5086",
"E. c #726D9A",
"W. c #445AA2",
"Q. c #4A5EA4",
"!. c #4157A0",
"~. c #4E62A6",
"^. c #5266A9",
"/. c #5B6DAD",
"(. c #5667A8",
"). c #5F71AF",
"_. c #6274B1",
"`. c #6B7CB5",
"'. c #6778B3",
"]. c #6C70A7",
"[. c #566594",
"{. c #263F93",
"}. c #8B7597",
"|. c #967A94",
" X c #8A7492",
".X c #AD7D8D",
"XX c #C37D82",
"oX c #7483B9",
"OX c #7C8ABD",
"+X c #7887BC",
"@X c #6F80B7",
"#X c #858996",
"$X c #9B9998",
"%X c #8C8B8A",
"&X c #AA918B",
"*X c #B8AD97",
"=X c #B4A98F",
"-X c #8F8FAC",
";X c #9DA3B9",
":X c #B8B5B8",
">X c #AFACB0",
",X c #A185AD",
"<X c #C48980",
"1X c #C2B8A3",
"2X c #818FC0",
"3X c #8895C3",
"4X c #939FC8",
"5X c #98A3CA",
"6X c #A4ACC9",
"7X c #ABB2CC",
"8X c #B9BAC8",
"9X c #A5AED0",
"0X c #ACB4D2",
"qX c #B5BBD4",
"wX c #BBC2DD",
"eX c #C5C2C8",
"rX c #C6C7D3",
/* pixels */
"    $ 7.t.t.t.t.t.t.t.t.t.t.t.t.t.t.t.t.t.t.t.t.t.t.t.t.t.t.t.t.t.t.t.t.t.t.t.t.t.t.t.t.t.t.t.t.t.t.t.t.t.t.t.t.t.t.t.t.7.$     ",
"    $ 2.,./ / / / / / / / / / / / / / / / / / / / / / / / / / / / / / / / / / / / / / / / / / / / / / / / / / / / / / / ,.$     ",
"    $ ( I B B N B B B B B B B B N B B N B B B B N B B B B B B B V B B B B B B B B B N B B B B B B B B B B B B B B N B V R +     ",
"    $ ! B b v v v v c v c v c c v v v v v c v c v v v v b n M N N M n b v v c c c v v v c v c v c v v c v c v c v v v n P +     ",
"    $ ~ B v x x c x x x x c x x x x x x x x x x x c v b B L Y T T Y L B b c c x x x x x x x x x z x x x x x x x x x c n P +     ",
"    $ ~ B c x x z z z z z z z z z z x z z x z x c v M I Q / l.{ z.<./ Q L M c x x z z x z x z z z z z z z z z z x x c n P %     ",
"    $ ~ B v x z z z z z l z z z z z z z z z z c v B T / [ i 6 3 3 0 ) } ^ Y M v x z z z z z z l z z z z z z z z z x c b P +     ",
"    $ ~ B c x x z z l l l z z z l l l l z x x v B W | 9 ; ; > : > : ; > ` ^ I M c x z z l z z l z z z l z z l l z x x n P +     ",
"    $ ~ N v x z z l l l l l l z z z l z z x v M Y } 5 ; < q r p y e 4 , : ] ^ I n c z z z l z z l z l l l l l z z x c b P +     ",
"    $ ~ B v x x z z l z z z z z z z z z x c b L { i : 3 r  .o.3.3.+.- e , : k.{ L v c x z z z z z z z z l l l l z x c n P +     ",
"    $ ~ B v x z l l z z z z z x x x z x x v N Q V.2 < r ..*.e.r.r.:.3.S 5 : f v.W M c x x x x x x x x z l l l z z z c n P +     ",
"    $ ~ N v x z z z z z x c c c c c x x x b L { .X2 5 F %.9.q.8.8.q.=.X.y > P.N.{ B v x x x c c c x x x z z l l z x c b P +     ",
"    $ ~ N v x x z z x x c b n n n n b v v n Y z.E.7 r $.e.q.w.w.w.8.0.6.S 5 H.B.,.L b v v b n M M n v v z z z z z x c n P +     ",
"    $ ~ B v x z z x c b N L Y W T Y L N b n Y x.E.U.y >.e.w.w.w.w.8.q.&. .g K.B.<.Y n b N L T T T Y V M v x x z z x c n P +     ",
"    $ ~ B v x x x v n L Y | l.x.b.{ { W L B T x.E.).s X.e.8.w.w.w.w.q.&.D -XL.&X<.Y V I | { l.b.x.,./ T B b c z z x c b P +     ",
"    $ ~ N v x x v N Y Q | ) 0 < d  X&Xn.{ T W z.}.^.$X#.=.8.w.w.w.w.0.6.i.6XL.C.<.W W { V.|.R.7 3 9 ` z.Q B b x x x x n P +     ",
"    $ ~ B v c v M T / ) > ; ; : , 7 P.T.B.{ / z.&XH.qXy.&.0.8.w.8.8.=.>.*X+XQ.N.<.^ b.}.L.8 , , : ; ; 0 | Q V v z x c n P +     ",
"    $ ~ B v c b L ^ ) ; : 5 r y y e d ~.L..Xx.2.B.L.3X*X>.r.8.w.8.q.-.p.rX!.].M.1.V.T.I.].e r y y e < ; 3 | W V b c c b P +     ",
"    $ ~ B v v V Q ` ; , e S o.>.>.O.= %XoXL.|.C.B.~.~.rXp.-.0.8.8.r.4.1X4XL.`.b.B.T.I.5Xs  .X.>.X. .y 4 ; 5 <.W N v x n P +     ",
"    $ ~ B v M Y ,.6 : 0 F 4.:.9.r.;.4.F :XoXI.].3X@XK.4X*X3.r.q.0.-.a.rXQ.^.2X-X(.L.0Xi...6.=.r.r.&.o.= 3 : ) ,.I n c n P +     ",
"    $ ~ B b B { ` ; 3 = 3.e.q.8.8.q.e.5.y.rX(.Y.+XOX^.~.wXp.&.9.r.3.*X5XK.`.2X).K.5X&X+.&.0.8.8.8.9.-.O.e : 5 1.Q M v b P +     ",
"    $ ~ B n L / ) ; 5 O.-.0.w.w.w.w.q.e.4.h.qXY.^.OX@XK.5Xg.>.;.*.@.rX^.~.+X'.L.OX*XO.&.0.w.w.w.8.8.r.3.p < : 2./ V v n P +     ",
"    $ ~ B M I l.9 : e ..=.8.w.w.w.w.w.q.=.X.*X5XK.).@X~.^.>X .5.>.f.7XP._.`.W./.8Xy.%.9.8.w.w.w.w.w.9.6.S 3 ; k.,.V b n P +     ",
"    $ ~ B n I ,.t : e ..=.8.w.w.w.w.w.8.0.-.p.:X@XL.)./.K.7XS .. .$X`.I._.Q.!.8Xu.3.e.8.w.w.w.w.w.w.0.6.S 4 ; k.,.L v n P +     ",
"    $ ~ B n I / ) ; 5  .&.0.8.w.w.w.w.w.8.r.6.a.8X^.I.^.K.OXd.D s :X!.W.Q.H.9X&XX.=.q.8.8.8.w.w.w.8.e.X.p , , v./ B v n P +     ",
"    $ ~ B b B ^ [ ; < p o.:.0.8.8.w.w.8.8.0.e.>.u.0XQ.K.P.).%Xy y 7XH.L.H.4X$XO.-.0.8.8.8.8.8.8.q.e.6. .q , 0 v.W N v n P +     ",
"    $ ~ B v M T x.t ; 4 - o.%.=.e.9.9.9.0.9.e.&...' 7X~.J.).OXr u 0XH.H.3X$X .3.=.=.0.0.0.0.9.=.&.3. .r < 2 k.z.I n c b P +     ",
"    $ ~ B v v B | V.R.7 w y D +.X.3.4.5.6.6.6.5.X.G s 6X5XwX%Xy f qX5X9X%X= +.3.%.%.6.6.5.3.X.o. .= u 7 8  Xv.W N v c n P +     ",
"    $ ~ B v c b V { V.T.K.`.6X:X:X1X*X*X=Xj.u. . .D = u #X0X%Xp.u.5X5Xf p -  . .y.f.h.=X*X1X1X:X:X;X~.K.|.n.Q B v c c n P +     ",
"    $ ~ B c x c b V ^ C.|.Y.K.Q._.@X+X3X3X6X0X8X$Xf r u s s.j.S.A.j.y.y r a %X>XqX0X4X3X2X+X`./.I.K.(.<Xv.^ V b x x c n P +     ",
"    $ ~ B v x x c n L ^ z.C.&XE.~.W.!.I.I.K.K.L./.4X;Xf y.S.S.D.D.D.Z.s #X9XoXW.K.K.L.!.!.W.Q.T.%XB.M.1.Q B b x x x c b P +     ",
"    $ ~ B c x x x c n V Q <.1.n.,X-X+X+XoX'./.Q.K.J.-X0X$XS.D.F.F.D.G.;XwXW.H.!.(._.`.`.+X2X3XB.M.2.,.W B b x x z x c n P +     ",
"    $ ~ B v x x x c n L W ,.1.V.-XoX@X@X@X).(.W.U.H.5X6Xf.S.D.F.F.D.G.$XwX/.J.I.~.(._.'.`.oXOX&Xv.v.,.W B b c z z x x n P +     ",
"    $ ~ B c c z c n L } b.B.}.~.I.L.K.K.H.L.!.).OX>X@Xr  .A.S.D.S.S.>.= g ;X4X@X~.!.K.K.K.L.I.Y.T..XV.l.Q V n c x x c b P +     ",
"    $ ~ B c c c n L } ] T.H.~.`.3X5X7X0XwXwXwX$Xd.a r y s g.j.A.A.$Xi.= p p s $X:X8XrXqX0X6X4XOX/.L.I.}.C.Q L n c x x n P +     ",
"    $ ~ B v c n L } .XL.R.oX$X&X=Xh.f.a.p.O.@.+.O. .= f 5XwX#Xi.s 0X0X@Xy - O.o.O.@.a.a.f.j.h.&X$X$X].P.T.V.{ V b c v b P +     ",
"    $ ~ B v b V } .X7 3 e - O.X.3.6.*.&.-.-.-.*.X. .%X6X@X9X#Xr u wX2X4X;Xs ..5.&.-.-.&.&.*.6.3.o. .y 4 1 R.n.{ B v c n P +     ",
"    $ ~ B b M T } 1 > t F 3.-.e.9.0.q.q.q.0.e.*.O.d.9XK.J./.#Xy u 0XH.J.@X>X .3.=.9.q.q.0.0.9.r.e.*...= 4 ; i 1.Y n v n P +     ",
"    $ ~ B n V Q ] ; 6 - 4.e.q.8.w.w.w.8.w.0.:.X.g.0XK.L.P.'.@Xp a 0XH.L.K.oX>X .%.r.q.w.w.w.w.w.q.9.&...r , < 2.^ N v n P +     ",
"    $ ~ B n L / 9 ; e O.:.q.8.w.w.w.w.w.8.e.4.u.wXW.W.^.P.;X_  ._ >X~.W.~.L.3X$X$.-.0.w.w.w.w.w.w.8.9.4.p 4 ; m.,.V v n P +     ",
"    $ ~ B M Y l.9 ; e o.=.8.w.w.w.w.w.8.r.*.a.wX/.!.'./.K.0X_ X.O.$XOXI._.^.K.9X&XX.e.9.w.w.w.w.w.w.q.%.- 4 ; [ ,.L b b P +     ",
"    $ ~ B n I ,.t : e o.=.8.w.8.w.w.w.q.&.#.:XOXK._.@XW.).>X+.6.4.u.wXU./.@XQ.!.qXu.3.e.8.w.w.w.w.8.0.%.- 3 ; k.,.V b n P +     ",
"    $ ~ B n L ,.) : 5 D &.0.8.8.w.w.0.-.o.=X;XK./.2X_.K.9Xf.3.=.&...:X@X!.oXoXW.^.8Xy.5.e.q.w.w.w.q.e.X.= , > 2./ V v b P +     ",
"    $ ~ B b B Q [ ; < = X.:.q.q.q.0.:.X.f.qXI.(.2X-XW.).eX#.-.0.9.5.j.7XK._.3X`.I.@X>X .6.r.0.q.q.r.5. .q , t 2.W N v n P +     ",
"    $ ! B v M T z.0 : 5 - o.*.e.e.*.X._ 8XW.Q..X,X'.K.7X=X5.r.q.8.:.$.rX'.Q.-X.XE.I.2X$XF 4.&.=.&.5.O.r : ; ` <.I b v n P +     ",
"    $ ! B v v B Q [ > : 4 p  .O.O._ s ;XQ.W.B.M.B.Q./.eX$.:.q.w.8.9.5.h.0XK.}.M.n.|.K.+X' p  .O.O.- e < ; i 1.W N v c b P +     ",
"    $ ! B v c b L ^ [ < , < q q q 5 [.L.T.B.v.c.B.K.6Xf.4.9.w.w.w.8.&.#.eX~.(.N.2.v..XK.~.w q e q 4 , , 0 c.^ B v c c b P +     ",
"    % ~ B v x v b U Q [ 0 ; ; ; ; 8 !.#Xn.<.,.<.|.I.8X .&.q.w.w.w.8.9.3.g.;XY.n.<./ x.B.(.P.1 ; ; , , ) v.Q V b c x c n P +     ",
"    X J B v v x c n L { z.k.) _ ' <XC.c./ T W x.E./.d.o.=.8.w.w.w.w.q.*. .>XL.B.<.T W / v.B.&X' _ ` 2.2.^ V v c z x c n J X     ",
"      $ J n c x z c b V W / <.c.1.<.z.| L B T x.E.(.u >.r.8.w.w.w.w.q.&. .@XK.<X<.Y B L Q / ,.c.2.,./ R B b x z z c v Z #       ",
"        & C n v x x x b M L I Y Y Y L N b n Y x.E.8 y X.e.8.w.w.w.w.q.&. .w P.<X<.Y n n N L Y Y Y I V M b x x z c b Z #         ",
"          # Z n v x x c v b b b n b v c v b Y l.}.7 e +.:.0.w.w.w.w.0.5.- 4 U.B.<.L b c v b b n n n v c x x x x n m @           ",
"            % J N v c x x c c c x c x x x v L { <X2 4 S 4.=.q.8.q.9.&.o.r , R.N./ B v x x x x x x x x x x x x n m @             ",
"              o H B b v x x x x x x x x x v N W b.1 > e F 3.&.=.;.*.o.= 4 : ' v.T M v x x x x x x x x x c b M m +               ",
"                X j C M v x x x x z x z x c b L { ] ; , e =  .+. . .y 4 ; < n./ V b x x z z z x x x c v n C k O                 ",
"                    & J B n v x x x z z z x v M T l.i ; : 3 q e q 4 < ; , [ ,.Y n x x z z x x x x c b N m & .                   ",
"                      O j U N n v c x x z x x v N T ,.` 3 : ; ; , ; ; 9 k.,.Y n v x x x x x c v b N C k O                       ",
"                          % A P B n b v x x x x v N T ,.c.` ) i i _ 2.2.,.Y M v x x x x v v b N U k +                           ",
"                            . & A K V N n v v v c v M I Q ,.1.1.2.<.,.Q L n v x v c v b M B K k @ .                             ",
"                                  o h J P V N n b b b n B I Y W T Y L N n v b b n N V U H h o .                                 ",
"                                      . $ h J E U L V B B B B B B B B N B B C U K H h + .                                       ",
"                                            . o & * j H J E R K P P E J H A h & O .                                             ",
"                                                        . O o o o o O .                                                         ",
"                                                                                                                                "
};
