/* XPM */
static char *result[] = {
/* columns rows colors chars-per-pixel */
"64 64 207 2 ",
"   c #020002",
".  c #080106",
"X  c #140102",
"o  c #1D0000",
"O  c #230000",
"+  c #2C0000",
"@  c #340000",
"#  c #3C0000",
"$  c #440000",
"%  c #4B0000",
"&  c #4B0E0E",
"*  c #440808",
"=  c #540000",
"-  c #5B0000",
";  c #540808",
":  c #5B0B0B",
">  c #430F10",
",  c #471414",
"<  c #5B1515",
"1  c #521717",
"2  c #640000",
"3  c #6C0000",
"4  c #630A0A",
"5  c #6C0B0B",
"6  c #740000",
"7  c #7B0101",
"8  c #730A0B",
"9  c #7D0A0A",
"0  c #7E0708",
"q  c #7B1414",
"w  c #761919",
"e  c #681818",
"r  c #552121",
"t  c #830101",
"y  c #8C0000",
"u  c #850A0A",
"i  c #8C0B0B",
"p  c #940000",
"a  c #9B0000",
"s  c #940C0C",
"d  c #9B0F0F",
"f  c #821212",
"g  c #8B1313",
"h  c #941212",
"j  c #9C1313",
"k  c #941919",
"l  c #9D1C1C",
"z  c #9D1718",
"x  c #A30000",
"c  c #AB0000",
"v  c #A20B0B",
"b  c #AD0E0E",
"n  c #B30000",
"m  c #BC0000",
"M  c #B90B0B",
"N  c #B30D0D",
"B  c #A41515",
"V  c #AC1212",
"C  c #A31C1C",
"Z  c #AD1A1A",
"A  c #B11212",
"S  c #BB1C1C",
"D  c #B81616",
"F  c #9D2323",
"G  c #933C3B",
"H  c #A92828",
"J  c #AA2121",
"K  c #BE2525",
"L  c #B32929",
"P  c #B52525",
"I  c #AA3131",
"U  c #B93737",
"Y  c #C30000",
"T  c #CC0000",
"R  c #CC0C0C",
"E  c #D40000",
"W  c #DB0000",
"Q  c #D30C0C",
"!  c #DD0A0A",
"~  c #C41414",
"^  c #CC1414",
"/  c #C61E1E",
"(  c #CD1B1B",
")  c #DC1111",
"_  c #D41D1D",
"`  c #D91919",
"'  c #E30101",
"]  c #EB0202",
"[  c #E60D0D",
"{  c #EC0B0B",
"}  c #F40404",
"|  c #F90606",
" . c #F50A0A",
".. c #FA0B0B",
"X. c #EF1717",
"o. c #E31D1D",
"O. c #E91D1D",
"+. c #E71212",
"@. c #F61313",
"#. c #FB1313",
"$. c #F31B1B",
"%. c #FB1B1B",
"&. c #C62222",
"*. c #D72727",
"=. c #D72B2B",
"-. c #C23131",
";. c #C93737",
":. c #D73939",
">. c #E42D2D",
",. c #E92828",
"<. c #F52525",
"1. c #FB2424",
"2. c #F42D2D",
"3. c #FB2B2B",
"4. c #E63737",
"5. c #F53535",
"6. c #FC3333",
"7. c #F43B3B",
"8. c #FB3C3C",
"9. c #964443",
"0. c #A94644",
"q. c #B74544",
"w. c #AF5D59",
"e. c #BD5A58",
"r. c #B7615D",
"t. c #BF6D66",
"y. c #B97570",
"u. c #CA4747",
"i. c #D64747",
"p. c #C1504E",
"a. c #C55D5A",
"s. c #CF5F5D",
"d. c #D75857",
"f. c #EA4949",
"g. c #F14746",
"h. c #FC4444",
"j. c #FC4B4B",
"k. c #F74A4A",
"l. c #E35352",
"z. c #EB5656",
"x. c #EA5B5B",
"c. c #FC5454",
"v. c #F55F5F",
"b. c #FB5C5C",
"n. c #C46C6A",
"m. c #DA6767",
"M. c #D36D6A",
"N. c #D66A67",
"B. c #C87672",
"V. c #DD7C76",
"C. c #E76866",
"Z. c #FB6464",
"A. c #FC6A69",
"S. c #FB6866",
"D. c #F8726F",
"F. c #FA7773",
"G. c #FB7C74",
"H. c #FC7B79",
"J. c #D5877E",
"K. c #FB827D",
"L. c #FB8577",
"P. c #CF8D81",
"I. c #D4998E",
"U. c #DF9588",
"Y. c #C09890",
"T. c #DA9791",
"R. c #CC9888",
"E. c #FC8A84",
"W. c #FC8E88",
"Q. c #E89089",
"!. c #FB9381",
"~. c #F7958B",
"^. c #EF9F91",
"/. c #EBA18F",
"(. c #FCA68E",
"). c #E9A397",
"_. c #FCAB95",
"`. c #F5AB9D",
"'. c #EBB39B",
"]. c #FCB79A",
"[. c #D3B2A6",
"{. c #ECB8A9",
"}. c #FCCAAC",
"|. c #F6C5A6",
" X c #FEDBAE",
".X c #F5DCBD",
"XX c #F8DFBA",
"oX c #F9DBB4",
"OX c #FBE6BB",
"+X c #FFEEBB",
"@X c #FAE3B6",
"#X c #FFF0BA",
"$X c #EEDAC3",
"%X c #EADACA",
"&X c #FBDDC5",
"*X c #FED4C9",
"=X c #FBDDCA",
"-X c #F2DAC6",
";X c #FCE4C4",
":X c #FDEAC2",
">X c #F6E5CA",
",X c #F8E6C9",
"<X c #FDF4C4",
"1X c #FAF0C8",
"2X c #F4E4D2",
"3X c #F7E8D1",
"4X c None",
/* pixels */
"4X4X4X4X4X4X4X4X4X4X4X4X4X- 2 o 6 + % x W  .1.h.!.,XJ.u @ O o 4X4XO O + q T.;X(.h.<...' x = + 6 o - 6 4X4X4X4X4X4X4X4X4X4X4X4X4X",
"4X4X4X4X4X4X4X4X4X4X4X4X4X- 3 o 6 @ = c ' ..3.j.D.P.w @ $ - o 4X4X4X= $ @ < w.l.8.<...' c = + 6 o 2 6 4X4X4X4X4X4X4X4X4X4X4X4X4X",
"4X4X4X4X4X4X4X4X4X4X4X4X4X$ 7 o 3 @ % x ' ..$.>.l & * - - + 4X4X4X4Xo - 2 = * : V +.{ ' n - + t + 6 2 4X4X4X4X4X4X4X4X4X4X4X4X4X",
"4X4X4X4X4X4X4X4X4X4X4X4X4X+ y O - $ % x W E x 4 $ - - % o 4X4X4X4X4X4X  $ = = % $ 3 a n a = O y 2 t % 4X4X4X4X4X4X4X4X4X4X4X4X4X",
"4X4X4X4X4X4X4X4X4X4X4X4X4Xo p @ = = @ 6 t - $ % % $ # X 4X4X4X4X4X4X4X4X4X@ # $ % % # $ % @ O 6 7 t + 4X4X4X4X4X4X4X4X4X4X4X4X4X",
"4X4X4X4X4X4X4X4X4X4X4X4X4X4Xt = - = + @ # $ $ # @ + o o + # * % % % $ + o o O @ @ @ % - - = o # 7 7 4X4X4X4X4X4X4X4X4X4X4X4X4X4X",
"4X4X4X4X4X4X4X4X4X4X4X4X4X4X= t 6 $ 2 3 = $ + @ % 6 p n Y T W W W W T Y m a 6 = @ + + @ + 7 @ # 3 2 4X4X4X4X4X4X4X4X4X4X4X4X4X4X",
"4X4X4X4X4X4X4X4X4X4X4X4X4X4Xo p 6 # t @ O $ 7 n Y T T Y m n x a a a c m Y Y Y Y n y % O o 6 # = 6 + 4X4X4X4X4X4X4X4X4X4X4X4X4X4X",
"4X4X4X4X4X4X4X4X4X4X4X4X4X4X4X2 7 % 3 = y Y Y m n a y t y x Y T E m c p p a a c n m m a % t = 3 3 4X4X4X4X4X4X4X4X4X4X4X4X4X4X4X",
"4X4X4X4X4X4X4X4X4X4X4X4X4X4X4Xo t 2 7 T E m a c Y n p t x m n x x n n c x m T n x x n m Y x 6 7 + 4X4X4X4X4X4X4X4X4X4X4X4X4X4X4X",
"4X4X4X4X4X4X4X4X4X4X4X4X4X4X4X4X2 n W T a y T 2 2 Y W W Y m c x a x n Y T E c % $ 7 n a Y T m 7 4X4X4X4X4X4X4X4X4X4X4X4X4X4X4X4X",
"4X4X4X4X4X4X4X4X4X4X4X4X4X4X4X3 Y W c p 7 p a $ 3 c 6 $ $ $ % % = % $ $ # - a p # $ x n m x T T t O 4X4X4X4X4X4X4X4X4X4X4X4X4X4X",
"4X4X4X4X4X4X4X4X4X4X4X4X4X4X7 T T y p 2 t E n x x y = % % % % $ $ % % % % % 3 c y a m Y y a p Y W p O 4X4X4X4X4X4X4X4X4X4X4X4X4X",
"- = $ @ o 4X4X4X4X4X4X4X. 7 E m y x p m E t 6 p c y 6 6 7 6 6 3 3 6 6 7 7 6 3 c c 6 6 n W x x a n W p O 4X4X4X4X4X4X4XX + $ = - ",
"- 3 t p a t = o 4X4X4X4X7 E n y Y m n m = # = 6 y 7 x n n n c x x x n n n a p p 3 = $ $ p m Y Y x c W a O 4X4X4XX $ 7 a p t 2 2 ",
"O o O O @ 2 7 t - o 4X3 T n y W Y t c % $ - 7 a a = c W ' W E E T W W ' W m 7 6 p t - $ $ a y n ' x n W y 4X  = p p 2 @ O o o o ",
"2 2 3 2 6 a 6 2 6 7 2 Y Y y Y Y 6 c = $ = 7 c Y m 3 p E } | | ] { } } } W n - a m n y - $ $ x 6 c W p Y T 6 t t 6 6 2 = - 2 2 2 ",
"# @ # $ $ @ + + % 3 c W y a m 7 c = # = 6 x T ' W a 6 T } #........... .W p 3 m W E n t - $ $ a t Y c p T Y 7 2 = = - - % # # # ",
"$ $ % $ @ @ p t 7 y W c p p c c = # = 3 a m ' } } T 3 c +.%.1.%.#.%.%.@.R 6 a E ] ] T x 7 = $ $ a n n x c Y a 3 t 3 O @ $ % $ $ ",
"p a x a - = $ O % Y T c 2 m m = $ = 3 p n W } ..#.+.p 7 ) 3.6.6.6.6.6.$.c 2 m {  .} ' Y x 7 - $ $ p W n n Y Y 6 @ 6 @ 3 p x a p ",
"E W ' m - = @ O y W a 6 7 T - $ = 6 a n E ]  .#.1.$.M 2 D 5.j.k.j.j.5.^ 0 t Q $.#...} W Y x t - $ # p W Y x m c + = # 6 T ' W E ",
" .....Y % % @ # Y m 7 = Y p # = 7 x m W ] } ..%.6.6.^ 6 s >.b.F.G.A.4.v 6 v <.6.1...| { W T c y 2 $ = n t n c m - $ % - E .. . .",
"%.<.$.p $ $ + 6 W p x c T t - 7 c T ' ] ....%.3.h.h.*.u 0 K ~.+X+X}.;.u u / 8.h.6.%.....} ] E n t - 2 c $ - x m a @ $ $ n $.1.%.",
"8.h._ % $ @ @ n W y W t 7 c p c T ' } | #.%.1.8.j.Z.x.C 0 k Q.*X*X{.H u h :.b.c.8.6.%.#.| { ' T x 6 y c $ @ a n m $ @ $ 4 o.7.8.",
"L.l.5 % $ + % W c n Y = # = t c T ] ..#.1.3.8.j.S.|.|.U u u q.%X$Xu.f t H /.}.G.j.h.6.1...' T n p t c c 7 % Y a T 3 + % $ g g.L.",
"OXt.* = # O 3 ' p p n x a 6 2 t a m { @.<.6.8.b.].<XOXq.9 p q q.u.k t t a.>X;X XD.h.3.@.! m y 2 - y 7 6 a n n p T p + # = * e.OX",
"R.1 ; % @ X a W t 2 m c t a n x c c n M ) O.,.Z.oX=X,Xa.9 p 7 i v t y u n.3X=XXXC.*.M b t 2 6 a n c 7 = - E p y T n + @ = ; r [.",
"e # - $   X m T t 2 W 3 = t Y W ' ' R x 8 u V K a.I.T.U t t p 7 t t t i ;.V.M.u.J u 0 3 t M T E W m y = # m x y n T @ 4X$ - # w ",
"+ - = o 4X+ T n t t T % % 7 m '  ...#.$.~ i 5 6 i g k v y 7 y t 7 7 t y d d i u t 0 u V ` $.#.} ' Y y - # c m a x E % 4X  = % @ ",
"O 2 O 4X4X# T x t x m % % 7 n W | #.1.6.5.4.U k 0 p t t t 7 t 7 7 3 7 t t t p y u C =.7.8.3.#...] T y - # a Y c a W 3 4X4Xo - O ",
"+ + 4X4X4X% W p x c c % $ 6 c W } ..1.8.j.S.`.N.F 9 t y t 7 3 - - = - 6 y t 7 k p.Q.H.c.j.3.#...' Y p - # a n T p W 6 4X4X4Xo O ",
"4X4X4X4X4X% E p m x x % $ 3 a T ] ..%.6.j.G.#X:XQ.H t 7 7 2 = % % $ = 6 7 7 j M.3X<X_.c.h.3.#...' Y y - # a a W p W 7 4X4X4X4X4X",
"4X4X4X4X4X% W p Y x x % $ 3 a T { ..%.6.h.F.OX*X2X;.v t t 2 $ $ % $ % 6 7 t V N..X<X].c.8.<.#. .' Y y - # a p ' p W 6 4X4X4X4X4X",
"O o 4X4X4X$ E p x c x % % 3 x E ] ..%.6.h.S.oX.XB.l y t t 2 % $ $ $ = 3 y 7 0 z :.~.E.b.h.3.#. .' Y p - # a c W p W 7 4X4X4XX O ",
"O - + 4X4X$ E a y x n % % 6 c W } ..%.6.8.8.l.U g u y y t 7 3 = % % 7 t t a y t v :.g.j.j.3.#...] Y y - # a Y n p W 3 4X4Xo - O ",
"O - - O 4X@ T c 7 y T % % 6 n ' | ..1.3.<._ k 5 7 t t t y 7 t 6 6 2 t 7 t t t t 6 i D ,.3.1.#...] T y = # c m a a W = 4XX - - O ",
": # 4 $ X o m Y 7 - W 2 % 7 Y ' | ..@.) b 5 8 B J L L A a t y 7 t t t t V L I F g 6 4 i R [ { } ' Y y = # Y a p n E # 4X$ 2 $ * ",
"y.# - % @ O x W y % m x 6 a T T W E T N N ^ =.x./.|.{.=.a t t y a t t 7 J ).$X).i.&.V u 5 y n Y T m t % % W 7 t Y m @ @ = - @ 0.",
">X9.* = @ + 6 ' y 7 p T c p p x n Y Q [ <.8.j.H. X;X3Xd.s t 7 d M s t t Z /.,X+XK.k.5.O.Q x 7 7 7 c y 3 y E 3 t E a @ # ; # F '.",
"].l.: = $ @ = W x x m y % = 6 a m '  .#.1.8.j.b.K.@X1Xs.i 7 z d.C.K i 6 A C.OX_.Z.j.h.3.@.' Y p 3 % y c x n p p W 6 @ $ % 5 f._.",
"j.k.Z $ % @ @ Y T 3 W x # = y n W ] | ..#.3.8.h.c.E.`.;.5 h i.OX>X).L 4 V f.E.b.j.8.3.1.#.} ' E Y x p - $ t n n T % # % % &.j.j.",
"2.6.o.5 % @ + y ' 6 m m y c a a m W ] | ..#.1.6.j.c.g.C 5 -.`.<X;X<Xm.f 9 4.j.c.8.3.%...} } W Y p 6 p a @ t x Y c @ @ $ t O.6.3.",
"#.#. .x # % + % W n p 7 n m - 2 y m E ' } ..#.1.8.h.>.9 d 4.W.(.(._.Z.S 4 ( 8.h.3.#... .] W Y a 3 % 6 m a T x Y 6 @ = $ n ..#.#.",
"] ] ' n % - @ O x W t y 3 W - $ 2 y n T ' } ..%.3.3.^ 9 _ h.b.c.c.c.c.>.s A <.3.%.#. .] W m a 6 = # x T x p Y m @ # - % m ] ] ' ",
"n m m a = - @ o = T T m 2 m c # $ 2 y c T ' } ..#.@.b N <.h.h.h.8.h.h.6.^ p +.%.#.| ] W n a 6 % # 6 W t p m T 7 O $ - - a n m n ",
"2 2 - - @ - t 3 t x W a p t m y # % 2 t n E ] |  .W x ! 1.3.3.1.1.3.3.1.[ a Y  .| } W m p 3 = # 2 Y x 7 a T c 7 y p @ @ = 2 2 2 ",
"+ + + O O O $ @ = 6 Y T t 6 n c t # % 2 y n W ] { m m  .#.#.#.#.#.#.#.#. .n x W ] W Y a 6 = @ 2 n Y 6 y m T 6 $ + + O + + + + + ",
"t 7 t t y - $ - 3 7 7 T n p a n a t # % 2 y m W T c T | | | |  .| | | |  .T a x W Y p 3 = # 2 c x c a c E p t 6 2 6 p y t t t 7 ",
"o O O @ = 6 3 7 3 + . t W x x T c x y # $ 2 p Y x x T ] ] ' ' ' W ' ] ] ] W a t m x 3 % # 3 n x m c x W c O O 3 t 6 - @ O o O o ",
"- 2 3 t p t 2 + 4X4X4XO a W a x c m n x % = t x 7 y Y T T Y Y m m Y Y Y Y E x 2 a t = # 7 m m x x a W n # 4X4X4X+ 2 y a y 6 2 - ",
"7 6 2 % + 4X4X4X4X4X4X4X+ a ' a p 6 y Y T a n 3 = p x p y y y y y y y y y p c - 3 x t n W a 2 y a W m $ 4X4X4X4X4X4X4X+ % 2 6 7 ",
"4X4X4X4X4X4X4X4X4X4X4X4X4X+ x W c y t 3 t T a $ $ c 3 = = - - = = - - = = - p t @ 7 Y n 3 7 y x W m $ 4X4X4X4X4X4X4X4X4X4X4X4X4X",
"4X4X4X4X4X4X4X4X4X4X4X4X4X4XO p W Y a a t t Y y 6 m y % @ # # # @ # # # # 3 n t % 7 c t a p Y W x # 4X4X4X4X4X4X4X4X4X4X4X4X4X4X",
"4X4X4X4X4X4X4X4X4X4X4X4X4X4X4X. 6 T W m p x T W a a T W m c a a a a x n T W m c Y ' m y Y W E p O 4X4X4X4X4X4X4X4X4X4X4X4X4X4X4X",
"4X4X4X4X4X4X4X4X4X4X4X4X4X4X4X. t 6 a W W a 2 t a % $ 2 a n c p p c m c 7 % $ 2 a y a T W n 7 7 O 4X4X4X4X4X4X4X4X4X4X4X4X4X4X4X",
"4X4X4X4X4X4X4X4X4X4X4X4X4X4X4X- y 2 3 6 n W ' n y t 6 3 3 3 y n m x t 6 6 6 7 y c W W Y 6 t % 3 2 4X4X4X4X4X4X4X4X4X4X4X4X4X4X4X",
"4X4X4X4X4X4X4X4X4X4X4X4X4X4XX p 2 3 y $ + - x T W E m c p y p y p y y p x m T W W c 3 @ o 6 # - 7 O 4X4X4X4X4X4X4X4X4X4X4X4X4X4X",
"4X4X4X4X4X4X4X4X4X4X4X4X4X4X$ p = 6 2 7 = # @ $ 3 a m T E W W W W W W W T Y x 6 % @ + + + 6 % $ 3 - 4X4X4X4X4X4X4X4X4X4X4X4X4X4X",
"4X4X4X4X4X4X4X4X4X4X4X4X4X4X6 - % 3 O @ $ % $ @ @ O + @ % 3 7 7 6 7 3 = $ + O + + @ $ - 2 7 @ = 7 7 4X4X4X4X4X4X4X4X4X4X4X4X4X4X",
"4X4X4X4X4X4X4X4X4X4X4X4X4X. y @ $ 2 @ 3 6 = $ % $ # @ X 4X4X4X4X4X4X4X4X4X+ @ # $ % $ @ @ + O p 2 y O 4X4X4X4X4X4X4X4X4X4X4X4X4X",
"4X4X4X4X4X4X4X4X4X4X4X4X4X+ y O = = $ a E T a ; % = % # o 4X4X4X4X4X4X  # $ % = $ % 7 x p % + y # t $ 4X4X4X4X4X4X4X4X4X4X4X4X4X",
"4X4X4X4X4X4X4X4X4X4X4X4X4X$ 7 o 2 # % x ' ..$._ q $ - - = + 4X4X4X4Xo % - - $ ; h Q ' ' n - O t O 6 2 4X4X4X4X4X4X4X4X4X4X4X4X4X",
"4X4X4X4X4X4X4X4X4X4X4X4X4X= 3 o 3 @ = c ' ..3.h.z.0.& $ - 3 + 4X4XO 2 2 % , G i.8.<...' c - + 6 o 2 6 4X4X4X4X4X4X4X4X4X4X4X4X4X",
"4X4X4X4X4X4X4X4X4X4X4X4X4X- 2 o 6 + % x W ..<.h.!.oXt.: + @ + 4X4X@ @ O < Y..X!.h.<...' x % + 6 o - 7 4X4X4X4X4X4X4X4X4X4X4X4X4X"
};
